<svg width="11" height="18" viewBox="0 0 11 18" fill="none" xmlns="http://www.w3.org/2000/svg">
<path d="M1.37646 17.2812C1.0249 17.2812 0.744141 17.1665 0.53418 16.937C0.329102 16.7075 0.226562 16.4023 0.226562 16.0215V1.40234C0.226562 1.0166 0.329102 0.711426 0.53418 0.486816C0.744141 0.257324 1.0249 0.142578 1.37646 0.142578H9.61621C9.97266 0.142578 10.2534 0.257324 10.4585 0.486816C10.6636 0.711426 10.7661 1.0166 10.7661 1.40234V16.0215C10.7661 16.4023 10.6636 16.7075 10.4585 16.937C10.2534 17.1665 9.97266 17.2812 9.61621 17.2812H1.37646ZM1.74268 16.1606H9.25C9.38672 16.1606 9.48682 16.1289 9.55029 16.0654C9.61865 16.002 9.65283 15.9019 9.65283 15.7651V1.65869C9.65283 1.52197 9.61865 1.42188 9.55029 1.3584C9.48682 1.29004 9.38672 1.25586 9.25 1.25586H1.74268C1.61084 1.25586 1.51074 1.29004 1.44238 1.3584C1.37402 1.42188 1.33984 1.52197 1.33984 1.65869V15.7651C1.33984 15.9019 1.37402 16.002 1.44238 16.0654C1.51074 16.1289 1.61084 16.1606 1.74268 16.1606ZM3.21484 5.2915C3.01953 5.2915 2.92188 5.19141 2.92188 4.99121V3.60693C2.92188 3.40674 3.01953 3.30664 3.21484 3.30664H4.63574C4.83594 3.30664 4.93604 3.40674 4.93604 3.60693V4.99121C4.93604 5.19141 4.83594 5.2915 4.63574 5.2915H3.21484ZM6.34961 5.2915C6.1543 5.2915 6.05664 5.19141 6.05664 4.99121V3.60693C6.05664 3.40674 6.1543 3.30664 6.34961 3.30664H7.77051C7.9707 3.30664 8.0708 3.40674 8.0708 3.60693V4.99121C8.0708 5.19141 7.9707 5.2915 7.77051 5.2915H6.34961ZM3.21484 8.19189C3.01953 8.19189 2.92188 8.0918 2.92188 7.8916V6.50732C2.92188 6.30713 3.01953 6.20703 3.21484 6.20703H4.63574C4.83594 6.20703 4.93604 6.30713 4.93604 6.50732V7.8916C4.93604 8.0918 4.83594 8.19189 4.63574 8.19189H3.21484ZM6.34961 8.19189C6.1543 8.19189 6.05664 8.0918 6.05664 7.8916V6.50732C6.05664 6.30713 6.1543 6.20703 6.34961 6.20703H7.77051C7.9707 6.20703 8.0708 6.30713 8.0708 6.50732V7.8916C8.0708 8.0918 7.9707 8.19189 7.77051 8.19189H6.34961ZM3.21484 11.0923C3.01953 11.0923 2.92188 10.9922 2.92188 10.792V9.40771C2.92188 9.20752 3.01953 9.10742 3.21484 9.10742H4.63574C4.83594 9.10742 4.93604 9.20752 4.93604 9.40771V10.792C4.93604 10.9922 4.83594 11.0923 4.63574 11.0923H3.21484ZM6.34961 11.0923C6.1543 11.0923 6.05664 10.9922 6.05664 10.792V9.40771C6.05664 9.20752 6.1543 9.10742 6.34961 9.10742H7.77051C7.9707 9.10742 8.0708 9.20752 8.0708 9.40771V10.792C8.0708 10.9922 7.9707 11.0923 7.77051 11.0923H6.34961ZM3.34668 16.6953V14.1025C3.34668 13.8047 3.4126 13.585 3.54443 13.4434C3.68115 13.2969 3.89355 13.2236 4.18164 13.2236H6.81836C7.10645 13.2236 7.31641 13.2969 7.44824 13.4434C7.58496 13.585 7.65332 13.8047 7.65332 14.1025V16.6953H6.74512V14.3589C6.74512 14.2124 6.66943 14.1392 6.51807 14.1392H4.48193C4.33057 14.1392 4.25488 14.2124 4.25488 14.3589V16.6953H3.34668Z" fill="#00A19A"/>
</svg>
