<svg width="14" height="15" viewBox="0 0 14 15" fill="none" xmlns="http://www.w3.org/2000/svg">
<path d="M2.5542 14.4575C1.7876 14.4575 1.21143 14.2671 0.825684 13.8862C0.444824 13.5103 0.254395 12.9463 0.254395 12.1943V3.24414C0.254395 2.4873 0.444824 1.9209 0.825684 1.54492C1.21143 1.16406 1.7876 0.973633 2.5542 0.973633H11.4385C12.2051 0.973633 12.7788 1.16406 13.1597 1.54492C13.5454 1.92578 13.7383 2.49219 13.7383 3.24414V12.1943C13.7383 12.9463 13.5454 13.5103 13.1597 13.8862C12.7788 14.2671 12.2051 14.4575 11.4385 14.4575H2.5542ZM6.17969 11.2861C6.30664 11.2861 6.42139 11.2568 6.52393 11.1982C6.62646 11.1396 6.7168 11.0518 6.79492 10.9346L10.2373 5.50732C10.2812 5.43408 10.3228 5.35596 10.3618 5.27295C10.4009 5.18994 10.4204 5.10693 10.4204 5.02393C10.4204 4.85303 10.3569 4.71875 10.23 4.62109C10.103 4.51855 9.96143 4.46729 9.80518 4.46729C9.59033 4.46729 9.41455 4.57959 9.27783 4.8042L6.15039 9.82861L4.66357 7.90967C4.5708 7.7876 4.48047 7.70459 4.39258 7.66064C4.30957 7.6167 4.21436 7.59473 4.10693 7.59473C3.94092 7.59473 3.80176 7.65576 3.68945 7.77783C3.57715 7.89502 3.521 8.03662 3.521 8.20264C3.521 8.28564 3.53564 8.36865 3.56494 8.45166C3.59912 8.52979 3.64307 8.60547 3.69678 8.67871L5.53516 10.9346C5.63281 11.0615 5.73291 11.1519 5.83545 11.2056C5.93799 11.2593 6.05273 11.2861 6.17969 11.2861Z" fill="#00A19A"/>
</svg>
