<svg width="14" height="15" viewBox="0 0 14 15" fill="none" xmlns="http://www.w3.org/2000/svg">
<path d="M2.5542 14.4575C1.7876 14.4575 1.21143 14.2671 0.825684 13.8862C0.444824 13.5103 0.254395 12.9463 0.254395 12.1943V3.24414C0.254395 2.4873 0.444824 1.9209 0.825684 1.54492C1.21143 1.16406 1.7876 0.973633 2.5542 0.973633H11.4385C12.2051 0.973633 12.7788 1.16406 13.1597 1.54492C13.5454 1.92578 13.7383 2.49219 13.7383 3.24414V12.1943C13.7383 12.9463 13.5454 13.5103 13.1597 13.8862C12.7788 14.2671 12.2051 14.4575 11.4385 14.4575H2.5542ZM2.56885 13.2783H11.4238C11.7852 13.2783 12.0635 13.1831 12.2588 12.9927C12.459 12.7974 12.5591 12.5093 12.5591 12.1284V3.31006C12.5591 2.9292 12.459 2.64111 12.2588 2.4458C12.0635 2.25049 11.7852 2.15283 11.4238 2.15283H2.56885C2.20264 2.15283 1.92188 2.25049 1.72656 2.4458C1.53125 2.64111 1.43359 2.9292 1.43359 3.31006V12.1284C1.43359 12.5093 1.53125 12.7974 1.72656 12.9927C1.92188 13.1831 2.20264 13.2783 2.56885 13.2783Z" fill="#00A19A"/>
</svg>
