<svg width="19" height="20" viewBox="0 0 19 20" fill="none" xmlns="http://www.w3.org/2000/svg">
<path d="M7.73486 15.2783C7.22705 15.2783 6.76562 15.2148 6.35059 15.0879C5.94043 14.9658 5.59131 14.8218 5.30322 14.6558C5.01514 14.4897 4.80273 14.3481 4.66602 14.231C4.35352 14.3823 4.05078 14.4946 3.75781 14.5679C3.46973 14.6411 3.19141 14.6777 2.92285 14.6777C2.35156 14.6777 1.84863 14.5508 1.41406 14.2969C0.979492 14.043 0.637695 13.6938 0.388672 13.2495C0.144531 12.8003 0.0224609 12.2803 0.0224609 11.6895C0.0224609 11.2451 0.117676 10.7935 0.308105 10.3345C0.503418 9.87061 0.811035 9.42871 1.23096 9.00879C0.898926 8.65723 0.657227 8.28125 0.505859 7.88086C0.359375 7.48047 0.286133 7.07764 0.286133 6.67236C0.286133 6.09131 0.422852 5.54199 0.696289 5.02441C0.969727 4.50195 1.33594 4.06982 1.79492 3.72803C2.25391 3.38135 2.76416 3.17383 3.32568 3.10547C3.34521 2.68555 3.46484 2.29736 3.68457 1.94092C3.90918 1.58447 4.19971 1.27686 4.55615 1.01807C4.91748 0.759277 5.31543 0.559082 5.75 0.41748C6.18945 0.275879 6.63379 0.205078 7.08301 0.205078C7.54199 0.205078 7.979 0.280762 8.39404 0.432129C8.80908 0.583496 9.17773 0.822754 9.5 1.1499C9.81738 0.822754 10.1836 0.583496 10.5986 0.432129C11.0186 0.280762 11.458 0.205078 11.917 0.205078C12.3662 0.205078 12.8081 0.275879 13.2427 0.41748C13.6821 0.559082 14.0825 0.759277 14.4438 1.01807C14.8052 1.27686 15.0957 1.58447 15.3154 1.94092C15.54 2.29736 15.6621 2.68555 15.6816 3.10547C16.2432 3.17383 16.751 3.38135 17.2051 3.72803C17.6641 4.06982 18.0278 4.50195 18.2964 5.02441C18.5698 5.54199 18.7065 6.09131 18.7065 6.67236C18.7065 7.07764 18.6333 7.48047 18.4868 7.88086C18.3403 8.28125 18.1011 8.65723 17.769 9.00879C18.189 9.42871 18.4941 9.87061 18.6846 10.3345C18.8799 10.7935 18.9775 11.2451 18.9775 11.6895C18.9775 12.2803 18.853 12.8003 18.604 13.2495C18.3599 13.6938 18.0205 14.043 17.5859 14.2969C17.1514 14.5508 16.6484 14.6777 16.0771 14.6777C15.8086 14.6777 15.5278 14.6411 15.2349 14.5679C14.9419 14.4946 14.6416 14.3823 14.334 14.231C14.1973 14.3481 13.9849 14.4897 13.6968 14.6558C13.4087 14.8218 13.0571 14.9658 12.6421 15.0879C12.2319 15.2148 11.7729 15.2783 11.2651 15.2783C10.9966 15.2783 10.7134 15.2563 10.4155 15.2124C10.1177 15.1685 9.8125 15.0903 9.5 14.978C9.1875 15.0903 8.88232 15.1685 8.58447 15.2124C8.28662 15.2563 8.00342 15.2783 7.73486 15.2783ZM7.73486 14.2236C8.01318 14.2236 8.28906 14.1968 8.5625 14.1431C8.83594 14.0894 9.14844 13.9917 9.5 13.8501C9.85156 13.9917 10.1641 14.0894 10.4375 14.1431C10.7109 14.1968 10.9868 14.2236 11.2651 14.2236C11.8315 14.2236 12.3076 14.1431 12.6934 13.9819C13.084 13.8159 13.3965 13.6304 13.6309 13.4253C13.8701 13.2153 14.0435 13.0469 14.1509 12.9199C14.5366 13.1934 14.8662 13.3789 15.1396 13.4766C15.4131 13.5693 15.7256 13.6157 16.0771 13.6157C16.6338 13.6157 17.0781 13.4399 17.4102 13.0884C17.7471 12.7368 17.9155 12.2705 17.9155 11.6895C17.9155 11.2988 17.8252 10.9326 17.6445 10.5908C17.4688 10.2441 17.127 9.83887 16.6191 9.375C16.5068 9.27734 16.4531 9.15771 16.458 9.01611C16.4629 8.86963 16.5117 8.75 16.6045 8.65723C17.0342 8.24219 17.3149 7.87598 17.4468 7.55859C17.5835 7.23633 17.6519 6.89453 17.6519 6.5332C17.6519 6.06445 17.5371 5.64209 17.3076 5.26611C17.083 4.89014 16.7632 4.59961 16.3481 4.39453C15.938 4.18945 15.4546 4.10645 14.8979 4.14551C14.7759 4.15527 14.6904 4.12598 14.6416 4.05762C14.5977 3.98926 14.583 3.91113 14.5977 3.82324C14.666 3.34961 14.5903 2.91992 14.3706 2.53418C14.1558 2.14355 13.8286 1.8335 13.3892 1.604C12.9497 1.37451 12.437 1.25977 11.8511 1.25977C11.3433 1.25977 10.9038 1.35498 10.5327 1.54541C10.1665 1.73096 9.82227 1.99463 9.5 2.33643C9.17773 1.99463 8.8335 1.73096 8.46729 1.54541C8.10107 1.35498 7.66162 1.25977 7.14893 1.25977C6.56299 1.25977 6.05029 1.37451 5.61084 1.604C5.17139 1.8335 4.8418 2.14355 4.62207 2.53418C4.40723 2.91992 4.33398 3.34961 4.40234 3.82324C4.41699 3.91113 4.40234 3.98926 4.3584 4.05762C4.31445 4.12598 4.229 4.15527 4.10205 4.14551C3.54541 4.10645 3.05957 4.18945 2.64453 4.39453C2.23438 4.59961 1.91455 4.89014 1.68506 5.26611C1.45557 5.64209 1.34082 6.06445 1.34082 6.5332C1.34082 6.89453 1.40918 7.23633 1.5459 7.55859C1.68262 7.87598 1.96582 8.24219 2.39551 8.65723C2.48828 8.75 2.53711 8.86963 2.54199 9.01611C2.54688 9.15771 2.49316 9.27734 2.38086 9.375C1.87305 9.83887 1.52881 10.2441 1.34814 10.5908C1.17236 10.9326 1.08447 11.2988 1.08447 11.6895C1.08447 12.2705 1.25049 12.7368 1.58252 13.0884C1.91943 13.4399 2.36621 13.6157 2.92285 13.6157C3.27441 13.6157 3.58691 13.5693 3.86035 13.4766C4.13379 13.3789 4.46094 13.1934 4.8418 12.9199C4.9541 13.0469 5.12744 13.2153 5.36182 13.4253C5.60107 13.6304 5.91357 13.8159 6.29932 13.9819C6.68994 14.1431 7.16846 14.2236 7.73486 14.2236ZM5.59619 11.7188C5.46924 11.7188 5.35938 11.6748 5.2666 11.5869C5.17871 11.499 5.13477 11.3916 5.13477 11.2646C5.13477 11.1377 5.17871 11.0303 5.2666 10.9424C5.35938 10.8496 5.46924 10.8032 5.59619 10.8032C6.00635 10.7983 6.34082 10.7227 6.59961 10.5762C6.86328 10.4297 7.05859 10.2295 7.18555 9.97559C7.3125 9.7168 7.3833 9.4165 7.39795 9.07471C7.40283 8.95264 7.44922 8.85986 7.53711 8.79639C7.62988 8.72803 7.73242 8.69873 7.84473 8.7085C7.96191 8.71826 8.05713 8.77441 8.13037 8.87695C8.28662 9.10156 8.47461 9.27734 8.69434 9.4043C8.91895 9.53125 9.1875 9.59473 9.5 9.59473C9.8125 9.59473 10.0786 9.53125 10.2983 9.4043C10.5229 9.27734 10.7134 9.10156 10.8696 8.87695C10.9429 8.77441 11.0356 8.71826 11.1479 8.7085C11.2651 8.69873 11.3677 8.72803 11.4556 8.79639C11.5483 8.85986 11.5972 8.95264 11.6021 9.07471C11.6118 9.4165 11.6802 9.7168 11.8071 9.97559C11.939 10.2295 12.1343 10.4297 12.3931 10.5762C12.6567 10.7227 12.9937 10.7983 13.4038 10.8032C13.5308 10.8032 13.6382 10.8496 13.7261 10.9424C13.8188 11.0303 13.8652 11.1377 13.8652 11.2646C13.8652 11.3916 13.8188 11.499 13.7261 11.5869C13.6382 11.6748 13.5308 11.7188 13.4038 11.7188C12.7153 11.7188 12.1709 11.5771 11.7705 11.2939C11.3701 11.0059 11.0869 10.6323 10.9209 10.1733C10.7207 10.3101 10.5034 10.4126 10.269 10.481C10.0347 10.5493 9.77832 10.5835 9.5 10.5835C9.22168 10.5835 8.96533 10.5493 8.73096 10.481C8.49658 10.4126 8.2793 10.3101 8.0791 10.1733C7.9082 10.6323 7.62256 11.0059 7.22217 11.2939C6.82178 11.5771 6.27979 11.7188 5.59619 11.7188ZM9.5 19.3213C9.14844 19.3213 8.86523 19.27 8.65039 19.1675C8.44043 19.0649 8.33545 18.9258 8.33545 18.75C8.33545 18.5986 8.34521 18.3667 8.36475 18.0542C8.38916 17.7417 8.41113 17.3975 8.43066 17.0215C8.45508 16.6455 8.46729 16.2842 8.46729 15.9375C8.46729 15.6152 8.40869 15.2466 8.2915 14.8315C8.17432 14.4165 8.02783 13.9917 7.85205 13.5571C7.68115 13.1226 7.50293 12.7148 7.31738 12.334C7.13184 11.9482 6.96582 11.6211 6.81934 11.3525C6.67285 11.084 6.5752 10.9082 6.52637 10.8252L7.48584 10.1587C7.60791 10.3833 7.73975 10.6274 7.88135 10.8911C8.02783 11.1499 8.18408 11.4478 8.3501 11.7847C8.51611 12.1167 8.69922 12.5024 8.89941 12.9419V10.4077H10.1006V12.9346C10.2959 12.4951 10.4766 12.1094 10.6426 11.7773C10.8135 11.4453 10.9697 11.1499 11.1113 10.8911C11.2578 10.6274 11.3921 10.3833 11.5142 10.1587L12.481 10.8252C12.4321 10.9082 12.332 11.084 12.1807 11.3525C12.0342 11.6211 11.8682 11.9482 11.6826 12.334C11.4971 12.7148 11.3164 13.1226 11.1406 13.5571C10.9648 13.9917 10.8184 14.4165 10.7012 14.8315C10.5889 15.2466 10.5327 15.6152 10.5327 15.9375C10.5327 16.2842 10.5425 16.6455 10.562 17.0215C10.5864 17.3975 10.6084 17.7417 10.6279 18.0542C10.6523 18.3667 10.6646 18.5986 10.6646 18.75C10.6646 18.9258 10.5571 19.0649 10.3423 19.1675C10.1323 19.27 9.85156 19.3213 9.5 19.3213Z" fill="#00A19A"/>
</svg>
