<svg width="20" height="19" viewBox="0 0 20 19" fill="none" xmlns="http://www.w3.org/2000/svg">
<path d="M9.99268 10.2314C9.68018 10.2363 9.36035 10.1973 9.0332 10.1143C8.71094 10.0312 8.35449 9.90186 7.96387 9.72607L0.756836 6.43018C0.517578 6.32275 0.336914 6.17139 0.214844 5.97607C0.0976562 5.77588 0.0390625 5.56592 0.0390625 5.34619C0.0390625 5.13135 0.0976562 4.92627 0.214844 4.73096C0.336914 4.53076 0.517578 4.37695 0.756836 4.26953L7.96387 0.973633C8.35449 0.797852 8.71094 0.668457 9.0332 0.585449C9.36035 0.502441 9.68018 0.463379 9.99268 0.468262C10.3052 0.463379 10.6226 0.502441 10.9448 0.585449C11.272 0.668457 11.6309 0.797852 12.0215 0.973633L19.2358 4.26953C19.4751 4.37695 19.6533 4.53076 19.7705 4.73096C19.8926 4.92627 19.9536 5.13135 19.9536 5.34619C19.9536 5.56592 19.8926 5.77588 19.7705 5.97607C19.6533 6.17139 19.4751 6.32275 19.2358 6.43018L12.0215 9.72607C11.6309 9.90186 11.272 10.0312 10.9448 10.1143C10.6226 10.1973 10.3052 10.2363 9.99268 10.2314ZM9.99268 9.07422C10.2368 9.07422 10.4834 9.04248 10.7324 8.979C10.9863 8.91064 11.2695 8.80566 11.582 8.66406L18.3276 5.59521C18.4546 5.53662 18.5181 5.45361 18.5181 5.34619C18.5181 5.24365 18.4546 5.16309 18.3276 5.10449L11.582 2.03564C11.2695 1.89404 10.9863 1.7915 10.7324 1.72803C10.4834 1.65967 10.2368 1.62549 9.99268 1.62549C9.74854 1.62549 9.50195 1.65967 9.25293 1.72803C9.00391 1.7915 8.72314 1.89404 8.41064 2.03564L1.66504 5.10449C1.53809 5.16309 1.47461 5.24365 1.47461 5.34619C1.47461 5.45361 1.53809 5.53662 1.66504 5.59521L8.41064 8.66406C8.72314 8.80566 9.00391 8.91064 9.25293 8.979C9.50195 9.04248 9.74854 9.07422 9.99268 9.07422ZM2.89551 10.854V6.98682H4.07471V10.854C4.07471 11.2349 4.21143 11.6011 4.48486 11.9526C4.76318 12.3042 5.16113 12.6191 5.67871 12.8975C6.19629 13.1709 6.81885 13.3882 7.54639 13.5493C8.27881 13.7104 9.09424 13.791 9.99268 13.791C10.896 13.791 11.7114 13.7104 12.439 13.5493C13.1665 13.3882 13.7891 13.1709 14.3066 12.8975C14.8242 12.6191 15.2222 12.3042 15.5005 11.9526C15.7788 11.6011 15.918 11.2349 15.918 10.854V6.98682H17.0972V10.854C17.0972 11.4009 16.9287 11.9185 16.5918 12.4067C16.2598 12.895 15.7837 13.3247 15.1636 13.6958C14.5435 14.0718 13.7964 14.3647 12.9224 14.5747C12.0483 14.7896 11.0718 14.897 9.99268 14.897C8.91357 14.897 7.93701 14.7896 7.06299 14.5747C6.19385 14.3647 5.44678 14.0718 4.82178 13.6958C4.20166 13.3247 3.72559 12.895 3.39355 12.4067C3.06152 11.9185 2.89551 11.4009 2.89551 10.854ZM10.022 6.18115C9.76318 6.18115 9.51416 6.14453 9.2749 6.07129C9.03564 5.99805 8.84033 5.90039 8.68896 5.77832C8.5376 5.65137 8.46191 5.50732 8.46191 5.34619C8.46191 5.18994 8.5376 5.05078 8.68896 4.92871C8.84033 4.80664 9.03564 4.71143 9.2749 4.64307C9.51416 4.56982 9.76318 4.5332 10.022 4.5332C10.2856 4.5332 10.5347 4.56982 10.769 4.64307C11.0083 4.71143 11.2012 4.80664 11.3477 4.92871C11.499 5.05078 11.5747 5.18994 11.5747 5.34619C11.5747 5.50732 11.499 5.65137 11.3477 5.77832C11.2012 5.90039 11.0083 5.99805 10.769 6.07129C10.5347 6.14453 10.2856 6.18115 10.022 6.18115ZM5.56885 8.11475L4.6167 7.60938L9.50928 5.06055L9.91211 5.81494L5.56885 8.11475ZM4.6167 15.2998V7.646L5.56885 8.11475V15.2998H4.6167ZM4.03809 15.4463C4.03809 15.1582 4.12354 14.9263 4.29443 14.7505C4.47021 14.5796 4.70215 14.4941 4.99023 14.4941H5.18799C5.47607 14.4941 5.70557 14.5796 5.87646 14.7505C6.05225 14.9263 6.14014 15.1582 6.14014 15.4463V17.3726C6.14014 17.6606 6.05225 17.8901 5.87646 18.061C5.70557 18.2368 5.47607 18.3247 5.18799 18.3247H4.99023C4.70215 18.3247 4.47021 18.2368 4.29443 18.061C4.12354 17.8901 4.03809 17.6606 4.03809 17.3726V15.4463Z" fill="#00A19A"/>
</svg>
