<svg width="16" height="16" viewBox="0 0 16 16" fill="none" xmlns="http://www.w3.org/2000/svg">
<path d="M8 15.1826C6.96973 15.1826 6.00293 14.9873 5.09961 14.5967C4.19629 14.2109 3.40283 13.6763 2.71924 12.9927C2.03564 12.3091 1.49854 11.5156 1.10791 10.6123C0.722168 9.70898 0.529297 8.74219 0.529297 7.71191C0.529297 6.68164 0.722168 5.71484 1.10791 4.81152C1.49854 3.9082 2.03564 3.11475 2.71924 2.43115C3.40283 1.74268 4.19629 1.20557 5.09961 0.819824C6.00293 0.434082 6.96973 0.241211 8 0.241211C9.03027 0.241211 9.99707 0.434082 10.9004 0.819824C11.8037 1.20557 12.5972 1.74268 13.2808 2.43115C13.9644 3.11475 14.499 3.9082 14.8848 4.81152C15.2754 5.71484 15.4707 6.68164 15.4707 7.71191C15.4707 8.74219 15.2754 9.70898 14.8848 10.6123C14.499 11.5156 13.9644 12.3091 13.2808 12.9927C12.5972 13.6763 11.8037 14.2109 10.9004 14.5967C9.99707 14.9873 9.03027 15.1826 8 15.1826ZM8 13.9375C8.85938 13.9375 9.66504 13.7764 10.417 13.4541C11.1689 13.1318 11.8306 12.6851 12.4019 12.1138C12.9731 11.5425 13.4199 10.8809 13.7422 10.1289C14.0645 9.37695 14.2256 8.57129 14.2256 7.71191C14.2256 6.85254 14.0645 6.04688 13.7422 5.29492C13.4199 4.53809 12.9731 3.87646 12.4019 3.31006C11.8306 2.73877 11.1689 2.29199 10.417 1.96973C9.66504 1.64746 8.85938 1.48633 8 1.48633C7.14062 1.48633 6.33496 1.64746 5.58301 1.96973C4.83105 2.29199 4.16943 2.73877 3.59814 3.31006C3.02686 3.87646 2.58008 4.53809 2.25781 5.29492C1.93555 6.04688 1.77441 6.85254 1.77441 7.71191C1.77441 8.57129 1.93555 9.37695 2.25781 10.1289C2.58008 10.8809 3.02686 11.5425 3.59814 12.1138C4.16943 12.6851 4.83105 13.1318 5.58301 13.4541C6.33496 13.7764 7.14062 13.9375 8 13.9375ZM8 14.5601C7.07715 14.5601 6.21777 14.377 5.42188 14.0107C4.62598 13.6445 3.94482 13.1465 3.37842 12.5166V5.20703C3.37842 4.95801 3.44678 4.75781 3.5835 4.60645C3.72021 4.45508 3.9082 4.37939 4.14746 4.37939H9.06201C9.30615 4.37939 9.49414 4.45508 9.62598 4.60645C9.7627 4.75781 9.83105 4.95801 9.83105 5.20703V14.2891C9.54297 14.3818 9.24512 14.4502 8.9375 14.4941C8.62988 14.5381 8.31738 14.5601 8 14.5601ZM5.09961 12.6045H5.89795C6.01514 12.6045 6.07373 12.5459 6.07373 12.4287V11.6523C6.07373 11.5352 6.01514 11.4766 5.89795 11.4766H5.09961C4.9873 11.4766 4.93115 11.5352 4.93115 11.6523V12.4287C4.93115 12.5459 4.9873 12.6045 5.09961 12.6045ZM7.29688 12.6045H8.09521C8.2124 12.6045 8.271 12.5459 8.271 12.4287V11.6523C8.271 11.5352 8.2124 11.4766 8.09521 11.4766H7.29688C7.18457 11.4766 7.12842 11.5352 7.12842 11.6523V12.4287C7.12842 12.5459 7.18457 12.6045 7.29688 12.6045ZM5.09961 10.6709H5.89795C6.01514 10.6709 6.07373 10.6123 6.07373 10.4951V9.71875C6.07373 9.60156 6.01514 9.54297 5.89795 9.54297H5.09961C4.9873 9.54297 4.93115 9.60156 4.93115 9.71875V10.4951C4.93115 10.6123 4.9873 10.6709 5.09961 10.6709ZM7.29688 10.6709H8.09521C8.2124 10.6709 8.271 10.6123 8.271 10.4951V9.71875C8.271 9.60156 8.2124 9.54297 8.09521 9.54297H7.29688C7.18457 9.54297 7.12842 9.60156 7.12842 9.71875V10.4951C7.12842 10.5439 7.14307 10.5854 7.17236 10.6196C7.20654 10.6538 7.24805 10.6709 7.29688 10.6709ZM5.09961 8.7373H5.89795C6.01514 8.7373 6.07373 8.67871 6.07373 8.56152V7.79248C6.07373 7.67041 6.01514 7.60938 5.89795 7.60938H5.09961C4.9873 7.60938 4.93115 7.67041 4.93115 7.79248V8.56152C4.93115 8.67871 4.9873 8.7373 5.09961 8.7373ZM7.29688 8.7373H8.09521C8.2124 8.7373 8.271 8.67871 8.271 8.56152V7.79248C8.271 7.67041 8.2124 7.60938 8.09521 7.60938H7.29688C7.24805 7.60938 7.20654 7.62646 7.17236 7.66064C7.14307 7.69482 7.12842 7.73877 7.12842 7.79248V8.56152C7.12842 8.67871 7.18457 8.7373 7.29688 8.7373ZM5.09961 6.82568H5.89795C6.01514 6.82568 6.07373 6.76709 6.07373 6.6499V5.87354C6.07373 5.75635 6.01514 5.69775 5.89795 5.69775H5.09961C4.9873 5.69775 4.93115 5.75635 4.93115 5.87354V6.6499C4.93115 6.76709 4.9873 6.82568 5.09961 6.82568ZM7.29688 6.82568H8.09521C8.2124 6.82568 8.271 6.76709 8.271 6.6499V5.87354C8.271 5.75635 8.2124 5.69775 8.09521 5.69775H7.29688C7.18457 5.69775 7.12842 5.75635 7.12842 5.87354V6.6499C7.12842 6.76709 7.18457 6.82568 7.29688 6.82568ZM10.4023 14.0913V6.24707H12.5264C12.7656 6.24707 12.9536 6.32275 13.0903 6.47412C13.2271 6.62061 13.2954 6.8208 13.2954 7.07471V11.6084C12.9585 12.1602 12.5435 12.6484 12.0503 13.0732C11.5571 13.498 11.0078 13.8374 10.4023 14.0913ZM11.501 11.7549H12.1895C12.2773 11.7549 12.3213 11.7109 12.3213 11.623V10.9565C12.3213 10.8589 12.2773 10.8101 12.1895 10.8101H11.501C11.4033 10.8101 11.3545 10.8589 11.3545 10.9565V11.623C11.3545 11.7109 11.4033 11.7549 11.501 11.7549ZM11.501 10.085H12.1895C12.2773 10.085 12.3213 10.0361 12.3213 9.93848V9.28662C12.3213 9.19385 12.2773 9.14746 12.1895 9.14746H11.501C11.4033 9.14746 11.3545 9.19385 11.3545 9.28662V9.93848C11.3545 10.0361 11.4033 10.085 11.501 10.085ZM11.501 8.41504H12.1895C12.2773 8.41504 12.3213 8.36621 12.3213 8.26855V7.60938C12.3213 7.5166 12.2773 7.47021 12.1895 7.47021H11.501C11.4033 7.47021 11.3545 7.5166 11.3545 7.60938V8.26855C11.3545 8.36621 11.4033 8.41504 11.501 8.41504Z" fill="#00A19A"/>
</svg>
