<svg width="18" height="17" viewBox="0 0 18 17" fill="none" xmlns="http://www.w3.org/2000/svg">
<path d="M0.628418 16.4829C0.467285 16.4829 0.328125 16.4243 0.210938 16.3071C0.0986328 16.1948 0.0424805 16.0581 0.0424805 15.897V2.43506C0.0424805 1.98584 0.181641 1.62451 0.459961 1.35107C0.743164 1.07764 1.11426 0.940918 1.57324 0.940918H16.4121C16.876 0.940918 17.2471 1.07764 17.5254 1.35107C17.8086 1.62451 17.9502 1.98584 17.9502 2.43506V15.897C17.9502 16.0581 17.8916 16.1948 17.7744 16.3071C17.6621 16.4243 17.5229 16.4829 17.3569 16.4829C17.1958 16.4829 17.0566 16.4243 16.9395 16.3071C16.8271 16.1948 16.771 16.0581 16.771 15.897V2.5083C16.771 2.24951 16.6465 2.12012 16.3975 2.12012H1.59521C1.34619 2.12012 1.22168 2.24951 1.22168 2.5083V15.897C1.22168 16.0581 1.16309 16.1948 1.0459 16.3071C0.933594 16.4243 0.794434 16.4829 0.628418 16.4829ZM2.32764 16.2266C2.16162 16.2266 2.07861 16.1436 2.07861 15.9775V3.21875C2.07861 3.05273 2.16162 2.96973 2.32764 2.96973H15.665C15.8311 2.96973 15.9141 3.05273 15.9141 3.21875V15.9775C15.9141 16.1436 15.8311 16.2266 15.665 16.2266H2.32764ZM7.56445 14.9888H10.4282C10.5308 14.9888 10.6138 14.9546 10.6772 14.8862C10.7456 14.8228 10.7798 14.7397 10.7798 14.6372C10.7798 14.5298 10.7456 14.4419 10.6772 14.3735C10.6138 14.3101 10.5308 14.2783 10.4282 14.2783H7.56445C7.45703 14.2783 7.37158 14.3101 7.30811 14.3735C7.24463 14.4419 7.21289 14.5298 7.21289 14.6372C7.21289 14.7397 7.24463 14.8228 7.30811 14.8862C7.37158 14.9546 7.45703 14.9888 7.56445 14.9888ZM3.33105 7.00537H6.16553C6.33643 7.00537 6.42188 6.91992 6.42188 6.74902V4.15625C6.42188 3.98047 6.33643 3.89258 6.16553 3.89258H3.33105C3.16016 3.89258 3.07471 3.98047 3.07471 4.15625V6.74902C3.07471 6.91992 3.16016 7.00537 3.33105 7.00537ZM7.59375 7.00537H10.4209C10.5967 7.00537 10.6846 6.91992 10.6846 6.74902V4.15625C10.6846 3.98047 10.5967 3.89258 10.4209 3.89258H7.59375C7.42285 3.89258 7.3374 3.98047 7.3374 4.15625V6.74902C7.3374 6.91992 7.42285 7.00537 7.59375 7.00537ZM11.8491 7.00537H14.7202C14.7642 7.00537 14.8081 6.98096 14.8521 6.93213C14.896 6.8833 14.918 6.82227 14.918 6.74902V4.15625C14.918 3.98047 14.8325 3.89258 14.6616 3.89258H11.8491C11.6733 3.89258 11.5854 3.98047 11.5854 4.15625V6.74902C11.5854 6.91992 11.6733 7.00537 11.8491 7.00537Z" fill="#00A19A"/>
</svg>
