<svg width="15" height="15" viewBox="0 0 15 15" fill="none" xmlns="http://www.w3.org/2000/svg">
<path d="M6.97998 12.5752C6.82861 12.5752 6.69678 12.5215 6.58447 12.4141C6.47705 12.3066 6.42334 12.1772 6.42334 12.0259V8.63477C5.5542 8.57617 4.80957 8.40039 4.18945 8.10742C3.56934 7.80957 3.05176 7.43848 2.63672 6.99414C2.22656 6.5498 1.89697 6.07129 1.64795 5.55859C1.40381 5.04102 1.22314 4.53076 1.10596 4.02783C0.98877 3.5249 0.910645 3.0708 0.871582 2.66553C0.861816 2.51416 0.888672 2.4043 0.952148 2.33594C1.02051 2.2627 1.12549 2.22607 1.26709 2.22607C1.86279 2.22607 2.44385 2.29932 3.01025 2.4458C3.57666 2.5874 4.10889 2.80469 4.60693 3.09766C5.10986 3.39062 5.55908 3.75684 5.95459 4.19629C6.35498 4.63574 6.68457 5.14844 6.94336 5.73438C7.2998 4.63574 7.81738 3.69336 8.49609 2.90723C9.17969 2.12109 9.99512 1.52051 10.9424 1.10547C11.8896 0.685547 12.9468 0.48291 14.1138 0.497559C14.2993 0.497559 14.4409 0.548828 14.5386 0.651367C14.6362 0.753906 14.6851 0.893066 14.6851 1.06885C14.6948 2.17236 14.5337 3.17578 14.2017 4.0791C13.8696 4.97754 13.3887 5.75879 12.7588 6.42285C12.1338 7.08203 11.3794 7.60205 10.4956 7.98291C9.6167 8.35889 8.62793 8.57617 7.5293 8.63477V12.0259C7.5293 12.1772 7.47314 12.3066 7.36084 12.4141C7.25342 12.5215 7.12646 12.5752 6.97998 12.5752ZM6.38672 7.51416C6.28906 7.00635 6.14014 6.54736 5.93994 6.13721C5.73975 5.72705 5.49805 5.36328 5.21484 5.0459C4.93652 4.72852 4.62402 4.45752 4.27734 4.23291C3.93555 4.00342 3.57422 3.82031 3.19336 3.68359C2.8125 3.54687 2.42188 3.4541 2.02148 3.40527C2.08496 3.83008 2.19482 4.23535 2.35107 4.62109C2.50732 5.00684 2.70752 5.36572 2.95166 5.69775C3.20068 6.02979 3.49365 6.3252 3.83057 6.58398C4.16748 6.83789 4.54834 7.04541 4.97314 7.20654C5.40283 7.36768 5.87402 7.47021 6.38672 7.51416ZM7.66113 7.51416C8.79883 7.42139 9.7998 7.11621 10.6641 6.59863C11.5332 6.08105 12.2192 5.39746 12.7222 4.54785C13.2251 3.69824 13.4985 2.729 13.5425 1.64014C12.522 1.68896 11.604 1.9624 10.7886 2.46045C9.97803 2.95361 9.30176 3.63232 8.75977 4.49658C8.22266 5.35596 7.85645 6.36182 7.66113 7.51416ZM0.944824 14.9629C0.773926 14.9629 0.625 14.8994 0.498047 14.7725C0.375977 14.6504 0.314941 14.5039 0.314941 14.333C0.314941 14.1572 0.375977 14.0059 0.498047 13.8789C0.625 13.7568 0.773926 13.6958 0.944824 13.6958C1.11572 13.6958 1.26221 13.7568 1.38428 13.8789C1.51123 14.0059 1.57471 14.1572 1.57471 14.333C1.57471 14.5039 1.51123 14.6504 1.38428 14.7725C1.26221 14.8994 1.11572 14.9629 0.944824 14.9629ZM2.76855 13.6665C2.59766 13.6665 2.44873 13.603 2.32178 13.4761C2.19971 13.354 2.13867 13.2051 2.13867 13.0293C2.13867 12.8584 2.19971 12.7119 2.32178 12.5898C2.44873 12.4629 2.59766 12.3994 2.76855 12.3994C2.93945 12.3994 3.08594 12.4629 3.20801 12.5898C3.33496 12.7119 3.39844 12.8584 3.39844 13.0293C3.39844 13.2051 3.33496 13.354 3.20801 13.4761C3.08594 13.603 2.93945 13.6665 2.76855 13.6665ZM4.84863 12.9121C4.67773 12.9121 4.52881 12.8511 4.40186 12.729C4.27979 12.6069 4.21875 12.458 4.21875 12.2822C4.21875 12.1113 4.27979 11.9648 4.40186 11.8428C4.52881 11.7158 4.67773 11.6523 4.84863 11.6523C5.01953 11.6523 5.16602 11.7158 5.28809 11.8428C5.41504 11.9648 5.47852 12.1113 5.47852 12.2822C5.47852 12.458 5.41504 12.6069 5.28809 12.729C5.16602 12.8511 5.01953 12.9121 4.84863 12.9121ZM9.104 12.9121C8.93311 12.9121 8.78418 12.8511 8.65723 12.729C8.53516 12.6069 8.47412 12.458 8.47412 12.2822C8.47412 12.1113 8.53516 11.9648 8.65723 11.8428C8.78418 11.7158 8.93311 11.6523 9.104 11.6523C9.2749 11.6523 9.42139 11.7158 9.54346 11.8428C9.67041 11.9648 9.73389 12.1113 9.73389 12.2822C9.73389 12.458 9.67041 12.6069 9.54346 12.729C9.42139 12.8511 9.2749 12.9121 9.104 12.9121ZM11.1841 13.6665C11.0132 13.6665 10.8643 13.603 10.7373 13.4761C10.6152 13.354 10.5542 13.2051 10.5542 13.0293C10.5542 12.8584 10.6152 12.7119 10.7373 12.5898C10.8643 12.4629 11.0132 12.3994 11.1841 12.3994C11.3599 12.3994 11.5088 12.4629 11.6309 12.5898C11.7529 12.7119 11.814 12.8584 11.814 13.0293C11.814 13.2051 11.7529 13.354 11.6309 13.4761C11.5088 13.603 11.3599 13.6665 11.1841 13.6665ZM13.0078 14.9629C12.8369 14.9629 12.688 14.8994 12.561 14.7725C12.439 14.6504 12.3779 14.5039 12.3779 14.333C12.3779 14.1572 12.439 14.0059 12.561 13.8789C12.688 13.7568 12.8369 13.6958 13.0078 13.6958C13.1836 13.6958 13.3325 13.7568 13.4546 13.8789C13.5767 14.0059 13.6377 14.1572 13.6377 14.333C13.6377 14.5039 13.5767 14.6504 13.4546 14.7725C13.3325 14.8994 13.1836 14.9629 13.0078 14.9629Z" fill="#00A19A"/>
</svg>
