<svg width="11" height="17" viewBox="0 0 11 17" fill="none" xmlns="http://www.w3.org/2000/svg">
<path d="M3.80811 16.5342C3.69092 16.6904 3.55908 16.7856 3.4126 16.8198C3.271 16.854 3.1416 16.8394 3.02441 16.7759C2.90723 16.7173 2.82422 16.6196 2.77539 16.4829C2.73145 16.3462 2.74609 16.1826 2.81934 15.9922L5.00195 10.3013H0.86377C0.70752 10.3013 0.580566 10.2549 0.48291 10.1621C0.385254 10.0645 0.336426 9.94482 0.336426 9.80322C0.336426 9.65186 0.399902 9.49561 0.526855 9.33447L7.18457 0.779785C7.30176 0.623535 7.43115 0.52832 7.57275 0.494141C7.71924 0.455078 7.85107 0.467285 7.96826 0.530762C8.08545 0.589355 8.16602 0.689453 8.20996 0.831055C8.25879 0.967773 8.24658 1.12891 8.17334 1.31445L5.99072 7.0127H10.1289C10.2852 7.0127 10.4121 7.05908 10.5098 7.15186C10.6074 7.24463 10.6562 7.36182 10.6562 7.50342C10.6562 7.65479 10.5928 7.81104 10.4658 7.97217L3.80811 16.5342ZM4.24023 14.564L4.03516 14.4541L8.81787 8.104H4.29883L6.74512 2.75L6.9502 2.85986L2.16748 9.20996H6.69385L4.24023 14.564Z" fill="#00A19A"/>
</svg>
