<svg width="18" height="16" viewBox="0 0 18 16" fill="none" xmlns="http://www.w3.org/2000/svg">
<path d="M6.87598 14.6553V9.92383C6.87598 9.75781 6.92725 9.62354 7.02979 9.521C7.13232 9.41846 7.26904 9.36719 7.43994 9.36719H10.5674C10.7383 9.36719 10.8726 9.41846 10.9702 9.521C11.0728 9.62354 11.124 9.75781 11.124 9.92383V14.6553H6.87598ZM0.884766 7.8291C0.689453 7.8291 0.535645 7.77051 0.42334 7.65332C0.311035 7.53125 0.254883 7.39453 0.254883 7.24316C0.254883 7.05273 0.333008 6.89404 0.489258 6.76709L8.12109 0.358398C8.39453 0.124023 8.6875 0.00683594 9 0.00683594C9.3125 0.00683594 9.60547 0.124023 9.87891 0.358398L17.5107 6.76709C17.667 6.89404 17.7451 7.05273 17.7451 7.24316C17.7451 7.39453 17.689 7.53125 17.5767 7.65332C17.4692 7.77051 17.3154 7.8291 17.1152 7.8291C17.0127 7.8291 16.9175 7.80469 16.8296 7.75586C16.7466 7.70703 16.6685 7.65332 16.5952 7.59473L9.25635 1.43506C9.17822 1.3667 9.09277 1.33252 9 1.33252C8.90723 1.33252 8.82178 1.3667 8.74365 1.43506L1.41211 7.59473C1.33398 7.65332 1.25098 7.70703 1.16309 7.75586C1.08008 7.80469 0.987305 7.8291 0.884766 7.8291ZM13.7681 3.93994V2.18945C13.7681 2.02832 13.8169 1.90137 13.9146 1.80859C14.0122 1.71094 14.1392 1.66211 14.2954 1.66211H15.0791C15.2402 1.66211 15.3672 1.71094 15.46 1.80859C15.5576 1.90137 15.6064 2.02832 15.6064 2.18945V5.49268L13.7681 3.93994ZM4.04883 15.4097C3.52637 15.4097 3.11865 15.2681 2.82568 14.9849C2.5376 14.7065 2.39355 14.3086 2.39355 13.791V5.67578L3.57275 4.88477V13.498C3.57275 13.7373 3.63379 13.918 3.75586 14.04C3.88281 14.167 4.06348 14.2305 4.29785 14.2305H13.7095C13.9438 14.2305 14.1221 14.167 14.2441 14.04C14.3662 13.918 14.4272 13.7373 14.4272 13.498V4.87744L15.6064 5.67578V13.791C15.6064 14.3037 15.4624 14.7017 15.1743 14.9849C14.8862 15.2681 14.481 15.4097 13.9585 15.4097H4.04883Z" fill="#00A19A"/>
</svg>
