<svg width="18" height="6" viewBox="0 0 18 6" fill="none" xmlns="http://www.w3.org/2000/svg">
<path d="M0.0571289 3.81738V1.29053C0.0571289 1.12451 0.115723 0.98291 0.23291 0.865723C0.35498 0.743652 0.499023 0.682617 0.665039 0.682617C0.835938 0.682617 0.97998 0.743652 1.09717 0.865723C1.21924 0.98291 1.28027 1.12451 1.28027 1.29053V3.78809C1.28027 3.9248 1.32178 4.03711 1.40479 4.125C1.49268 4.20801 1.60498 4.24951 1.7417 4.24951H16.2583C16.3901 4.24951 16.5 4.20801 16.5879 4.125C16.6758 4.03711 16.7197 3.9248 16.7197 3.78809V1.29053C16.7197 1.12451 16.7783 0.98291 16.8955 0.865723C17.0176 0.743652 17.1641 0.682617 17.335 0.682617C17.501 0.682617 17.6426 0.743652 17.7598 0.865723C17.8818 0.98291 17.9429 1.12451 17.9429 1.29053V3.81738C17.9429 4.30078 17.8086 4.68408 17.54 4.96729C17.2764 5.24561 16.8882 5.38477 16.3755 5.38477H1.62451C1.11182 5.38477 0.721191 5.24561 0.452637 4.96729C0.188965 4.68408 0.0571289 4.30078 0.0571289 3.81738Z" fill="#00A19A"/>
</svg>
