<svg width="18" height="13" viewBox="0 0 18 13" fill="none" xmlns="http://www.w3.org/2000/svg">
<path d="M9 12.8057C8.91699 12.8057 8.83398 12.7812 8.75098 12.7324C8.66797 12.6836 8.55566 12.5908 8.41406 12.4541L6.63428 10.7402C6.57568 10.6865 6.53906 10.6279 6.52441 10.5645C6.51465 10.501 6.52686 10.4399 6.56104 10.3813C6.80029 10.064 7.13477 9.78564 7.56445 9.54639C7.99414 9.30713 8.47266 9.1875 9 9.1875C9.5127 9.1875 9.98145 9.30225 10.4062 9.53174C10.8359 9.76123 11.1704 10.0298 11.4097 10.3374C11.4634 10.4009 11.4829 10.4717 11.4683 10.5498C11.4585 10.623 11.4268 10.6865 11.373 10.7402L9.58594 12.4541C9.44434 12.5957 9.33203 12.6885 9.24902 12.7324C9.16602 12.7812 9.08301 12.8057 9 12.8057ZM4.71533 8.82129L3.58008 7.68604C3.5166 7.62256 3.48242 7.5542 3.47754 7.48096C3.47754 7.40771 3.50439 7.33936 3.55811 7.27588C3.9292 6.82178 4.39307 6.4165 4.94971 6.06006C5.50635 5.70361 6.12891 5.42285 6.81738 5.21777C7.51074 5.00781 8.23828 4.90283 9 4.90283C9.76172 4.90283 10.4868 5.00781 11.1753 5.21777C11.8687 5.42285 12.4937 5.70361 13.0503 6.06006C13.6118 6.4165 14.0757 6.82178 14.4419 7.27588C14.4956 7.33936 14.52 7.41016 14.5151 7.48828C14.5103 7.56152 14.4785 7.62744 14.4199 7.68604L13.2847 8.81396C13.2065 8.88721 13.1235 8.92383 13.0356 8.92383C12.9526 8.92383 12.877 8.88721 12.8086 8.81396C12.3594 8.32568 11.7979 7.92041 11.124 7.59814C10.4502 7.271 9.74219 7.10986 9 7.11475C8.26758 7.10986 7.56445 7.26611 6.89062 7.5835C6.2168 7.90088 5.66016 8.30371 5.2207 8.79199C5.14746 8.87012 5.06445 8.91406 4.97168 8.92383C4.87891 8.92871 4.79346 8.89453 4.71533 8.82129ZM1.67578 5.75977L0.665039 4.73438C0.606445 4.66602 0.574707 4.59521 0.569824 4.52197C0.569824 4.44873 0.594238 4.38037 0.643066 4.31689C1.21436 3.60889 1.93701 2.97656 2.81104 2.41992C3.68506 1.86328 4.65186 1.42627 5.71143 1.10889C6.771 0.791504 7.86719 0.632812 9 0.632812C10.1328 0.632812 11.229 0.793945 12.2886 1.11621C13.3481 1.43359 14.3149 1.87061 15.189 2.42725C16.063 2.979 16.7856 3.60889 17.3569 4.31689C17.4106 4.38037 17.4351 4.44873 17.4302 4.52197C17.4302 4.59521 17.3984 4.66602 17.335 4.73438L16.3242 5.74512C16.251 5.81836 16.1704 5.85742 16.0825 5.8623C15.9946 5.8623 15.9165 5.82812 15.8481 5.75977C14.9546 4.80273 13.9243 4.0752 12.7573 3.57715C11.5903 3.0791 10.3379 2.83008 9 2.83008C7.67188 2.83008 6.42432 3.0791 5.25732 3.57715C4.09521 4.07031 3.06494 4.79541 2.1665 5.75244C2.09814 5.82568 2.01758 5.86475 1.9248 5.86963C1.83203 5.86963 1.74902 5.83301 1.67578 5.75977Z" fill="#00A19A"/>
</svg>
