<svg width="22" height="13" viewBox="0 0 22 13" fill="none" xmlns="http://www.w3.org/2000/svg">
<path d="M0.951172 10.2861V3.14502C0.951172 2.39795 1.13916 1.83887 1.51514 1.46777C1.896 1.0918 2.46484 0.903809 3.22168 0.903809H11.2344C11.7959 0.903809 12.3037 0.945313 12.7578 1.02832C13.2119 1.10645 13.6416 1.23828 14.0469 1.42383C14.4521 1.60937 14.8599 1.8584 15.27 2.1709C15.6802 2.4834 16.1221 2.87402 16.5957 3.34277L19.5913 6.31641C20.0845 6.7998 20.4482 7.3125 20.6826 7.85449C20.9219 8.3916 21.0415 8.9165 21.0415 9.4292C21.0415 9.98584 20.9023 10.501 20.624 10.9746C20.3457 11.4434 19.9307 11.8193 19.3789 12.1025C18.832 12.3857 18.1533 12.5273 17.3428 12.5273H3.22168C2.46484 12.5273 1.896 12.3418 1.51514 11.9707C1.13916 11.5947 0.951172 11.0332 0.951172 10.2861ZM8.7002 6.80713C8.7002 7.01221 8.76123 7.17578 8.8833 7.29785C9.00537 7.41992 9.17627 7.48096 9.396 7.48096H16.8887C17.0547 7.48096 17.189 7.42236 17.2915 7.30518C17.394 7.18799 17.4404 7.04395 17.4307 6.87305C17.4258 6.70215 17.3477 6.54102 17.1963 6.38965L15.5117 4.7124C15.2529 4.45361 14.9893 4.24121 14.7207 4.0752C14.4521 3.90918 14.1616 3.77979 13.8491 3.68701C13.5366 3.58936 13.1802 3.521 12.7798 3.48193C12.3843 3.43799 11.9253 3.41602 11.4028 3.41602H9.396C8.93213 3.41602 8.7002 3.64795 8.7002 4.11182V6.80713Z" fill="#00A19A"/>
</svg>
