<svg width="30" height="14" viewBox="0 0 30 14" fill="none" xmlns="http://www.w3.org/2000/svg">
<path d="M6.67969 8.00098C6.53809 8.1084 6.39893 8.16455 6.26221 8.16943C6.13037 8.17432 6.01318 8.14502 5.91064 8.08154C5.80811 8.01318 5.72998 7.92529 5.67627 7.81787C5.62744 7.71045 5.61279 7.59814 5.63232 7.48096C5.65674 7.36377 5.72754 7.26123 5.84473 7.17334L14.0698 0.706055C14.3774 0.461914 14.6851 0.339844 14.9927 0.339844C15.3052 0.339844 15.6152 0.461914 15.9229 0.706055L24.1479 7.17334C24.2651 7.26123 24.3335 7.36377 24.353 7.48096C24.3774 7.59814 24.3628 7.71045 24.3091 7.81787C24.2603 7.92529 24.1821 8.01318 24.0747 8.08154C23.9722 8.14502 23.855 8.17432 23.7231 8.16943C23.5913 8.16455 23.4546 8.1084 23.313 8.00098L15.3296 1.73877C15.2222 1.65576 15.1099 1.61426 14.9927 1.61426C14.8755 1.61426 14.7681 1.65576 14.6704 1.73877L6.67969 8.00098ZM8.63525 13.0913C8.12744 13.0913 7.73193 12.9546 7.44873 12.6812C7.17041 12.4077 7.03125 12.022 7.03125 11.5239V6.66064L8.17383 6.60205V11.2456C8.17383 11.4751 8.23242 11.6509 8.34961 11.7729C8.4668 11.8901 8.6377 11.9487 8.8623 11.9487H21.1304C21.355 11.9487 21.5259 11.8901 21.6431 11.7729C21.7603 11.6509 21.8188 11.4751 21.8188 11.2456V6.60205L22.9614 6.66064V11.5239C22.9614 12.022 22.8198 12.4077 22.5366 12.6812C22.2583 12.9546 21.8652 13.0913 21.3574 13.0913H8.63525ZM13.0884 12.293V8.68945C13.0884 8.53809 13.1348 8.41602 13.2275 8.32324C13.3252 8.23047 13.4473 8.18408 13.5938 8.18408H16.4062C16.5527 8.18408 16.6724 8.23047 16.7651 8.32324C16.8579 8.41602 16.9043 8.53809 16.9043 8.68945V12.293H13.0884ZM0.622559 8.16943C0.466309 8.16943 0.339355 8.13281 0.241699 8.05957C0.144043 7.98145 0.078125 7.88867 0.0439453 7.78125C0.00976562 7.66895 0.00732422 7.55908 0.0366211 7.45166C0.065918 7.33936 0.134277 7.24658 0.241699 7.17334L4.95117 3.88477C5.06836 3.80664 5.19531 3.74805 5.33203 3.70898C5.46875 3.66504 5.61523 3.64307 5.77148 3.64307H11.7188L10.4883 4.64648H5.77148C5.71289 4.64648 5.66895 4.64893 5.63965 4.65381C5.61035 4.65869 5.57617 4.67578 5.53711 4.70508L1.96289 7.16602H7.39014V8.16943H0.622559ZM3.0249 13.0913C2.51709 13.0913 2.12158 12.9546 1.83838 12.6812C1.56006 12.4077 1.4209 12.022 1.4209 11.5239V7.62744H2.5708V11.2456C2.5708 11.4751 2.62939 11.6509 2.74658 11.7729C2.86377 11.8901 3.03467 11.9487 3.25928 11.9487H9.104V13.0913H3.0249ZM22.6025 8.16943V7.16602H28.0371L24.4556 4.70508C24.4165 4.67578 24.3823 4.65869 24.353 4.65381C24.3237 4.64893 24.2798 4.64648 24.2212 4.64648H19.5117L18.2739 3.64307H24.2212C24.3774 3.64307 24.5239 3.66504 24.6606 3.70898C24.7974 3.74805 24.9243 3.80664 25.0415 3.88477L29.7583 7.17334C29.8608 7.24658 29.9268 7.33936 29.9561 7.45166C29.9902 7.55908 29.9878 7.66895 29.9487 7.78125C29.9146 7.88867 29.8486 7.98145 29.751 8.05957C29.6533 8.13281 29.5264 8.16943 29.3701 8.16943H22.6025ZM20.8887 13.0913V11.9487H26.7334C26.958 11.9487 27.1289 11.8901 27.2461 11.7729C27.3682 11.6509 27.4292 11.4751 27.4292 11.2456V7.62744H28.5718V11.5239C28.5718 12.022 28.4302 12.4077 28.147 12.6812C27.8687 12.9546 27.478 13.0913 26.9751 13.0913H20.8887Z" fill="#00A19A"/>
</svg>
