<svg width="16" height="16" viewBox="0 0 16 16" fill="none" xmlns="http://www.w3.org/2000/svg">
<path d="M8 15.1826C6.96973 15.1826 6.00293 14.9873 5.09961 14.5967C4.19629 14.2109 3.40283 13.6763 2.71924 12.9927C2.03564 12.3091 1.49854 11.5156 1.10791 10.6123C0.722168 9.70898 0.529297 8.74219 0.529297 7.71191C0.529297 6.68164 0.722168 5.71484 1.10791 4.81152C1.49854 3.9082 2.03564 3.11475 2.71924 2.43115C3.40283 1.74268 4.19629 1.20557 5.09961 0.819824C6.00293 0.434082 6.96973 0.241211 8 0.241211C9.03027 0.241211 9.99707 0.434082 10.9004 0.819824C11.8037 1.20557 12.5972 1.74268 13.2808 2.43115C13.9644 3.11475 14.499 3.9082 14.8848 4.81152C15.2754 5.71484 15.4707 6.68164 15.4707 7.71191C15.4707 8.74219 15.2754 9.70898 14.8848 10.6123C14.499 11.5156 13.9644 12.3091 13.2808 12.9927C12.5972 13.6763 11.8037 14.2109 10.9004 14.5967C9.99707 14.9873 9.03027 15.1826 8 15.1826ZM8 13.9375C8.85938 13.9375 9.66504 13.7764 10.417 13.4541C11.1689 13.1318 11.8306 12.6851 12.4019 12.1138C12.9731 11.5425 13.4199 10.8809 13.7422 10.1289C14.0645 9.37695 14.2256 8.57129 14.2256 7.71191C14.2256 6.85254 14.0645 6.04688 13.7422 5.29492C13.4199 4.53809 12.9731 3.87646 12.4019 3.31006C11.8306 2.73877 11.1689 2.29199 10.417 1.96973C9.66504 1.64746 8.85938 1.48633 8 1.48633C7.14062 1.48633 6.33496 1.64746 5.58301 1.96973C4.83105 2.29199 4.16943 2.73877 3.59814 3.31006C3.02686 3.87646 2.58008 4.53809 2.25781 5.29492C1.93555 6.04688 1.77441 6.85254 1.77441 7.71191C1.77441 8.57129 1.93555 9.37695 2.25781 10.1289C2.58008 10.8809 3.02686 11.5425 3.59814 12.1138C4.16943 12.6851 4.83105 13.1318 5.58301 13.4541C6.33496 13.7764 7.14062 13.9375 8 13.9375ZM4.59424 10.5537V7.49951L7.76562 4.84082C7.92676 4.70898 8.08057 4.70898 8.22705 4.84082L11.4058 7.49951V10.5537C11.4058 10.8223 11.3276 11.0322 11.1714 11.1836C11.02 11.3301 10.8076 11.4033 10.5342 11.4033H5.46582C5.19238 11.4033 4.97754 11.3301 4.82129 11.1836C4.66992 11.0322 4.59424 10.8223 4.59424 10.5537ZM8.99609 10.6709V8.3125C8.99609 8.11719 8.896 8.01953 8.6958 8.01953H7.3042C7.104 8.01953 7.00391 8.11719 7.00391 8.3125V10.6709H8.99609ZM3.37109 7.11133C3.37109 7.00879 3.4126 6.91846 3.49561 6.84033L7.47998 3.50049C7.64111 3.36865 7.81445 3.30273 8 3.30273C8.19043 3.30273 8.36621 3.36865 8.52734 3.50049L12.4971 6.84033C12.5801 6.91357 12.6216 7.00879 12.6216 7.12598C12.6216 7.21875 12.5874 7.29443 12.519 7.35303C12.4507 7.41162 12.3677 7.44092 12.27 7.44092C12.2163 7.44092 12.165 7.42871 12.1162 7.4043C12.0723 7.375 12.0283 7.34082 11.9844 7.30176L8.17578 4.1084C8.11719 4.06445 8.05859 4.04248 8 4.04248C7.94629 4.0376 7.8877 4.05957 7.82422 4.1084L4.0083 7.30176C3.96924 7.34082 3.92529 7.375 3.87646 7.4043C3.83252 7.42871 3.78369 7.44092 3.72998 7.44092C3.61768 7.44092 3.52979 7.40674 3.46631 7.33838C3.40283 7.27002 3.37109 7.19434 3.37109 7.11133ZM10.4316 5.36084V4.40137C10.4316 4.21582 10.5244 4.12305 10.71 4.12305H11.1274C11.313 4.12305 11.4058 4.21582 11.4058 4.40137V6.18115L10.4316 5.36084Z" fill="#00A19A"/>
</svg>
