<svg width="16" height="18" viewBox="0 0 16 18" fill="none" xmlns="http://www.w3.org/2000/svg">
<path d="M9.58203 17.2812L10.2192 16.1606H13.6104C13.7471 16.1606 13.8472 16.1289 13.9106 16.0654C13.979 16.002 14.0132 15.9019 14.0132 15.7651V5.17432C14.0132 5.0376 13.979 4.9375 13.9106 4.87402C13.8472 4.80566 13.7471 4.77148 13.6104 4.77148H10.8345V3.6582H13.9766C14.3281 3.6582 14.6064 3.77295 14.8115 4.00244C15.0215 4.23193 15.1265 4.53955 15.1265 4.92529V16.0215C15.1265 16.4023 15.0215 16.7075 14.8115 16.937C14.6064 17.1665 14.3281 17.2812 13.9766 17.2812H9.58203ZM10.8345 8.28711V6.72705H12.4824C12.6436 6.72705 12.7241 6.80518 12.7241 6.96143V8.05273C12.7241 8.20898 12.6436 8.28711 12.4824 8.28711H10.8345ZM10.8345 10.9458V9.38574H12.4824C12.6436 9.38574 12.7241 9.46387 12.7241 9.62012V10.7114C12.7241 10.8677 12.6436 10.9458 12.4824 10.9458H10.8345ZM10.8345 13.5972V12.0444H12.4824C12.6436 12.0444 12.7241 12.1226 12.7241 12.2788V13.3701C12.7241 13.5215 12.6436 13.5972 12.4824 13.5972H10.8345ZM2.02344 17.2812C1.67188 17.2812 1.39111 17.1665 1.18115 16.937C0.976074 16.7075 0.873535 16.4023 0.873535 16.0215V1.40234C0.873535 1.0166 0.976074 0.711426 1.18115 0.486816C1.39111 0.257324 1.67188 0.142578 2.02344 0.142578H10.2632C10.6196 0.142578 10.9004 0.257324 11.1055 0.486816C11.3105 0.711426 11.4131 1.0166 11.4131 1.40234V16.0215C11.4131 16.4023 11.3105 16.7075 11.1055 16.937C10.9004 17.1665 10.6196 17.2812 10.2632 17.2812H2.02344ZM2.38965 16.1606H9.89697C10.0337 16.1606 10.1338 16.1289 10.1973 16.0654C10.2656 16.002 10.2998 15.9019 10.2998 15.7651V1.65869C10.2998 1.52197 10.2656 1.42188 10.1973 1.3584C10.1338 1.29004 10.0337 1.25586 9.89697 1.25586H2.38965C2.25781 1.25586 2.15771 1.29004 2.08936 1.3584C2.021 1.42188 1.98682 1.52197 1.98682 1.65869V15.7651C1.98682 15.9019 2.021 16.002 2.08936 16.0654C2.15771 16.1289 2.25781 16.1606 2.38965 16.1606ZM3.86182 5.2915C3.6665 5.2915 3.56885 5.19141 3.56885 4.99121V3.60693C3.56885 3.40674 3.6665 3.30664 3.86182 3.30664H5.28271C5.48291 3.30664 5.58301 3.40674 5.58301 3.60693V4.99121C5.58301 5.19141 5.48291 5.2915 5.28271 5.2915H3.86182ZM6.99658 5.2915C6.80127 5.2915 6.70361 5.19141 6.70361 4.99121V3.60693C6.70361 3.40674 6.80127 3.30664 6.99658 3.30664H8.41748C8.61768 3.30664 8.71777 3.40674 8.71777 3.60693V4.99121C8.71777 5.19141 8.61768 5.2915 8.41748 5.2915H6.99658ZM3.86182 8.19189C3.6665 8.19189 3.56885 8.0918 3.56885 7.8916V6.50732C3.56885 6.30713 3.6665 6.20703 3.86182 6.20703H5.28271C5.48291 6.20703 5.58301 6.30713 5.58301 6.50732V7.8916C5.58301 8.0918 5.48291 8.19189 5.28271 8.19189H3.86182ZM6.99658 8.19189C6.80127 8.19189 6.70361 8.0918 6.70361 7.8916V6.50732C6.70361 6.30713 6.80127 6.20703 6.99658 6.20703H8.41748C8.61768 6.20703 8.71777 6.30713 8.71777 6.50732V7.8916C8.71777 8.0918 8.61768 8.19189 8.41748 8.19189H6.99658ZM3.86182 11.0923C3.6665 11.0923 3.56885 10.9922 3.56885 10.792V9.40771C3.56885 9.20752 3.6665 9.10742 3.86182 9.10742H5.28271C5.48291 9.10742 5.58301 9.20752 5.58301 9.40771V10.792C5.58301 10.9922 5.48291 11.0923 5.28271 11.0923H3.86182ZM6.99658 11.0923C6.80127 11.0923 6.70361 10.9922 6.70361 10.792V9.40771C6.70361 9.20752 6.80127 9.10742 6.99658 9.10742H8.41748C8.61768 9.10742 8.71777 9.20752 8.71777 9.40771V10.792C8.71777 10.9922 8.61768 11.0923 8.41748 11.0923H6.99658ZM3.99365 16.6953V14.1025C3.99365 13.8047 4.05957 13.585 4.19141 13.4434C4.32812 13.2969 4.54053 13.2236 4.82861 13.2236H7.46533C7.75342 13.2236 7.96338 13.2969 8.09521 13.4434C8.23193 13.585 8.30029 13.8047 8.30029 14.1025V16.6953H7.39209V14.3589C7.39209 14.2124 7.31641 14.1392 7.16504 14.1392H5.12891C4.97754 14.1392 4.90186 14.2124 4.90186 14.3589V16.6953H3.99365Z" fill="#00A19A"/>
</svg>
