<svg width="16" height="17" viewBox="0 0 16 17" fill="none" xmlns="http://www.w3.org/2000/svg">
<path d="M6.5 7.71191C5.92383 7.71191 5.39404 7.55811 4.91064 7.25049C4.43213 6.94287 4.04883 6.53027 3.76074 6.0127C3.47754 5.49023 3.33594 4.9165 3.33594 4.2915C3.33594 3.67139 3.47754 3.10742 3.76074 2.59961C4.04883 2.0918 4.43213 1.68652 4.91064 1.38379C5.39404 1.08105 5.92383 0.929688 6.5 0.929688C7.08594 0.929688 7.61816 1.07861 8.09668 1.37646C8.5752 1.67432 8.95605 2.07715 9.23926 2.58496C9.52246 3.08789 9.66406 3.65186 9.66406 4.27686C9.66406 4.90674 9.52002 5.48291 9.23193 6.00537C8.94873 6.52295 8.56787 6.93799 8.08936 7.25049C7.61084 7.55811 7.08105 7.71191 6.5 7.71191ZM6.5 6.60596C6.86133 6.60596 7.19092 6.50342 7.48877 6.29834C7.7915 6.08838 8.0332 5.80762 8.21387 5.45605C8.39453 5.09961 8.48486 4.70654 8.48486 4.27686C8.48486 3.85205 8.39453 3.47119 8.21387 3.13428C8.03809 2.79248 7.79883 2.52393 7.49609 2.32861C7.19824 2.1333 6.86621 2.03564 6.5 2.03564C6.13867 2.03564 5.80664 2.13574 5.50391 2.33594C5.20605 2.53125 4.9668 2.7998 4.78613 3.1416C4.60547 3.4834 4.51514 3.8667 4.51514 4.2915C4.51514 4.72119 4.60547 5.11182 4.78613 5.46338C4.97168 5.81494 5.21338 6.09326 5.51123 6.29834C5.81396 6.50342 6.14355 6.60596 6.5 6.60596ZM1.90039 14.4941C0.699219 14.4941 0.0986328 14.1035 0.0986328 13.3223C0.0986328 12.8438 0.245117 12.3335 0.538086 11.7915C0.831055 11.2495 1.25342 10.7393 1.80518 10.2607C2.36182 9.77734 3.0332 9.38428 3.81934 9.08154C4.61035 8.77881 5.50391 8.62744 6.5 8.62744C7.10547 8.62744 7.67432 8.68848 8.20654 8.81055C8.74365 8.93262 9.23682 9.09863 9.68604 9.30859C9.68604 9.59668 9.71045 9.85547 9.75928 10.085C9.80811 10.3145 9.87891 10.5293 9.97168 10.7295C9.54688 10.4414 9.0415 10.2046 8.45557 10.019C7.87451 9.82861 7.22266 9.7334 6.5 9.7334C5.66016 9.7334 4.91553 9.85547 4.26611 10.0996C3.6167 10.3389 3.06982 10.6416 2.62549 11.0078C2.18604 11.374 1.85156 11.7524 1.62207 12.1431C1.39258 12.5337 1.27783 12.8804 1.27783 13.1831C1.27783 13.2612 1.29736 13.3149 1.33643 13.3442C1.38037 13.3735 1.45117 13.3882 1.54883 13.3882H11.1729V14.4941H1.90039ZM13.0259 7.08203C13.4556 7.08203 13.8462 7.18701 14.1978 7.39697C14.5542 7.60693 14.835 7.89014 15.04 8.24658C15.25 8.59814 15.355 8.98633 15.355 9.41113C15.355 9.91895 15.2012 10.373 14.8936 10.7734C14.5908 11.1689 14.1587 11.4814 13.5972 11.7109L14.5786 12.6851C14.6226 12.729 14.6445 12.7778 14.6445 12.8315C14.6445 12.8804 14.6274 12.9194 14.5933 12.9487L13.5898 13.9302L14.3149 14.6553C14.354 14.6943 14.3735 14.7358 14.3735 14.7798C14.3735 14.8286 14.354 14.8726 14.3149 14.9116L13.1504 16.0688C13.1113 16.1079 13.0674 16.125 13.0186 16.1201C12.9697 16.1201 12.9282 16.103 12.894 16.0688L12.2788 15.4536C12.2104 15.3755 12.1763 15.2998 12.1763 15.2266V11.6011C11.7271 11.4253 11.3657 11.1421 11.0923 10.7515C10.8237 10.356 10.6895 9.90918 10.6895 9.41113C10.6895 8.98145 10.792 8.59082 10.9971 8.23926C11.207 7.8877 11.4878 7.60693 11.8394 7.39697C12.1958 7.18701 12.5913 7.08203 13.0259 7.08203ZM13.0186 8.03418C12.8184 8.03418 12.6475 8.10498 12.5059 8.24658C12.3691 8.3833 12.3008 8.54932 12.3008 8.74463C12.3008 8.94482 12.3716 9.11572 12.5132 9.25732C12.6548 9.39893 12.8232 9.46973 13.0186 9.46973C13.2139 9.46973 13.3799 9.39893 13.5166 9.25732C13.6582 9.11572 13.729 8.94482 13.729 8.74463C13.729 8.54932 13.6582 8.3833 13.5166 8.24658C13.3799 8.10498 13.2139 8.03418 13.0186 8.03418Z" fill="#00A19A"/>
</svg>
