<svg width="60" height="60" viewBox="0 0 60 60" fill="none" xmlns="http://www.w3.org/2000/svg">
<path fill-rule="evenodd" clip-rule="evenodd" d="M60 44.7738C60 45.102 59.9895 45.8145 59.9695 46.3652C59.9215 47.7117 59.8148 49.4496 59.6531 50.2406C59.4374 51.3666 59.072 52.4587 58.5668 53.4879C57.4556 55.6819 55.6724 57.4635 53.4773 58.5727C52.4421 59.0793 51.3436 59.445 50.2113 59.6602C49.4273 59.8184 47.7023 59.9227 46.3652 59.9707C45.8133 59.9906 45.1008 60 44.7738 60H15.2309C14.9027 60 14.1902 59.9895 13.6395 59.9695C12.293 59.9215 10.5551 59.8148 9.76406 59.6543C8.63782 59.4374 7.54543 59.0717 6.51562 58.5668C4.31978 57.4547 2.53692 55.6698 1.42734 53.4727C0.920735 52.4374 0.554987 51.339 0.339844 50.2066C0.181641 49.4227 0.0773437 47.6953 0.0292969 46.3605C0.009375 45.8098 0 45.0961 0 44.7656V15.2227C0 14.8945 0.0105469 14.182 0.0292969 13.6313C0.0832031 12.2883 0.189844 10.5469 0.351562 9.75937C0.568058 8.63319 0.93337 7.5408 1.43789 6.51094C2.55019 4.31799 4.33312 2.53711 6.52734 1.42734C7.56261 0.920735 8.66104 0.554987 9.79336 0.339844C10.5773 0.181641 12.3047 0.0773437 13.6395 0.0292969C14.1902 0.009375 14.9039 0 15.2344 0H44.7773C45.1055 0 45.818 0.0105469 46.3687 0.0292969C47.7117 0.0832031 49.4531 0.189844 50.2406 0.351562C51.3668 0.568058 52.4592 0.93337 53.4891 1.43789C55.682 2.55019 57.4629 4.33312 58.5727 6.52734C59.0793 7.56261 59.445 8.66104 59.6602 9.79336C59.8184 10.5773 59.9227 12.3023 59.9707 13.6395C59.9906 14.1902 60 14.9039 60 15.2309V44.7738Z" fill="url(#paint0_linear_16927_11994)"/>
<path fill-rule="evenodd" clip-rule="evenodd" d="M44.4797 15.4301C42.5943 13.5308 40.3503 12.0251 37.8781 11.0003C35.4059 9.97555 32.7547 9.45216 30.0785 9.46055C18.8672 9.46055 9.73242 18.5906 9.73242 29.8148C9.72923 33.3862 10.6669 36.8954 12.4512 39.9891L9.5625 50.5359L20.3531 47.7035C23.3371 49.3302 26.6811 50.1831 30.0797 50.1844H30.0879C41.3062 50.1844 50.4422 41.0543 50.4422 29.8301C50.4483 27.1553 49.9242 24.5057 48.9001 22.0347C47.8761 19.5636 46.3725 17.32 44.4762 15.4336L44.4797 15.4301ZM30.0844 46.7578C27.0528 46.7583 24.0769 45.9431 21.4688 44.3977L20.8488 44.0285L14.4457 45.7031L16.1555 39.4605L15.7547 38.8195C14.0547 36.1256 13.1561 33.0038 13.1637 29.8184C13.1637 20.4855 20.7539 12.8906 30.0937 12.8906C32.3162 12.8909 34.5168 13.3292 36.5699 14.1804C38.6229 15.0316 40.488 16.2791 42.0586 17.8515C43.6293 19.4239 44.8747 21.2904 45.7236 23.3443C46.5726 25.3983 47.0084 27.5994 47.0062 29.8219C46.998 39.1582 39.409 46.7508 30.0832 46.7508L30.0844 46.7578ZM39.3598 34.0781C38.8535 33.8203 36.3504 32.5934 35.8852 32.4234C35.4199 32.2535 35.0824 32.1668 34.7367 32.6813C34.391 33.1957 33.4219 34.3348 33.1242 34.6734C32.8266 35.0121 32.5312 35.059 32.0262 34.8012C31.5211 34.5434 29.8758 34.0078 27.934 32.2746C26.4246 30.927 25.4016 29.2582 25.1039 28.759C24.8062 28.2598 25.0699 27.9727 25.3289 27.7242C25.5633 27.498 25.8352 27.1313 26.0918 26.8336C26.3484 26.5359 26.4293 26.3273 26.598 25.9828C26.7668 25.6383 26.6848 25.3477 26.557 25.0922C26.4293 24.8367 25.4086 22.3324 24.9937 21.3129C24.5848 20.3156 24.1594 20.4551 23.8465 20.4375C23.5336 20.4199 23.2113 20.4223 22.875 20.4223C22.6176 20.4292 22.3643 20.489 22.1311 20.5981C21.8978 20.7072 21.6895 20.8631 21.5191 21.0563C21.0504 21.5625 19.7379 22.7977 19.7379 25.3008C19.7379 27.8039 21.559 30.2227 21.8145 30.5637C22.0699 30.9047 25.4016 36.0434 30.5027 38.2441C31.7145 38.7645 32.6613 39.0773 33.3996 39.3199C34.4371 39.6325 35.5328 39.7011 36.6012 39.5203C37.5797 39.3762 39.6105 38.291 40.0359 37.1039C40.4613 35.9168 40.4613 34.8973 40.3348 34.6875C40.2082 34.4777 39.8766 34.3359 39.3633 34.0758L39.3598 34.0781Z" fill="white"/>
<defs>
<linearGradient id="paint0_linear_16927_11994" x1="29.8703" y1="0.0497344" x2="29.8703" y2="59.7897" gradientUnits="userSpaceOnUse">
<stop stop-color="#61FD7D"/>
<stop offset="1" stop-color="#2BB826"/>
</linearGradient>
</defs>
</svg>
