<svg width="21" height="20" viewBox="0 0 21 20" fill="none" xmlns="http://www.w3.org/2000/svg">
<g clip-path="url(#clip0_12513_1038)">
<path d="M13.2022 5.66108C12.0931 5.66108 11.1849 6.35806 10.6042 6.35806C9.98636 6.35806 9.18239 5.66108 8.21465 5.66108C6.37593 5.66108 4.51489 7.2695 4.51489 10.2106C4.51489 12.0488 5.19976 13.9866 6.05584 15.235C6.78537 16.292 7.42557 17.1422 8.34864 17.1422C9.25683 17.1422 9.65882 16.5371 10.7903 16.5371C11.9367 16.5371 12.1973 17.1422 13.2022 17.1422C14.1997 17.1422 14.8623 16.2001 15.4951 15.2733C16.1948 14.2087 16.4926 13.1747 16.5 13.1211C16.4405 13.1058 14.5348 12.3016 14.5348 10.0574C14.5348 8.11201 16.031 7.23886 16.1204 7.16993C15.1303 5.70704 13.6191 5.66108 13.2022 5.66108ZM12.6812 4.42029C13.1353 3.85352 13.4554 3.07994 13.4554 2.29871C13.4554 2.19148 13.4479 2.08425 13.433 2C12.6886 2.03064 11.7953 2.5055 11.2667 3.14887C10.8424 3.63906 10.4553 4.42029 10.4553 5.20153C10.4553 5.32408 10.4777 5.43896 10.4851 5.47726C10.5298 5.48492 10.6042 5.50024 10.6861 5.50024C11.3486 5.50024 12.1824 5.04068 12.6812 4.42029Z" fill="black" fill-opacity="0.85"/>
</g>
<defs>
<clipPath id="clip0_12513_1038">
<rect width="12" height="16" fill="white" transform="translate(4.5 2)"/>
</clipPath>
</defs>
</svg>
