<svg width="21" height="20" viewBox="0 0 21 20" fill="none" xmlns="http://www.w3.org/2000/svg">
<path d="M19.5 10.002C19.5 14.4942 16.2087 18.2176 11.9062 18.8926V12.6035H14.0033L14.4023 10.002H11.9062V8.31375C11.9062 7.60184 12.255 6.9082 13.373 6.9082H14.5078V4.69336C14.5078 4.69336 13.4777 4.51758 12.493 4.51758C10.4374 4.51758 9.09375 5.76351 9.09375 8.01914V10.002H6.80859V12.6035H9.09375V18.8926C4.79133 18.2176 1.5 14.4942 1.5 10.002C1.5 5.03156 5.52961 1.00195 10.5 1.00195C15.4704 1.00195 19.5 5.03156 19.5 10.002Z" fill="#1877F2"/>
<path d="M14.0033 12.6035L14.4023 10.002H11.9062V8.31371C11.9062 7.60198 12.2549 6.9082 13.3729 6.9082H14.5078V4.69336C14.5078 4.69336 13.4779 4.51758 12.4932 4.51758C10.4374 4.51758 9.09375 5.76352 9.09375 8.01914V10.002H6.80859V12.6035H9.09375V18.8926C9.55198 18.9645 10.0216 19.002 10.5 19.002C10.9784 19.002 11.448 18.9645 11.9062 18.8926V12.6035H14.0033Z" fill="white"/>
</svg>
