<svg width="20" height="20" viewBox="0 0 20 20" fill="none" xmlns="http://www.w3.org/2000/svg">
<path d="M4.98942 11.876L4.36287 14.215L2.07283 14.2635C1.38844 12.9941 1.00024 11.5417 1.00024 9.99839C1.00024 8.50597 1.3632 7.0986 2.00656 5.85938H2.00705L4.04583 6.23316L4.93894 8.2597C4.75201 8.80466 4.65013 9.38966 4.65013 9.99839C4.6502 10.659 4.76987 11.292 4.98942 11.876Z" fill="#FBBB00"/>
<path d="M18.8424 8.31836C18.9458 8.86279 18.9996 9.42504 18.9996 9.99967C18.9996 10.644 18.9319 11.2725 18.8028 11.8788C18.3647 13.9419 17.2199 15.7434 15.6341 17.0182L15.6336 17.0177L13.0656 16.8867L12.7022 14.6179C13.7545 14.0007 14.5769 13.035 15.01 11.8788H10.1975V8.31836H15.0803H18.8424Z" fill="#518EF8"/>
<path d="M15.6338 17.0173L15.6343 17.0178C14.092 18.2575 12.1327 18.9993 9.99993 18.9993C6.57251 18.9993 3.59263 17.0836 2.07251 14.2644L4.98911 11.877C5.74915 13.9054 7.70591 15.3494 9.99993 15.3494C10.986 15.3494 11.9097 15.0828 12.7024 14.6175L15.6338 17.0173Z" fill="#28B446"/>
<path d="M15.7445 3.07002L12.8288 5.45698C12.0085 4.9442 11.0387 4.64797 9.99979 4.64797C7.65385 4.64797 5.66049 6.15818 4.93852 8.25936L2.0066 5.85903H2.0061C3.50397 2.97112 6.52143 0.998047 9.99979 0.998047C12.1835 0.998047 14.1858 1.77591 15.7445 3.07002Z" fill="#F14336"/>
</svg>
