<svg width="8" height="14" viewBox="0 0 8 14" fill="none" xmlns="http://www.w3.org/2000/svg">
<path d="M0 6.78125C0 6.68229 0.0182292 6.59115 0.0546875 6.50781C0.0911458 6.41927 0.145833 6.33854 0.21875 6.26562L6.41406 0.203125C6.55469 0.0677083 6.72396 0 6.92188 0C7.05729 0 7.17708 0.03125 7.28125 0.09375C7.39062 0.15625 7.47656 0.242188 7.53906 0.351562C7.60677 0.455729 7.64062 0.575521 7.64062 0.710938C7.64062 0.903646 7.57031 1.07292 7.42969 1.21875L1.74219 6.78125L7.42969 12.3438C7.57031 12.4896 7.64062 12.6589 7.64062 12.8516C7.64062 12.987 7.60677 13.1068 7.53906 13.2109C7.47656 13.3203 7.39062 13.4062 7.28125 13.4688C7.17708 13.5312 7.05729 13.5625 6.92188 13.5625C6.72396 13.5625 6.55469 13.4922 6.41406 13.3516L0.21875 7.29688C0.145833 7.22396 0.0911458 7.14583 0.0546875 7.0625C0.0182292 6.97396 0 6.88021 0 6.78125Z" fill="white"/>
</svg>
