<svg width="14" height="18" viewBox="0 0 14 18" fill="none" xmlns="http://www.w3.org/2000/svg">
<path d="M4.28125 3.64844C4.11979 3.64844 3.98438 3.59635 3.875 3.49219C3.77083 3.38802 3.71875 3.25781 3.71875 3.10156C3.71875 2.95052 3.78125 2.8125 3.90625 2.6875L6.47656 0.203125C6.5599 0.125 6.63542 0.0729167 6.70312 0.046875C6.77604 0.015625 6.85156 0 6.92969 0C7.01302 0 7.08854 0.015625 7.15625 0.046875C7.22917 0.0729167 7.30469 0.125 7.38281 0.203125L9.96094 2.6875C10.0807 2.8125 10.1406 2.95052 10.1406 3.10156C10.1406 3.25781 10.0859 3.38802 9.97656 3.49219C9.86719 3.59635 9.73177 3.64844 9.57031 3.64844C9.39844 3.64844 9.25781 3.58594 9.14844 3.46094L7.94531 2.17188L6.92969 1.09375L5.92188 2.17188L4.71094 3.46094C4.60156 3.58594 4.45833 3.64844 4.28125 3.64844ZM6.92969 11.4297C6.76302 11.4297 6.61719 11.3698 6.49219 11.25C6.3724 11.1302 6.3125 10.9896 6.3125 10.8281V2.875L6.40625 0.773438C6.41667 0.627604 6.47135 0.505208 6.57031 0.40625C6.66927 0.302083 6.78906 0.25 6.92969 0.25C7.07552 0.25 7.19792 0.302083 7.29688 0.40625C7.39583 0.505208 7.45052 0.627604 7.46094 0.773438L7.55469 2.875V10.8281C7.55469 10.9896 7.49219 11.1302 7.36719 11.25C7.2474 11.3698 7.10156 11.4297 6.92969 11.4297ZM3.26562 17.5469C2.21875 17.5469 1.41146 17.263 0.84375 16.6953C0.28125 16.1328 0 15.3281 0 14.2812V8.26562C0 7.21354 0.28125 6.40625 0.84375 5.84375C1.41146 5.28125 2.21875 5 3.26562 5H4.84375V6.25781H3.26562C2.625 6.25781 2.13021 6.43229 1.78125 6.78125C1.43229 7.125 1.25781 7.61979 1.25781 8.26562V14.2812C1.25781 14.9219 1.43229 15.4167 1.78125 15.7656C2.13021 16.1146 2.625 16.2891 3.26562 16.2891H10.5938C11.2396 16.2891 11.737 16.1146 12.0859 15.7656C12.4349 15.4167 12.6094 14.9219 12.6094 14.2812V8.26562C12.6094 7.61979 12.4349 7.125 12.0859 6.78125C11.737 6.43229 11.2396 6.25781 10.5938 6.25781H9.01562V5H10.5938C11.6458 5 12.4531 5.28125 13.0156 5.84375C13.5833 6.40625 13.8672 7.21354 13.8672 8.26562V14.2812C13.8672 15.3281 13.5833 16.1328 13.0156 16.6953C12.4531 17.263 11.6458 17.5469 10.5938 17.5469H3.26562Z" fill="white"/>
</svg>
