<svg width="21" height="21" viewBox="0 0 21 21" fill="none" xmlns="http://www.w3.org/2000/svg">
<path d="M10.5 18.2734C10.4219 18.2734 10.3281 18.25 10.2188 18.2031C10.1146 18.1615 10.0208 18.1146 9.9375 18.0625C8.46875 17.125 7.19531 16.1432 6.11719 15.1172C5.03906 14.0859 4.20573 13.0286 3.61719 11.9453C3.03385 10.8568 2.74219 9.75781 2.74219 8.64844C2.74219 7.95573 2.85156 7.32292 3.07031 6.75C3.29427 6.17188 3.60417 5.67188 4 5.25C4.39583 4.82812 4.85677 4.5026 5.38281 4.27344C5.90885 4.04427 6.47917 3.92969 7.09375 3.92969C7.85938 3.92969 8.53125 4.125 9.10938 4.51562C9.6875 4.90625 10.151 5.42188 10.5 6.0625C10.8542 5.41667 11.3203 4.90104 11.8984 4.51562C12.4766 4.125 13.1458 3.92969 13.9062 3.92969C14.5208 3.92969 15.0911 4.04427 15.6172 4.27344C16.1484 4.5026 16.6094 4.82812 17 5.25C17.3958 5.67188 17.7031 6.17188 17.9219 6.75C18.1458 7.32292 18.2578 7.95573 18.2578 8.64844C18.2578 9.75781 17.9635 10.8568 17.375 11.9453C16.7917 13.0286 15.9609 14.0859 14.8828 15.1172C13.8099 16.1432 12.5391 17.125 11.0703 18.0625C10.987 18.1146 10.8906 18.1615 10.7812 18.2031C10.6771 18.25 10.5833 18.2734 10.5 18.2734Z" fill="white"/>
</svg>
