<svg width="14" height="14" viewBox="0 0 14 14" fill="none" xmlns="http://www.w3.org/2000/svg">
<path d="M0.637695 5.61768L12.3418 0.19043C12.6104 0.0634766 12.8569 0.012207 13.0815 0.0366211C13.311 0.0561523 13.499 0.134277 13.6455 0.270996C13.792 0.407715 13.8799 0.585938 13.9092 0.805664C13.9385 1.02539 13.8921 1.26953 13.77 1.53809L8.35742 13.1763C8.25977 13.3862 8.13281 13.5474 7.97656 13.6597C7.8252 13.7769 7.66162 13.8428 7.48584 13.8574C7.31494 13.877 7.15381 13.8525 7.00244 13.7842C6.85107 13.7158 6.72656 13.6035 6.62891 13.4473C6.53125 13.2959 6.48242 13.1055 6.48242 12.876L6.46777 7.58057C6.46777 7.50732 6.43115 7.4707 6.35791 7.4707L1.01855 7.44873C0.798828 7.44385 0.61084 7.39502 0.45459 7.30225C0.303223 7.20459 0.188477 7.08252 0.110352 6.93604C0.0371094 6.78467 0.00537109 6.62598 0.0151367 6.45996C0.0249023 6.29395 0.0786133 6.13525 0.17627 5.98389C0.278809 5.83252 0.432617 5.71045 0.637695 5.61768ZM1.91211 6.30615L7.08301 6.27686C7.24902 6.27686 7.3833 6.32812 7.48584 6.43066C7.58838 6.5332 7.63965 6.66504 7.63965 6.82617L7.60303 12.0044C7.60303 12.019 7.60791 12.0288 7.61768 12.0337C7.62744 12.0337 7.63477 12.0264 7.63965 12.0117L12.4883 1.49414C12.498 1.46484 12.498 1.44775 12.4883 1.44287C12.4785 1.43311 12.4614 1.43311 12.437 1.44287L1.91211 6.26221C1.89258 6.27197 1.88281 6.28174 1.88281 6.2915C1.8877 6.30127 1.89746 6.30615 1.91211 6.30615Z" fill="#3C3C43" fill-opacity="0.6"/>
</svg>
