<svg width="18" height="13" viewBox="0 0 18 13" fill="none" xmlns="http://www.w3.org/2000/svg">
<path d="M3.28809 9.94629C3.07324 9.94629 2.8999 9.88037 2.76807 9.74854C2.63623 9.6167 2.57031 9.44824 2.57031 9.24316V7.88818C2.57031 7.67822 2.63623 7.50977 2.76807 7.38281C2.8999 7.25098 3.07324 7.18506 3.28809 7.18506H5.08252C5.29736 7.18506 5.4707 7.25098 5.60254 7.38281C5.73438 7.50977 5.80029 7.67822 5.80029 7.88818V9.24316C5.80029 9.44824 5.73438 9.6167 5.60254 9.74854C5.4707 9.88037 5.29736 9.94629 5.08252 9.94629H3.28809ZM0.592773 4.57764V2.91504H16.6255V4.57764H0.592773ZM2.29932 12.5098C1.53271 12.5098 0.956543 12.3193 0.570801 11.9385C0.189941 11.5625 -0.000488281 10.9985 -0.000488281 10.2466V2.27051C-0.000488281 1.51367 0.189941 0.947266 0.570801 0.571289C0.956543 0.19043 1.53271 0 2.29932 0H14.9116C15.6782 0 16.252 0.19043 16.6328 0.571289C17.0186 0.952148 17.2114 1.51855 17.2114 2.27051V10.2466C17.2114 10.9985 17.0186 11.5625 16.6328 11.9385C16.252 12.3193 15.6782 12.5098 14.9116 12.5098H2.29932ZM2.31396 11.3306H14.897C15.2583 11.3306 15.5366 11.2354 15.7319 11.0449C15.9321 10.8496 16.0322 10.5615 16.0322 10.1807V2.33643C16.0322 1.95557 15.9321 1.66748 15.7319 1.47217C15.5366 1.27686 15.2583 1.1792 14.897 1.1792H2.31396C1.94775 1.1792 1.66699 1.27686 1.47168 1.47217C1.27637 1.66748 1.17871 1.95557 1.17871 2.33643V10.1807C1.17871 10.5615 1.27637 10.8496 1.47168 11.0449C1.66699 11.2354 1.94775 11.3306 2.31396 11.3306Z" fill="#3C3C43" fill-opacity="0.6"/>
</svg>
