<svg width="15" height="18" viewBox="0 0 15 18" fill="none" xmlns="http://www.w3.org/2000/svg">
<path d="M8.70898 17.1387L9.34619 16.0181H12.7373C12.874 16.0181 12.9741 15.9863 13.0376 15.9229C13.106 15.8594 13.1401 15.7593 13.1401 15.6226V5.03174C13.1401 4.89502 13.106 4.79492 13.0376 4.73145C12.9741 4.66309 12.874 4.62891 12.7373 4.62891H9.96143V3.51562H13.1035C13.4551 3.51562 13.7334 3.63037 13.9385 3.85986C14.1484 4.08936 14.2534 4.39697 14.2534 4.78271V15.8789C14.2534 16.2598 14.1484 16.5649 13.9385 16.7944C13.7334 17.0239 13.4551 17.1387 13.1035 17.1387H8.70898ZM9.96143 8.14453V6.58447H11.6094C11.7705 6.58447 11.8511 6.6626 11.8511 6.81885V7.91016C11.8511 8.06641 11.7705 8.14453 11.6094 8.14453H9.96143ZM9.96143 10.8032V9.24316H11.6094C11.7705 9.24316 11.8511 9.32129 11.8511 9.47754V10.5688C11.8511 10.7251 11.7705 10.8032 11.6094 10.8032H9.96143ZM9.96143 13.4546V11.9019H11.6094C11.7705 11.9019 11.8511 11.98 11.8511 12.1362V13.2275C11.8511 13.3789 11.7705 13.4546 11.6094 13.4546H9.96143ZM1.15039 17.1387C0.798828 17.1387 0.518066 17.0239 0.308105 16.7944C0.103027 16.5649 0.000488281 16.2598 0.000488281 15.8789V1.25977C0.000488281 0.874023 0.103027 0.568848 0.308105 0.344238C0.518066 0.114746 0.798828 0 1.15039 0H9.39014C9.74658 0 10.0273 0.114746 10.2324 0.344238C10.4375 0.568848 10.54 0.874023 10.54 1.25977V15.8789C10.54 16.2598 10.4375 16.5649 10.2324 16.7944C10.0273 17.0239 9.74658 17.1387 9.39014 17.1387H1.15039ZM1.5166 16.0181H9.02393C9.16064 16.0181 9.26074 15.9863 9.32422 15.9229C9.39258 15.8594 9.42676 15.7593 9.42676 15.6226V1.51611C9.42676 1.37939 9.39258 1.2793 9.32422 1.21582C9.26074 1.14746 9.16064 1.11328 9.02393 1.11328H1.5166C1.38477 1.11328 1.28467 1.14746 1.21631 1.21582C1.14795 1.2793 1.11377 1.37939 1.11377 1.51611V15.6226C1.11377 15.7593 1.14795 15.8594 1.21631 15.9229C1.28467 15.9863 1.38477 16.0181 1.5166 16.0181ZM2.98877 5.14893C2.79346 5.14893 2.6958 5.04883 2.6958 4.84863V3.46436C2.6958 3.26416 2.79346 3.16406 2.98877 3.16406H4.40967C4.60986 3.16406 4.70996 3.26416 4.70996 3.46436V4.84863C4.70996 5.04883 4.60986 5.14893 4.40967 5.14893H2.98877ZM6.12354 5.14893C5.92822 5.14893 5.83057 5.04883 5.83057 4.84863V3.46436C5.83057 3.26416 5.92822 3.16406 6.12354 3.16406H7.54443C7.74463 3.16406 7.84473 3.26416 7.84473 3.46436V4.84863C7.84473 5.04883 7.74463 5.14893 7.54443 5.14893H6.12354ZM2.98877 8.04932C2.79346 8.04932 2.6958 7.94922 2.6958 7.74902V6.36475C2.6958 6.16455 2.79346 6.06445 2.98877 6.06445H4.40967C4.60986 6.06445 4.70996 6.16455 4.70996 6.36475V7.74902C4.70996 7.94922 4.60986 8.04932 4.40967 8.04932H2.98877ZM6.12354 8.04932C5.92822 8.04932 5.83057 7.94922 5.83057 7.74902V6.36475C5.83057 6.16455 5.92822 6.06445 6.12354 6.06445H7.54443C7.74463 6.06445 7.84473 6.16455 7.84473 6.36475V7.74902C7.84473 7.94922 7.74463 8.04932 7.54443 8.04932H6.12354ZM2.98877 10.9497C2.79346 10.9497 2.6958 10.8496 2.6958 10.6494V9.26514C2.6958 9.06494 2.79346 8.96484 2.98877 8.96484H4.40967C4.60986 8.96484 4.70996 9.06494 4.70996 9.26514V10.6494C4.70996 10.8496 4.60986 10.9497 4.40967 10.9497H2.98877ZM6.12354 10.9497C5.92822 10.9497 5.83057 10.8496 5.83057 10.6494V9.26514C5.83057 9.06494 5.92822 8.96484 6.12354 8.96484H7.54443C7.74463 8.96484 7.84473 9.06494 7.84473 9.26514V10.6494C7.84473 10.8496 7.74463 10.9497 7.54443 10.9497H6.12354ZM3.12061 16.5527V13.96C3.12061 13.6621 3.18652 13.4424 3.31836 13.3008C3.45508 13.1543 3.66748 13.0811 3.95557 13.0811H6.59229C6.88037 13.0811 7.09033 13.1543 7.22217 13.3008C7.35889 13.4424 7.42725 13.6621 7.42725 13.96V16.5527H6.51904V14.2163C6.51904 14.0698 6.44336 13.9966 6.29199 13.9966H4.25586C4.10449 13.9966 4.02881 14.0698 4.02881 14.2163V16.5527H3.12061Z" fill="#3C3C43" fill-opacity="0.6"/>
</svg>
