<svg width="122" height="96" viewBox="0 0 122 96" fill="none" xmlns="http://www.w3.org/2000/svg">
<path d="M93.9039 66.5684V71.7051H84.3543L84.3008 66.9313C84.3008 58.8869 80.8632 55.5598 75.0551 55.5598C69.2471 55.5598 65.8094 58.8869 65.8094 66.9313V76.6769H56.3254V66.5684C56.3254 54.1084 63.3199 47.2139 75.1159 47.2139C86.9119 47.2139 93.9064 54.1084 93.9064 66.5684H93.9039Z" fill="white"/>
<path d="M46.7976 47.2817C58.5936 47.2817 65.588 54.1762 65.588 66.6363V76.7448H56.1041V66.9991C56.1041 58.9548 52.7247 55.6277 46.8583 55.6277C41.0503 55.6277 37.6126 58.9548 37.6126 66.9991L37.5762 71.773H28.0363L28.012 66.6363C28.012 54.1762 35.0064 47.2817 46.8024 47.2817H46.7976Z" fill="white"/>
<path d="M69.5054 76.4403C69.5054 71.6217 65.6787 67.7173 60.9574 67.7173C56.2361 67.7173 52.4094 71.624 52.4094 76.4403C52.4094 79.2466 53.7125 81.7348 55.728 83.33L53.7344 95.9998H68.1828L66.1893 83.33C68.2047 81.7348 69.5078 79.2442 69.5078 76.4403H69.5054Z" fill="white"/>
<path d="M67.6177 76.0879C67.6177 72.3344 64.6347 69.29 60.9563 69.29C57.278 69.29 54.2949 72.3344 54.2949 76.0879C54.2949 78.2746 55.3087 80.2138 56.8817 81.4555L55.3282 91.326H66.5869L65.0334 81.4555C66.6039 80.2114 67.6201 78.2722 67.6201 76.0879H67.6177Z" fill="white"/>
<path d="M121.998 52.8751C121.99 50.1748 119.844 47.9858 117.194 47.9858C114.544 47.9858 112.39 50.1819 112.39 52.8893H112.399V74.6567C112.399 82.701 108.962 86.0281 103.154 86.0281C97.3456 86.0281 93.908 82.701 93.908 74.6567V71.7019H84.3486V75.0195C84.3486 87.4796 91.416 94.3741 103.212 94.3741C115.008 94.3741 122 87.4796 122 75.0195V52.8751H121.995H121.998Z" fill="#00A19A"/>
<path d="M0.00485966 52.8751C0.0121531 50.1748 2.15887 47.9858 4.80884 47.9858C7.46124 47.9858 9.61282 50.1819 9.61282 52.8893H9.6031V74.6567C9.6031 82.701 13.0408 86.0281 18.8488 86.0281C24.7176 86.0281 28.0362 82.701 28.0362 74.6567V71.7019H37.5785V75.0195C37.5785 87.4796 30.584 94.3741 18.788 94.3741C6.99203 94.3741 0 87.4796 0 75.0195V52.8751H0.00485966Z" fill="#00A19A"/>
<path d="M119.181 32.4272L64.1685 0.685677C63.4149 0.259189 62.5421 0.0212066 61.6547 0H61.5161V0.34873L61.4213 0H61.29C60.3954 0.0235629 59.525 0.261546 58.7665 0.69039L20.4757 22.7829V18.9186C20.4757 16.388 18.2147 14.3286 15.4383 14.3286C12.6619 14.3286 10.4009 16.388 10.4009 18.9186V28.5983L3.75654 32.4319C1.39831 33.768 0.673827 36.6049 2.14225 38.7539C3.60824 40.9028 6.72256 41.5625 9.08322 40.2242L61.4699 9.99773L113.859 40.2265C114.669 40.686 115.58 40.9216 116.511 40.9216C116.896 40.9216 117.282 40.8816 117.664 40.8015C118.974 40.5234 120.088 39.7977 120.8 38.7562C122.266 36.6073 121.542 33.7727 119.186 32.4367L119.181 32.4272Z" fill="#00A19A"/>
<path d="M58.2789 22.4019H51.1093C50.4662 22.4019 49.9448 22.9072 49.9448 23.5305V30.4792C49.9448 31.1026 50.4662 31.6079 51.1093 31.6079H58.2789C58.922 31.6079 59.4434 31.1026 59.4434 30.4792V23.5305C59.4434 22.9072 58.922 22.4019 58.2789 22.4019Z" fill="white"/>
<path d="M70.6734 22.4019H63.5039C62.8607 22.4019 62.3394 22.9072 62.3394 23.5305V30.4792C62.3394 31.1026 62.8607 31.6079 63.5039 31.6079H70.6734C71.3165 31.6079 71.8379 31.1026 71.8379 30.4792V23.5305C71.8379 22.9072 71.3165 22.4019 70.6734 22.4019Z" fill="white"/>
<path d="M58.2789 33.9355H51.1093C50.4662 33.9355 49.9448 34.4409 49.9448 35.0642V42.0129C49.9448 42.6362 50.4662 43.1416 51.1093 43.1416H58.2789C58.922 43.1416 59.4434 42.6362 59.4434 42.0129V35.0642C59.4434 34.4409 58.922 33.9355 58.2789 33.9355Z" fill="white"/>
<path d="M70.6734 33.9355H63.5039C62.8607 33.9355 62.3394 34.4409 62.3394 35.0642V42.0129C62.3394 42.6362 62.8607 43.1416 63.5039 43.1416H70.6734C71.3165 43.1416 71.8379 42.6362 71.8379 42.0129V35.0642C71.8379 34.4409 71.3165 33.9355 70.6734 33.9355Z" fill="white"/>
</svg>
