<svg width="43" height="33" viewBox="0 0 43 33" fill="none" xmlns="http://www.w3.org/2000/svg">
<path d="M33.0496 22.7447V24.4998H29.6886L29.6698 22.8687C29.6698 20.1202 28.4599 18.9834 26.4158 18.9834C24.3716 18.9834 23.1617 20.1202 23.1617 22.8687V26.1985H19.8239V22.7447C19.8239 18.4875 22.2856 16.1318 26.4372 16.1318C30.5888 16.1318 33.0496 18.4875 33.0496 22.7447Z" fill="white"/>
<path d="M16.4704 16.1548C20.622 16.1548 23.0837 18.5104 23.0837 22.7677V26.2214H19.7458V22.8917C19.7458 20.1431 18.5564 19.0064 16.4918 19.0064C14.4476 19.0064 13.2377 20.1431 13.2377 22.8917L13.2249 24.5227H9.86732L9.85876 22.7677C9.85876 18.5104 12.3205 16.1548 16.4721 16.1548H16.4704Z" fill="white"/>
<path d="M24.4625 26.1176C24.4625 24.4712 23.1157 23.1372 21.454 23.1372C19.7923 23.1372 18.4456 24.472 18.4456 26.1176C18.4456 27.0764 18.9042 27.9266 19.6135 28.4716L18.9119 32.8005H23.997L23.2954 28.4716C24.0047 27.9266 24.4625 27.0756 24.4625 26.1176Z" fill="white"/>
<path d="M23.7981 25.997C23.7981 24.7145 22.7482 23.6743 21.4536 23.6743C20.159 23.6743 19.1091 24.7145 19.1091 25.997C19.1091 26.7441 19.4659 27.4066 20.0195 27.8309L19.4728 31.2034H23.4353L22.8885 27.8309C23.4413 27.4058 23.7981 26.7433 23.7981 25.997Z" fill="white"/>
<path d="M42.9371 18.066C42.9345 17.1434 42.179 16.3955 41.2463 16.3955C40.3137 16.3955 39.5556 17.1458 39.5556 18.0709H39.559V25.5082C39.559 28.2567 38.3491 29.3934 36.305 29.3934C34.2608 29.3934 33.0509 28.2567 33.0509 25.5082V24.4986H29.6865V25.6321C29.6865 29.8894 32.1739 32.245 36.3255 32.245C40.4771 32.245 42.938 29.8894 42.938 25.6321L42.9371 18.066Z" fill="#00A19A"/>
<path d="M0.00171036 18.066C0.0042773 17.1434 0.759816 16.3955 1.69247 16.3955C2.62599 16.3955 3.38323 17.1458 3.38323 18.0709H3.37981V25.5082C3.37981 28.2567 4.5897 29.3934 6.63384 29.3934C8.69938 29.3934 9.86734 28.2567 9.86734 25.5082V24.4986H13.2258V25.6321C13.2258 29.8894 10.7641 32.245 6.61245 32.245C2.46084 32.245 0 29.8894 0 25.6321V18.066H0.00171036Z" fill="#00A19A"/>
<path d="M41.9458 11.0794L22.5842 0.234276C22.3189 0.0885573 22.0118 0.00724567 21.6995 0H21.6507V0.119151L21.6173 0H21.5711C21.2562 0.00805074 20.9499 0.0893627 20.6829 0.235886L7.20648 7.78426V6.46394C7.20648 5.59929 6.41072 4.89566 5.43357 4.89566C4.45642 4.89566 3.66067 5.59929 3.66067 6.46394V9.77119L1.32218 11.081C0.4922 11.5375 0.237216 12.5068 0.754028 13.2411C1.26998 13.9753 2.36607 14.2007 3.19691 13.7434L21.6344 3.41593L40.0728 13.7442C40.3577 13.9012 40.6786 13.9817 41.0063 13.9817C41.1415 13.9817 41.2776 13.968 41.4119 13.9407C41.8731 13.8457 42.265 13.5977 42.5157 13.2419C43.0316 12.5076 42.7767 11.5391 41.9475 11.0827L41.9458 11.0794Z" fill="#00A19A"/>
<path d="M20.5113 7.6543H17.988C17.7616 7.6543 17.5781 7.82695 17.5781 8.03993V10.4141C17.5781 10.6271 17.7616 10.7997 17.988 10.7997H20.5113C20.7376 10.7997 20.9211 10.6271 20.9211 10.4141V8.03993C20.9211 7.82695 20.7376 7.6543 20.5113 7.6543Z" fill="white"/>
<path d="M24.8735 7.6543H22.3502C22.1238 7.6543 21.9403 7.82695 21.9403 8.03993V10.4141C21.9403 10.6271 22.1238 10.7997 22.3502 10.7997H24.8735C25.0998 10.7997 25.2833 10.6271 25.2833 10.4141V8.03993C25.2833 7.82695 25.0998 7.6543 24.8735 7.6543Z" fill="white"/>
<path d="M20.5113 11.5947H17.988C17.7616 11.5947 17.5781 11.7674 17.5781 11.9804V14.3545C17.5781 14.5675 17.7616 14.7402 17.988 14.7402H20.5113C20.7376 14.7402 20.9211 14.5675 20.9211 14.3545V11.9804C20.9211 11.7674 20.7376 11.5947 20.5113 11.5947Z" fill="white"/>
<path d="M24.8735 11.5947H22.3502C22.1238 11.5947 21.9403 11.7674 21.9403 11.9804V14.3545C21.9403 14.5675 22.1238 14.7402 22.3502 14.7402H24.8735C25.0998 14.7402 25.2833 14.5675 25.2833 14.3545V11.9804C25.2833 11.7674 25.0998 11.5947 24.8735 11.5947Z" fill="white"/>
</svg>
