<svg width="15" height="17" viewBox="0 0 15 17" fill="none" xmlns="http://www.w3.org/2000/svg">
<path d="M0 12.4219C0 12.1615 0.0755208 11.9089 0.226562 11.6641C0.377604 11.4193 0.565104 11.1797 0.789062 10.9453C1.01823 10.7109 1.24479 10.4766 1.46875 10.2422C1.64062 10.0651 1.77344 9.83333 1.86719 9.54688C1.96615 9.26042 2.03906 8.95573 2.08594 8.63281C2.13281 8.3099 2.16667 7.9974 2.1875 7.69531C2.20312 6.66927 2.3099 5.76823 2.50781 4.99219C2.70573 4.21094 3.01562 3.5599 3.4375 3.03906C3.86458 2.51823 4.42448 2.13281 5.11719 1.88281C5.2474 1.3724 5.51042 0.940104 5.90625 0.585938C6.30729 0.231771 6.79427 0.0546875 7.36719 0.0546875C7.71615 0.0546875 8.04167 0.127604 8.34375 0.273438C8.21875 0.419271 8.10677 0.575521 8.00781 0.742188C7.90885 0.908854 7.82292 1.08333 7.75 1.26562C7.64583 1.22396 7.51823 1.20312 7.36719 1.20312C7.00781 1.20312 6.71875 1.33333 6.5 1.59375C6.28646 1.84896 6.17188 2.17969 6.15625 2.58594C6.15104 2.6849 6.1224 2.76302 6.07031 2.82031C6.01823 2.8724 5.94271 2.90885 5.84375 2.92969C5.39583 3.05469 4.99219 3.28125 4.63281 3.60938C4.27865 3.93229 3.99479 4.42708 3.78125 5.09375C3.56771 5.76042 3.45052 6.66146 3.42969 7.79688C3.40885 8.17708 3.3776 8.52604 3.33594 8.84375C3.29427 9.16146 3.23698 9.45052 3.16406 9.71094C3.09115 9.97135 3.0026 10.2057 2.89844 10.4141C2.79427 10.6172 2.67188 10.7969 2.53125 10.9531C2.39583 11.1042 2.25781 11.2526 2.11719 11.3984C1.98177 11.5443 1.85938 11.6797 1.75 11.8047C1.64062 11.9245 1.5625 12.0208 1.51562 12.0938V12.1875H13.2188V12.0938C13.1719 12.0208 13.0938 11.9245 12.9844 11.8047C12.8802 11.6797 12.7578 11.5443 12.6172 11.3984C12.4818 11.2526 12.3438 11.1042 12.2031 10.9531C12.0625 10.7969 11.9401 10.6172 11.8359 10.4141C11.7318 10.2057 11.6432 9.97135 11.5703 9.71094C11.5026 9.45052 11.4453 9.16146 11.3984 8.84375C11.3568 8.52604 11.3281 8.17708 11.3125 7.79688C11.3073 7.53646 11.2969 7.29167 11.2812 7.0625C11.2656 6.83333 11.2474 6.61719 11.2266 6.41406C11.4141 6.42448 11.6198 6.41406 11.8438 6.38281C12.0729 6.34635 12.2786 6.29948 12.4609 6.24219C12.487 6.47135 12.5078 6.70833 12.5234 6.95312C12.5391 7.19271 12.5495 7.4401 12.5547 7.69531C12.5755 7.9974 12.6094 8.3099 12.6562 8.63281C12.7031 8.95573 12.7734 9.26042 12.8672 9.54688C12.9661 9.83333 13.1016 10.0651 13.2734 10.2422C13.4974 10.4766 13.7214 10.7109 13.9453 10.9453C14.1745 11.1797 14.3646 11.4193 14.5156 11.6641C14.6667 11.9089 14.7422 12.1615 14.7422 12.4219C14.7422 12.7083 14.638 12.9375 14.4297 13.1094C14.2214 13.2812 13.9323 13.3672 13.5625 13.3672H10.2656C10.2448 13.8724 10.1068 14.3385 9.85156 14.7656C9.60156 15.1927 9.26302 15.5365 8.83594 15.7969C8.40885 16.0625 7.91927 16.1953 7.36719 16.1953C6.82031 16.1953 6.33333 16.0625 5.90625 15.7969C5.47917 15.5365 5.13802 15.1927 4.88281 14.7656C4.63281 14.3385 4.4974 13.8724 4.47656 13.3672H1.17969C0.809896 13.3672 0.520833 13.2812 0.3125 13.1094C0.104167 12.9375 0 12.7083 0 12.4219ZM5.69531 13.3672C5.72135 13.8984 5.88802 14.3177 6.19531 14.625C6.50781 14.9375 6.89844 15.0938 7.36719 15.0938C7.84115 15.0938 8.23177 14.9375 8.53906 14.625C8.84635 14.3177 9.01562 13.8984 9.04688 13.3672H5.69531ZM11.2188 5.42188C10.7188 5.42188 10.263 5.29948 9.85156 5.05469C9.44531 4.8099 9.11979 4.48177 8.875 4.07031C8.63021 3.65885 8.50781 3.20573 8.50781 2.71094C8.50781 2.21615 8.63021 1.76302 8.875 1.35156C9.11979 0.940104 9.44531 0.611979 9.85156 0.367188C10.263 0.122396 10.7188 0 11.2188 0C11.7083 0 12.1589 0.122396 12.5703 0.367188C12.9818 0.611979 13.3099 0.940104 13.5547 1.35156C13.7995 1.76302 13.9219 2.21615 13.9219 2.71094C13.9219 3.20573 13.7995 3.65885 13.5547 4.07031C13.3099 4.48177 12.9818 4.8099 12.5703 5.05469C12.1589 5.29948 11.7083 5.42188 11.2188 5.42188Z" fill="black"/>
</svg>
