<svg width="19" height="14" viewBox="0 0 19 14" fill="none" xmlns="http://www.w3.org/2000/svg">
<path d="M3.50781 10.6094C3.27865 10.6094 3.09375 10.5391 2.95312 10.3984C2.8125 10.2578 2.74219 10.0781 2.74219 9.85938V8.41406C2.74219 8.1901 2.8125 8.01042 2.95312 7.875C3.09375 7.73438 3.27865 7.66406 3.50781 7.66406H5.42188C5.65104 7.66406 5.83594 7.73438 5.97656 7.875C6.11719 8.01042 6.1875 8.1901 6.1875 8.41406V9.85938C6.1875 10.0781 6.11719 10.2578 5.97656 10.3984C5.83594 10.5391 5.65104 10.6094 5.42188 10.6094H3.50781ZM0.632812 4.88281V3.10938H17.7344V4.88281H0.632812ZM2.45312 13.3438C1.63542 13.3438 1.02083 13.1406 0.609375 12.7344C0.203125 12.3333 0 11.7318 0 10.9297V2.42188C0 1.61458 0.203125 1.01042 0.609375 0.609375C1.02083 0.203125 1.63542 0 2.45312 0H15.9062C16.724 0 17.3359 0.203125 17.7422 0.609375C18.1536 1.01562 18.3594 1.61979 18.3594 2.42188V10.9297C18.3594 11.7318 18.1536 12.3333 17.7422 12.7344C17.3359 13.1406 16.724 13.3438 15.9062 13.3438H2.45312ZM2.46875 12.0859H15.8906C16.276 12.0859 16.5729 11.9844 16.7812 11.7812C16.9948 11.5729 17.1016 11.2656 17.1016 10.8594V2.49219C17.1016 2.08594 16.9948 1.77865 16.7812 1.57031C16.5729 1.36198 16.276 1.25781 15.8906 1.25781H2.46875C2.07812 1.25781 1.77865 1.36198 1.57031 1.57031C1.36198 1.77865 1.25781 2.08594 1.25781 2.49219V10.8594C1.25781 11.2656 1.36198 11.5729 1.57031 11.7812C1.77865 11.9844 2.07812 12.0859 2.46875 12.0859Z" fill="black"/>
</svg>
