<svg width="16" height="15" viewBox="0 0 16 15" fill="none" xmlns="http://www.w3.org/2000/svg">
<path d="M2.45312 14.3828C1.63542 14.3828 1.02083 14.1797 0.609375 13.7734C0.203125 13.3724 0 12.7682 0 11.9609V2.42188C0 1.61458 0.203125 1.01042 0.609375 0.609375C1.02083 0.203125 1.63542 0 2.45312 0H13.125C13.9427 0 14.5547 0.203125 14.9609 0.609375C15.3672 1.01042 15.5703 1.61458 15.5703 2.42188V11.9609C15.5703 12.7682 15.3672 13.3724 14.9609 13.7734C14.5547 14.1797 13.9427 14.3828 13.125 14.3828H2.45312ZM2.33594 13.125H13.2266C13.5755 13.125 13.8438 13.0312 14.0312 12.8438C14.2188 12.6615 14.3125 12.3906 14.3125 12.0312V4.66406C14.3125 4.30469 14.2188 4.03385 14.0312 3.85156C13.8438 3.66406 13.5755 3.57031 13.2266 3.57031H2.33594C1.99219 3.57031 1.72656 3.66406 1.53906 3.85156C1.35156 4.03385 1.25781 4.30469 1.25781 4.66406V12.0312C1.25781 12.3906 1.35156 12.6615 1.53906 12.8438C1.72656 13.0312 1.99219 13.125 2.33594 13.125ZM6.26562 6.38281C6.13021 6.38281 6.03385 6.35677 5.97656 6.30469C5.92448 6.2526 5.89844 6.15885 5.89844 6.02344V5.5625C5.89844 5.42708 5.92448 5.33594 5.97656 5.28906C6.03385 5.23698 6.13021 5.21094 6.26562 5.21094H6.72656C6.86198 5.21094 6.95573 5.23698 7.00781 5.28906C7.0651 5.33594 7.09375 5.42708 7.09375 5.5625V6.02344C7.09375 6.15885 7.0651 6.2526 7.00781 6.30469C6.95573 6.35677 6.86198 6.38281 6.72656 6.38281H6.26562ZM8.85938 6.38281C8.72396 6.38281 8.63021 6.35677 8.57812 6.30469C8.52604 6.2526 8.5 6.15885 8.5 6.02344V5.5625C8.5 5.42708 8.52604 5.33594 8.57812 5.28906C8.63021 5.23698 8.72396 5.21094 8.85938 5.21094H9.32031C9.46094 5.21094 9.55729 5.23698 9.60938 5.28906C9.66146 5.33594 9.6875 5.42708 9.6875 5.5625V6.02344C9.6875 6.15885 9.66146 6.2526 9.60938 6.30469C9.55729 6.35677 9.46094 6.38281 9.32031 6.38281H8.85938ZM11.4609 6.38281C11.3203 6.38281 11.224 6.35677 11.1719 6.30469C11.1198 6.2526 11.0938 6.15885 11.0938 6.02344V5.5625C11.0938 5.42708 11.1198 5.33594 11.1719 5.28906C11.224 5.23698 11.3203 5.21094 11.4609 5.21094H11.9141C12.0547 5.21094 12.151 5.23698 12.2031 5.28906C12.2552 5.33594 12.2812 5.42708 12.2812 5.5625V6.02344C12.2812 6.15885 12.2552 6.2526 12.2031 6.30469C12.151 6.35677 12.0547 6.38281 11.9141 6.38281H11.4609ZM3.67188 8.9375C3.53125 8.9375 3.4349 8.91146 3.38281 8.85938C3.33073 8.80729 3.30469 8.71354 3.30469 8.57812V8.125C3.30469 7.98438 3.33073 7.89062 3.38281 7.84375C3.4349 7.79167 3.53125 7.76562 3.67188 7.76562H4.13281C4.26823 7.76562 4.36198 7.79167 4.41406 7.84375C4.46615 7.89062 4.49219 7.98438 4.49219 8.125V8.57812C4.49219 8.71354 4.46615 8.80729 4.41406 8.85938C4.36198 8.91146 4.26823 8.9375 4.13281 8.9375H3.67188ZM6.26562 8.9375C6.13021 8.9375 6.03385 8.91146 5.97656 8.85938C5.92448 8.80729 5.89844 8.71354 5.89844 8.57812V8.125C5.89844 7.98438 5.92448 7.89062 5.97656 7.84375C6.03385 7.79167 6.13021 7.76562 6.26562 7.76562H6.72656C6.86198 7.76562 6.95573 7.79167 7.00781 7.84375C7.0651 7.89062 7.09375 7.98438 7.09375 8.125V8.57812C7.09375 8.71354 7.0651 8.80729 7.00781 8.85938C6.95573 8.91146 6.86198 8.9375 6.72656 8.9375H6.26562ZM8.85938 8.9375C8.72396 8.9375 8.63021 8.91146 8.57812 8.85938C8.52604 8.80729 8.5 8.71354 8.5 8.57812V8.125C8.5 7.98438 8.52604 7.89062 8.57812 7.84375C8.63021 7.79167 8.72396 7.76562 8.85938 7.76562H9.32031C9.46094 7.76562 9.55729 7.79167 9.60938 7.84375C9.66146 7.89062 9.6875 7.98438 9.6875 8.125V8.57812C9.6875 8.71354 9.66146 8.80729 9.60938 8.85938C9.55729 8.91146 9.46094 8.9375 9.32031 8.9375H8.85938ZM11.4609 8.9375C11.3203 8.9375 11.224 8.91146 11.1719 8.85938C11.1198 8.80729 11.0938 8.71354 11.0938 8.57812V8.125C11.0938 7.98438 11.1198 7.89062 11.1719 7.84375C11.224 7.79167 11.3203 7.76562 11.4609 7.76562H11.9141C12.0547 7.76562 12.151 7.79167 12.2031 7.84375C12.2552 7.89062 12.2812 7.98438 12.2812 8.125V8.57812C12.2812 8.71354 12.2552 8.80729 12.2031 8.85938C12.151 8.91146 12.0547 8.9375 11.9141 8.9375H11.4609ZM3.67188 11.4922C3.53125 11.4922 3.4349 11.4688 3.38281 11.4219C3.33073 11.3698 3.30469 11.2734 3.30469 11.1328V10.6797C3.30469 10.5391 3.33073 10.4453 3.38281 10.3984C3.4349 10.3464 3.53125 10.3203 3.67188 10.3203H4.13281C4.26823 10.3203 4.36198 10.3464 4.41406 10.3984C4.46615 10.4453 4.49219 10.5391 4.49219 10.6797V11.1328C4.49219 11.2734 4.46615 11.3698 4.41406 11.4219C4.36198 11.4688 4.26823 11.4922 4.13281 11.4922H3.67188ZM6.26562 11.4922C6.13021 11.4922 6.03385 11.4688 5.97656 11.4219C5.92448 11.3698 5.89844 11.2734 5.89844 11.1328V10.6797C5.89844 10.5391 5.92448 10.4453 5.97656 10.3984C6.03385 10.3464 6.13021 10.3203 6.26562 10.3203H6.72656C6.86198 10.3203 6.95573 10.3464 7.00781 10.3984C7.0651 10.4453 7.09375 10.5391 7.09375 10.6797V11.1328C7.09375 11.2734 7.0651 11.3698 7.00781 11.4219C6.95573 11.4688 6.86198 11.4922 6.72656 11.4922H6.26562ZM8.85938 11.4922C8.72396 11.4922 8.63021 11.4688 8.57812 11.4219C8.52604 11.3698 8.5 11.2734 8.5 11.1328V10.6797C8.5 10.5391 8.52604 10.4453 8.57812 10.3984C8.63021 10.3464 8.72396 10.3203 8.85938 10.3203H9.32031C9.46094 10.3203 9.55729 10.3464 9.60938 10.3984C9.66146 10.4453 9.6875 10.5391 9.6875 10.6797V11.1328C9.6875 11.2734 9.66146 11.3698 9.60938 11.4219C9.55729 11.4688 9.46094 11.4922 9.32031 11.4922H8.85938Z" fill="black"/>
</svg>
