<svg width="22" height="15" viewBox="0 0 22 15" fill="none" xmlns="http://www.w3.org/2000/svg">
<path d="M10.0234 14.4688C8.7474 14.4688 8.10938 14.0521 8.10938 13.2188C8.10938 12.7083 8.26562 12.1641 8.57812 11.5859C8.89062 11.0078 9.34115 10.4635 9.92969 9.95312C10.5234 9.4375 11.2396 9.01823 12.0781 8.69531C12.9219 8.3724 13.8724 8.21094 14.9297 8.21094C15.9922 8.21094 16.9427 8.3724 17.7812 8.69531C18.625 9.01823 19.3411 9.4375 19.9297 9.95312C20.5234 10.4635 20.9766 11.0078 21.2891 11.5859C21.6016 12.1641 21.7578 12.7083 21.7578 13.2188C21.7578 14.0521 21.1172 14.4688 19.8359 14.4688H10.0234ZM9.64844 13.2891H20.2109C20.3151 13.2891 20.388 13.2734 20.4297 13.2422C20.4766 13.2109 20.5 13.1536 20.5 13.0703C20.5 12.7474 20.3776 12.3776 20.1328 11.9609C19.8932 11.5443 19.5365 11.1406 19.0625 10.75C18.5885 10.3594 18.0052 10.0365 17.3125 9.78125C16.6198 9.52083 15.8255 9.39062 14.9297 9.39062C14.0339 9.39062 13.2396 9.52083 12.5469 9.78125C11.8594 10.0365 11.2786 10.3594 10.8047 10.75C10.3307 11.1406 9.97135 11.5443 9.72656 11.9609C9.48698 12.3776 9.36719 12.7474 9.36719 13.0703C9.36719 13.1536 9.38802 13.2109 9.42969 13.2422C9.47656 13.2734 9.54948 13.2891 9.64844 13.2891ZM14.9375 7.23438C14.3177 7.23438 13.7526 7.07031 13.2422 6.74219C12.7318 6.41406 12.3229 5.97396 12.0156 5.42188C11.7135 4.86458 11.5625 4.2526 11.5625 3.58594C11.5625 2.92448 11.7135 2.32292 12.0156 1.78125C12.3229 1.23958 12.7318 0.807292 13.2422 0.484375C13.7526 0.161458 14.3177 0 14.9375 0C15.5625 0 16.1302 0.158854 16.6406 0.476562C17.151 0.794271 17.5573 1.22396 17.8594 1.76562C18.1615 2.30208 18.3125 2.90365 18.3125 3.57031C18.3125 4.24219 18.1589 4.85677 17.8516 5.41406C17.5495 5.96615 17.1432 6.40885 16.6328 6.74219C16.1224 7.07031 15.5573 7.23438 14.9375 7.23438ZM14.9375 6.05469C15.3229 6.05469 15.6745 5.94531 15.9922 5.72656C16.3151 5.5026 16.5729 5.20312 16.7656 4.82812C16.9583 4.44792 17.0547 4.02865 17.0547 3.57031C17.0547 3.11719 16.9583 2.71094 16.7656 2.35156C16.5781 1.98698 16.3229 1.70052 16 1.49219C15.6823 1.28385 15.3281 1.17969 14.9375 1.17969C14.5521 1.17969 14.1979 1.28646 13.875 1.5C13.5573 1.70833 13.3021 1.99479 13.1094 2.35938C12.9167 2.72396 12.8203 3.13281 12.8203 3.58594C12.8203 4.04427 12.9167 4.46094 13.1094 4.83594C13.3073 5.21094 13.5651 5.50781 13.8828 5.72656C14.2057 5.94531 14.5573 6.05469 14.9375 6.05469ZM1.58594 14.4688C1.0599 14.4688 0.664062 14.3594 0.398438 14.1406C0.132812 13.9271 0 13.6016 0 13.1641C0 12.5182 0.153646 11.8984 0.460938 11.3047C0.768229 10.7057 1.19271 10.1745 1.73438 9.71094C2.28125 9.24219 2.91146 8.8724 3.625 8.60156C4.34375 8.33073 5.11198 8.19531 5.92969 8.19531C6.36198 8.19531 6.78125 8.23438 7.1875 8.3125C7.59375 8.38542 7.98438 8.4974 8.35938 8.64844C8.73958 8.79427 9.09896 8.97656 9.4375 9.19531C9.26042 9.32031 9.09896 9.45312 8.95312 9.59375C8.80729 9.72917 8.67448 9.875 8.55469 10.0312C8.29948 9.88021 8.03125 9.75521 7.75 9.65625C7.47396 9.55729 7.18229 9.48177 6.875 9.42969C6.57292 9.3776 6.25781 9.35156 5.92969 9.35156C5.28906 9.35156 4.68229 9.45573 4.10938 9.66406C3.53646 9.86719 3.02865 10.1458 2.58594 10.5C2.14323 10.849 1.79427 11.2474 1.53906 11.6953C1.28906 12.1432 1.16406 12.6094 1.16406 13.0938C1.16406 13.1719 1.18229 13.2266 1.21875 13.2578C1.25521 13.2943 1.3151 13.3125 1.39844 13.3125H7.11719C7.09115 13.5521 7.13802 13.7786 7.25781 13.9922C7.3776 14.2057 7.53125 14.3646 7.71875 14.4688H1.58594ZM5.9375 7.30469C5.40104 7.30469 4.91146 7.16146 4.46875 6.875C4.02604 6.58333 3.67188 6.19531 3.40625 5.71094C3.14062 5.22656 3.00781 4.6901 3.00781 4.10156C3.00781 3.52344 3.14062 2.9974 3.40625 2.52344C3.67188 2.04427 4.02604 1.66406 4.46875 1.38281C4.91146 1.09635 5.40104 0.953125 5.9375 0.953125C6.47917 0.953125 6.97135 1.09375 7.41406 1.375C7.85677 1.65625 8.20833 2.03385 8.46875 2.50781C8.73438 2.98177 8.86719 3.50781 8.86719 4.08594C8.86719 4.67448 8.73438 5.21354 8.46875 5.70312C8.20312 6.19271 7.84896 6.58333 7.40625 6.875C6.96354 7.16146 6.47396 7.30469 5.9375 7.30469ZM5.9375 6.14062C6.25521 6.14062 6.54948 6.04948 6.82031 5.86719C7.09115 5.67969 7.30729 5.43229 7.46875 5.125C7.63021 4.8125 7.71094 4.46615 7.71094 4.08594C7.71094 3.71615 7.63021 3.38281 7.46875 3.08594C7.3125 2.78906 7.09896 2.55469 6.82812 2.38281C6.5625 2.20573 6.26562 2.11719 5.9375 2.11719C5.61458 2.11719 5.31771 2.20573 5.04688 2.38281C4.78125 2.5599 4.56771 2.79948 4.40625 3.10156C4.25 3.39844 4.17188 3.73177 4.17188 4.10156C4.17188 4.47656 4.2526 4.82031 4.41406 5.13281C4.57552 5.4401 4.78906 5.6849 5.05469 5.86719C5.32552 6.04948 5.61979 6.14062 5.9375 6.14062Z" fill="black"/>
</svg>
