<svg width="19" height="18" viewBox="0 0 19 18" fill="none" xmlns="http://www.w3.org/2000/svg">
<path d="M11.2969 4.63281H12.5703C13.0339 4.63281 13.4089 4.67708 13.6953 4.76562C13.9818 4.85417 14.2396 5.00521 14.4688 5.21875C14.7031 5.43229 14.974 5.72656 15.2812 6.10156L17.9766 9.44531C18.0911 9.58594 18.1797 9.72656 18.2422 9.86719C18.3099 10.0026 18.3568 10.1562 18.3828 10.3281C18.4089 10.4948 18.4219 10.6953 18.4219 10.9297V15.5547C18.4219 16.3568 18.2188 16.9609 17.8125 17.3672C17.4062 17.7734 16.7917 17.9766 15.9688 17.9766H2.45312C1.63542 17.9766 1.02083 17.7734 0.609375 17.3672C0.203125 16.9661 0 16.362 0 15.5547V10.9297C0 10.6953 0.0130208 10.4948 0.0390625 10.3281C0.0651042 10.1562 0.109375 10.0026 0.171875 9.86719C0.239583 9.72656 0.330729 9.58594 0.445312 9.44531L3.14844 6.10156C3.45052 5.72656 3.71875 5.43229 3.95312 5.21875C4.1875 5.00521 4.44531 4.85417 4.72656 4.76562C5.01302 4.67708 5.38802 4.63281 5.85156 4.63281H7.125V5.73438H5.75781C5.47656 5.73438 5.22135 5.78646 4.99219 5.89062C4.76823 5.99479 4.5599 6.16667 4.36719 6.40625L1.46875 10.0703C1.40104 10.1536 1.38021 10.2396 1.40625 10.3281C1.4375 10.4115 1.51823 10.4531 1.64844 10.4531H6.79688C7 10.4531 7.15104 10.5182 7.25 10.6484C7.34896 10.7786 7.39844 10.9245 7.39844 11.0859V11.1172C7.39844 11.4193 7.47135 11.7135 7.61719 12C7.76823 12.2812 7.97917 12.5156 8.25 12.7031C8.52083 12.8854 8.84115 12.9766 9.21094 12.9766C9.58073 12.9766 9.90104 12.8854 10.1719 12.7031C10.4427 12.5156 10.6536 12.2812 10.8047 12C10.9557 11.7135 11.0312 11.4193 11.0312 11.1172V11.0859C11.0312 10.9245 11.0781 10.7786 11.1719 10.6484C11.2708 10.5182 11.4219 10.4531 11.625 10.4531H16.7812C16.9062 10.4531 16.9818 10.4115 17.0078 10.3281C17.0391 10.2396 17.0234 10.1536 16.9609 10.0703L14.0547 6.40625C13.862 6.16667 13.6536 5.99479 13.4297 5.89062C13.2057 5.78646 12.9505 5.73438 12.6641 5.73438H11.2969V4.63281ZM2.46875 16.7188H15.9531C16.3385 16.7188 16.6354 16.6146 16.8438 16.4062C17.0573 16.1979 17.1641 15.8906 17.1641 15.4844V11.6016H12.2109C12.1484 12.0859 11.9792 12.5208 11.7031 12.9062C11.4323 13.2865 11.0807 13.5885 10.6484 13.8125C10.2214 14.0312 9.74219 14.1406 9.21094 14.1406C8.6849 14.1406 8.20573 14.0312 7.77344 13.8125C7.34635 13.5885 6.99479 13.2865 6.71875 12.9062C6.44271 12.5208 6.27344 12.0859 6.21094 11.6016H1.25781V15.4844C1.25781 15.8906 1.36198 16.1979 1.57031 16.4062C1.77865 16.6146 2.07812 16.7188 2.46875 16.7188ZM6.5625 6.78906C6.73958 6.78906 6.88281 6.85156 6.99219 6.97656L8.19531 8.26562L9.21094 9.34375L10.2266 8.26562L11.4297 6.97656C11.5391 6.85156 11.6797 6.78906 11.8516 6.78906C12.013 6.78906 12.1484 6.84115 12.2578 6.94531C12.3672 7.04948 12.4219 7.17969 12.4219 7.33594C12.4219 7.48698 12.362 7.625 12.2422 7.75L9.66406 10.2344C9.58594 10.3125 9.51042 10.3672 9.4375 10.3984C9.36458 10.4245 9.28906 10.4375 9.21094 10.4375C9.13281 10.4375 9.05729 10.4245 8.98438 10.3984C8.91146 10.3672 8.83594 10.3125 8.75781 10.2344L6.17969 7.75C6.0599 7.625 6 7.48698 6 7.33594C6 7.17969 6.05208 7.04948 6.15625 6.94531C6.26042 6.84115 6.39583 6.78906 6.5625 6.78906ZM9.21094 0C9.3776 0 9.52344 0.0598958 9.64844 0.179688C9.77344 0.299479 9.83594 0.442708 9.83594 0.609375V7.55469L9.73438 9.66406C9.72917 9.80469 9.67708 9.92708 9.57812 10.0312C9.47917 10.1354 9.35677 10.1875 9.21094 10.1875C9.07031 10.1875 8.94792 10.1354 8.84375 10.0312C8.74479 9.92708 8.69271 9.80469 8.6875 9.66406L8.59375 7.55469V0.609375C8.59375 0.442708 8.65365 0.299479 8.77344 0.179688C8.89844 0.0598958 9.04427 0 9.21094 0Z" fill="black"/>
</svg>
