<svg width="16" height="16" viewBox="0 0 16 16" fill="none" xmlns="http://www.w3.org/2000/svg">
<path d="M13.8281 15.1406L3.84375 5.14844C3.67188 4.97135 3.58594 4.76562 3.58594 4.53125C3.58594 4.29167 3.66927 4.08594 3.83594 3.91406C3.9974 3.73698 4.20052 3.64844 4.44531 3.64844C4.69531 3.64844 4.90625 3.73698 5.07812 3.91406L15.0625 13.8984C15.2344 14.0807 15.3203 14.2891 15.3203 14.5234C15.3203 14.7578 15.237 14.9635 15.0703 15.1406C14.9089 15.3125 14.7031 15.3984 14.4531 15.3984C14.2083 15.4036 14 15.3177 13.8281 15.1406ZM7.0625 7.52344L7.45312 7.14844L4.75781 4.44531C4.70573 4.39323 4.64062 4.36719 4.5625 4.36719C4.48958 4.36719 4.42708 4.39323 4.375 4.44531C4.31771 4.5026 4.28906 4.56771 4.28906 4.64062C4.28906 4.71354 4.31771 4.77604 4.375 4.82812L7.0625 7.52344ZM10.9297 5.65625C10.862 5.65625 10.8073 5.63802 10.7656 5.60156C10.724 5.5651 10.7005 5.51562 10.6953 5.45312C10.6276 5.01562 10.5469 4.65625 10.4531 4.375C10.3646 4.09375 10.237 3.86719 10.0703 3.69531C9.90885 3.52344 9.6875 3.39062 9.40625 3.29688C9.125 3.20312 8.75781 3.1224 8.30469 3.05469C8.16406 3.02865 8.09375 2.95573 8.09375 2.83594C8.09375 2.70052 8.16406 2.6224 8.30469 2.60156C8.75781 2.53385 9.1224 2.45312 9.39844 2.35938C9.67448 2.26042 9.89062 2.1276 10.0469 1.96094C10.2083 1.78906 10.3333 1.5625 10.4219 1.28125C10.5156 1 10.6068 0.640625 10.6953 0.203125C10.7214 0.0677083 10.7995 0 10.9297 0C11.0495 0 11.1224 0.0703125 11.1484 0.210938C11.2161 0.638021 11.2943 0.992188 11.3828 1.27344C11.4766 1.54948 11.6042 1.77344 11.7656 1.94531C11.9323 2.11719 12.1562 2.2526 12.4375 2.35156C12.724 2.45052 13.0938 2.53385 13.5469 2.60156C13.6823 2.6224 13.75 2.70052 13.75 2.83594C13.75 2.96094 13.6823 3.03385 13.5469 3.05469C13.0938 3.1224 12.7266 3.20573 12.4453 3.30469C12.1693 3.39844 11.9505 3.53125 11.7891 3.70312C11.6328 3.86979 11.5078 4.09635 11.4141 4.38281C11.3255 4.66406 11.237 5.02344 11.1484 5.46094C11.138 5.51823 11.112 5.5651 11.0703 5.60156C11.0286 5.63802 10.9818 5.65625 10.9297 5.65625ZM2.21875 12.0625C2.10417 12.0625 2.03646 12 2.01562 11.875C1.95833 11.5052 1.90365 11.2135 1.85156 11C1.79948 10.7812 1.71875 10.6146 1.60938 10.5C1.50521 10.3854 1.34115 10.2969 1.11719 10.2344C0.898438 10.1719 0.588542 10.1094 0.1875 10.0469C0.0625 10.026 0 9.95833 0 9.84375C0 9.72396 0.0625 9.65625 0.1875 9.64062C0.588542 9.57812 0.898438 9.51562 1.11719 9.45312C1.34115 9.39062 1.50521 9.30208 1.60938 9.1875C1.71875 9.06771 1.79948 8.90104 1.85156 8.6875C1.90365 8.46875 1.95833 8.17708 2.01562 7.8125C2.03646 7.6875 2.10417 7.625 2.21875 7.625C2.33854 7.625 2.40885 7.6875 2.42969 7.8125C2.48698 8.17708 2.54167 8.46875 2.59375 8.6875C2.64583 8.90104 2.72396 9.06771 2.82812 9.1875C2.9375 9.30208 3.10156 9.39062 3.32031 9.45312C3.54427 9.51562 3.85677 9.57812 4.25781 9.64062C4.38281 9.65625 4.44531 9.72396 4.44531 9.84375C4.44531 9.95833 4.38281 10.026 4.25781 10.0469C3.85677 10.1094 3.54427 10.1719 3.32031 10.2344C3.10156 10.2969 2.9375 10.3854 2.82812 10.5C2.72396 10.6146 2.64583 10.7812 2.59375 11C2.54167 11.2135 2.48698 11.5052 2.42969 11.875C2.40885 12 2.33854 12.0625 2.21875 12.0625ZM4.82812 14.2656C4.73958 14.2656 4.67969 14.2109 4.64844 14.1016C4.58594 13.8151 4.53385 13.6068 4.49219 13.4766C4.45052 13.3411 4.36458 13.2474 4.23438 13.1953C4.10938 13.138 3.88281 13.0781 3.55469 13.0156C3.45052 12.9948 3.39844 12.9349 3.39844 12.8359C3.39844 12.737 3.45312 12.6771 3.5625 12.6562C3.88542 12.6042 4.11198 12.5521 4.24219 12.5C4.3724 12.4427 4.45573 12.349 4.49219 12.2188C4.53385 12.0833 4.58594 11.8698 4.64844 11.5781C4.67969 11.4635 4.73958 11.4062 4.82812 11.4062C4.92708 11.4062 4.98698 11.4583 5.00781 11.5625C5.0599 11.8594 5.10677 12.0755 5.14844 12.2109C5.1901 12.3411 5.27604 12.4323 5.40625 12.4844C5.54167 12.5365 5.77344 12.5938 6.10156 12.6562C6.20573 12.6771 6.25781 12.737 6.25781 12.8359C6.25781 12.9349 6.20573 12.9948 6.10156 13.0156C5.77344 13.0781 5.54167 13.138 5.40625 13.1953C5.27083 13.2474 5.18229 13.3411 5.14062 13.4766C5.09896 13.6068 5.05469 13.8151 5.00781 14.1016C4.98698 14.2109 4.92708 14.2656 4.82812 14.2656Z" fill="black"/>
</svg>
