<svg width="14" height="15" viewBox="0 0 14 15" fill="none" xmlns="http://www.w3.org/2000/svg">
<path d="M1.91406 14.4688C0.638021 14.4688 0 14.0521 0 13.2188C0 12.7083 0.15625 12.1641 0.46875 11.5859C0.78125 11.0078 1.23177 10.4635 1.82031 9.95312C2.41406 9.4375 3.13021 9.01823 3.96875 8.69531C4.8125 8.3724 5.76562 8.21094 6.82812 8.21094C7.88542 8.21094 8.83333 8.3724 9.67188 8.69531C10.5156 9.01823 11.2318 9.4375 11.8203 9.95312C12.4141 10.4635 12.8672 11.0078 13.1797 11.5859C13.4922 12.1641 13.6484 12.7083 13.6484 13.2188C13.6484 14.0521 13.0104 14.4688 11.7344 14.4688H1.91406ZM1.54688 13.2891H12.1094C12.2083 13.2891 12.2786 13.2734 12.3203 13.2422C12.3672 13.2109 12.3906 13.1536 12.3906 13.0703C12.3906 12.7474 12.2682 12.3776 12.0234 11.9609C11.7839 11.5443 11.4271 11.1406 10.9531 10.75C10.4792 10.3594 9.89583 10.0365 9.20312 9.78125C8.51562 9.52083 7.72396 9.39062 6.82812 9.39062C5.93229 9.39062 5.13802 9.52083 4.44531 9.78125C3.7526 10.0365 3.16927 10.3594 2.69531 10.75C2.22135 11.1406 1.86198 11.5443 1.61719 11.9609C1.3776 12.3776 1.25781 12.7474 1.25781 13.0703C1.25781 13.1536 1.27865 13.2109 1.32031 13.2422C1.36719 13.2734 1.44271 13.2891 1.54688 13.2891ZM6.82812 7.23438C6.20833 7.23438 5.64323 7.07031 5.13281 6.74219C4.6224 6.41406 4.21354 5.97396 3.90625 5.42188C3.60417 4.86458 3.45312 4.2526 3.45312 3.58594C3.45312 2.92448 3.60417 2.32292 3.90625 1.78125C4.21354 1.23958 4.6224 0.807292 5.13281 0.484375C5.64323 0.161458 6.20833 0 6.82812 0C7.45312 0 8.02083 0.158854 8.53125 0.476562C9.04167 0.794271 9.44792 1.22396 9.75 1.76562C10.0521 2.30208 10.2031 2.90365 10.2031 3.57031C10.2031 4.24219 10.0495 4.85677 9.74219 5.41406C9.4401 5.96615 9.03385 6.40885 8.52344 6.74219C8.01302 7.07031 7.44792 7.23438 6.82812 7.23438ZM6.82812 6.05469C7.21354 6.05469 7.5651 5.94531 7.88281 5.72656C8.20573 5.5026 8.46354 5.20312 8.65625 4.82812C8.84896 4.44792 8.94531 4.02865 8.94531 3.57031C8.94531 3.11719 8.84896 2.71094 8.65625 2.35156C8.46875 1.98698 8.21354 1.70052 7.89062 1.49219C7.57292 1.28385 7.21875 1.17969 6.82812 1.17969C6.44271 1.17969 6.08854 1.28646 5.76562 1.5C5.44792 1.70833 5.19271 1.99479 5 2.35938C4.80729 2.72396 4.71094 3.13281 4.71094 3.58594C4.71094 4.04427 4.80729 4.46094 5 4.83594C5.19792 5.21094 5.45573 5.50781 5.77344 5.72656C6.09635 5.94531 6.44792 6.05469 6.82812 6.05469Z" fill="black"/>
</svg>
