<svg width="18" height="18" viewBox="0 0 18 18" fill="none" xmlns="http://www.w3.org/2000/svg">
<path d="M8.63281 16.0078C8.53906 16.0078 8.44271 16.0052 8.34375 16C8.25 15.9948 8.15625 15.9896 8.0625 15.9844L7.64062 16.7891C7.58854 16.888 7.51823 16.9583 7.42969 17C7.34115 17.0469 7.24219 17.0625 7.13281 17.0469C7.02344 17.0208 6.9349 16.974 6.86719 16.9062C6.80469 16.8385 6.76562 16.7474 6.75 16.6328L6.625 15.7344C6.23958 15.625 5.88281 15.4948 5.55469 15.3438L4.875 15.9531C4.79688 16.0312 4.70833 16.0755 4.60938 16.0859C4.51042 16.0964 4.41146 16.0729 4.3125 16.0156C4.21875 15.9635 4.15365 15.8906 4.11719 15.7969C4.08073 15.7083 4.07292 15.6094 4.09375 15.5L4.28125 14.6172C4.13021 14.5078 3.97917 14.3906 3.82812 14.2656C3.68229 14.1458 3.54167 14.0156 3.40625 13.875L2.57031 14.2266C2.35677 14.3099 2.17188 14.263 2.01562 14.0859C1.94792 14.0026 1.90885 13.9141 1.89844 13.8203C1.89323 13.7214 1.92188 13.6224 1.98438 13.5234L2.46875 12.7656C2.35938 12.6042 2.25781 12.4427 2.16406 12.2812C2.07031 12.1146 1.98177 11.9453 1.89844 11.7734L0.992188 11.8047C0.882812 11.8099 0.786458 11.7865 0.703125 11.7344C0.619792 11.6823 0.557292 11.6016 0.515625 11.4922C0.484375 11.388 0.481771 11.2891 0.507812 11.1953C0.533854 11.1016 0.591146 11.0208 0.679688 10.9531L1.39844 10.3984C1.35156 10.2109 1.3099 10.026 1.27344 9.84375C1.24219 9.65625 1.21875 9.46354 1.20312 9.26562L0.335938 8.99219C0.226562 8.96094 0.143229 8.90625 0.0859375 8.82812C0.0286458 8.74479 0 8.64844 0 8.53906C0 8.42448 0.0286458 8.32812 0.0859375 8.25C0.143229 8.17188 0.226562 8.11719 0.335938 8.08594L1.20312 7.8125C1.21875 7.61458 1.24219 7.42448 1.27344 7.24219C1.3099 7.05469 1.35156 6.86719 1.39844 6.67969L0.679688 6.125C0.486979 5.97917 0.434896 5.79948 0.523438 5.58594C0.559896 5.48177 0.619792 5.40365 0.703125 5.35156C0.786458 5.29427 0.885417 5.26823 1 5.27344L1.89844 5.30469C1.98177 5.13281 2.07031 4.96615 2.16406 4.80469C2.25781 4.63802 2.35938 4.47656 2.46875 4.32031L1.98438 3.55469C1.85417 3.35156 1.86458 3.16406 2.01562 2.99219C2.09375 2.90885 2.17969 2.85417 2.27344 2.82812C2.36719 2.80208 2.46615 2.8099 2.57031 2.85156L3.40625 3.19531C3.54688 3.0651 3.6875 2.9401 3.82812 2.82031C3.97396 2.69531 4.125 2.57812 4.28125 2.46875L4.09375 1.57812C4.06771 1.46875 4.07292 1.36979 4.10938 1.28125C4.15104 1.1875 4.21875 1.11458 4.3125 1.0625C4.41146 1.01042 4.51042 0.989583 4.60938 1C4.70833 1.00521 4.79948 1.04688 4.88281 1.125L5.54688 1.73438C5.71875 1.65625 5.89323 1.58333 6.07031 1.51562C6.2474 1.44792 6.42969 1.38802 6.61719 1.33594L6.75 0.4375C6.76562 0.328125 6.80469 0.239583 6.86719 0.171875C6.9349 0.0989583 7.02604 0.0520833 7.14062 0.03125C7.24479 0.015625 7.34115 0.0286458 7.42969 0.0703125C7.51823 0.111979 7.58854 0.184896 7.64062 0.289062L8.0625 1.08594C8.15625 1.08073 8.25 1.07812 8.34375 1.07812C8.44271 1.07292 8.53906 1.07031 8.63281 1.07031C8.73177 1.07031 8.82812 1.07292 8.92188 1.07812C9.01562 1.07812 9.10938 1.08073 9.20312 1.08594L9.63281 0.28125C9.6849 0.182292 9.7526 0.111979 9.83594 0.0703125C9.92448 0.0234375 10.026 0.0104167 10.1406 0.03125C10.2448 0.0572917 10.3307 0.104167 10.3984 0.171875C10.4661 0.239583 10.5052 0.328125 10.5156 0.4375L10.6406 1.33594C10.8281 1.38802 11.0104 1.44792 11.1875 1.51562C11.3698 1.57812 11.5443 1.64844 11.7109 1.72656L12.3906 1.125C12.474 1.04688 12.5625 1.0026 12.6562 0.992188C12.7552 0.981771 12.8568 1.00521 12.9609 1.0625C13.0547 1.11458 13.1198 1.1875 13.1562 1.28125C13.1927 1.36979 13.2005 1.46875 13.1797 1.57812L12.9844 2.46094C13.1354 2.57031 13.2839 2.6875 13.4297 2.8125C13.5807 2.93229 13.724 3.0599 13.8594 3.19531L14.7031 2.85156C14.9167 2.76302 15.1016 2.80729 15.2578 2.98438C15.3255 3.07292 15.362 3.16667 15.3672 3.26562C15.3724 3.35938 15.3438 3.45573 15.2812 3.55469L14.8047 4.3125C14.9089 4.46875 15.0078 4.63021 15.1016 4.79688C15.2005 4.95833 15.2917 5.125 15.375 5.29688L16.2734 5.27344C16.388 5.26823 16.4844 5.29167 16.5625 5.34375C16.6458 5.39583 16.7083 5.47656 16.75 5.58594C16.7865 5.6901 16.7917 5.78906 16.7656 5.88281C16.7396 5.97656 16.6797 6.05729 16.5859 6.125L15.8672 6.67969C15.9193 6.86198 15.9609 7.04688 15.9922 7.23438C16.0234 7.42188 16.0495 7.61458 16.0703 7.8125L16.9297 8.08594C17.0391 8.11719 17.1224 8.17188 17.1797 8.25C17.2422 8.32812 17.2734 8.42448 17.2734 8.53906C17.2734 8.64844 17.2422 8.74479 17.1797 8.82812C17.1224 8.90625 17.0391 8.96094 16.9297 8.99219L16.0703 9.26562C16.0495 9.46354 16.0234 9.65625 15.9922 9.84375C15.9609 10.026 15.9193 10.2109 15.8672 10.3984L16.5938 10.9531C16.6823 11.0208 16.7396 11.1016 16.7656 11.1953C16.7969 11.2891 16.7917 11.3854 16.75 11.4844C16.7083 11.5938 16.6458 11.6771 16.5625 11.7344C16.4844 11.7865 16.388 11.8099 16.2734 11.8047L15.375 11.7734C15.2917 11.9401 15.2005 12.1068 15.1016 12.2734C15.0078 12.4349 14.9089 12.5964 14.8047 12.7578L15.2891 13.5234C15.3516 13.6172 15.3776 13.7135 15.3672 13.8125C15.362 13.9115 15.3229 14.0026 15.25 14.0859C15.1771 14.1693 15.0938 14.224 15 14.25C14.9062 14.276 14.8047 14.2682 14.6953 14.2266L13.8594 13.8828C13.724 14.013 13.5833 14.138 13.4375 14.2578C13.2917 14.3828 13.1406 14.5 12.9844 14.6094L13.1797 15.5C13.2005 15.6094 13.1927 15.7083 13.1562 15.7969C13.1198 15.8854 13.0521 15.9583 12.9531 16.0156C12.8542 16.0677 12.7552 16.0885 12.6562 16.0781C12.5573 16.0729 12.4688 16.0312 12.3906 15.9531L11.7188 15.3438C11.5469 15.4219 11.3724 15.4922 11.1953 15.5547C11.0182 15.6224 10.8359 15.6823 10.6484 15.7344L10.5156 16.6406C10.5052 16.75 10.4661 16.8385 10.3984 16.9062C10.3307 16.9792 10.2422 17.026 10.1328 17.0469C10.0234 17.0573 9.92448 17.0417 9.83594 17C9.7526 16.9583 9.6849 16.888 9.63281 16.7891L9.20312 15.9844C9.10938 15.9896 9.01562 15.9948 8.92188 16C8.82812 16.0052 8.73177 16.0078 8.63281 16.0078ZM8.63281 14.7109C9.48698 14.7109 10.2865 14.5495 11.0312 14.2266C11.776 13.9089 12.4323 13.4688 13 12.9062C13.5677 12.3385 14.0104 11.6823 14.3281 10.9375C14.6458 10.1927 14.8047 9.39323 14.8047 8.53906C14.8047 7.6849 14.6458 6.88542 14.3281 6.14062C14.0104 5.39583 13.5677 4.73958 13 4.17188C12.4323 3.60417 11.776 3.16146 11.0312 2.84375C10.2865 2.52604 9.48698 2.36719 8.63281 2.36719C7.78385 2.36719 6.98438 2.52604 6.23438 2.84375C5.48958 3.16146 4.83333 3.60417 4.26562 4.17188C3.70312 4.73958 3.26042 5.39583 2.9375 6.14062C2.61979 6.88542 2.46094 7.6849 2.46094 8.53906C2.46094 9.39323 2.61979 10.1927 2.9375 10.9375C3.26042 11.6823 3.70312 12.3385 4.26562 12.9062C4.83333 13.4688 5.48958 13.9089 6.23438 14.2266C6.98438 14.5495 7.78385 14.7109 8.63281 14.7109ZM7.27344 7.34375L4.625 2.82031L5.58594 2.28125L8.19531 6.75781L7.27344 7.34375ZM10.375 9.07031V7.99219H15.5703V9.07031H10.375ZM8.21094 10.3438L5.5 14.7969L4.54688 14.2344L7.29688 9.75L8.21094 10.3438ZM8.64062 10.5859C8.26042 10.5859 7.91406 10.4948 7.60156 10.3125C7.29427 10.125 7.04948 9.8776 6.86719 9.57031C6.6849 9.25781 6.59375 8.91406 6.59375 8.53906C6.59375 8.15885 6.6849 7.8151 6.86719 7.50781C7.04948 7.20052 7.29427 6.95573 7.60156 6.77344C7.91406 6.58594 8.26042 6.49219 8.64062 6.49219C9.01562 6.49219 9.35677 6.58594 9.66406 6.77344C9.97656 6.95573 10.224 7.20052 10.4062 7.50781C10.5938 7.8151 10.6875 8.15885 10.6875 8.53906C10.6875 8.91406 10.5938 9.25781 10.4062 9.57031C10.224 9.8776 9.97656 10.125 9.66406 10.3125C9.35677 10.4948 9.01562 10.5859 8.64062 10.5859ZM8.64062 9.41406C8.88021 9.41406 9.08594 9.32812 9.25781 9.15625C9.42969 8.98438 9.51562 8.77865 9.51562 8.53906C9.51562 8.29948 9.42969 8.09375 9.25781 7.92188C9.08594 7.75 8.88021 7.66406 8.64062 7.66406C8.40104 7.66406 8.19531 7.75 8.02344 7.92188C7.85156 8.09375 7.76562 8.29948 7.76562 8.53906C7.76562 8.77865 7.85156 8.98438 8.02344 9.15625C8.19531 9.32812 8.40104 9.41406 8.64062 9.41406Z" fill="black"/>
</svg>
