<svg width="18" height="17" viewBox="0 0 18 17" fill="none" xmlns="http://www.w3.org/2000/svg">
<path d="M4.80469 16.1641C4.53385 16.1641 4.32292 16.0729 4.17188 15.8906C4.02604 15.7135 3.95312 15.474 3.95312 15.1719V13.1406H3.57812C2.80208 13.1406 2.14844 13.0026 1.61719 12.7266C1.08594 12.4453 0.682292 12.0391 0.40625 11.5078C0.135417 10.9766 0 10.3281 0 9.5625V3.57812C0 2.8125 0.135417 2.16406 0.40625 1.63281C0.682292 1.10156 1.08594 0.697917 1.61719 0.421875C2.14844 0.140625 2.80208 0 3.57812 0H13.6406C14.4167 0 15.0703 0.140625 15.6016 0.421875C16.1328 0.697917 16.5339 1.10156 16.8047 1.63281C17.0807 2.16406 17.2188 2.8125 17.2188 3.57812V9.5625C17.2188 10.3281 17.0807 10.9766 16.8047 11.5078C16.5339 12.0391 16.1328 12.4453 15.6016 12.7266C15.0703 13.0026 14.4167 13.1406 13.6406 13.1406H8.625L5.92969 15.5391C5.69531 15.7474 5.4974 15.9036 5.33594 16.0078C5.17448 16.112 4.9974 16.1641 4.80469 16.1641ZM5.125 14.7344L7.625 12.25C7.77083 12.099 7.91146 12 8.04688 11.9531C8.18229 11.9062 8.35938 11.8828 8.57812 11.8828H13.6406C14.4271 11.8828 15.0104 11.6875 15.3906 11.2969C15.7708 10.901 15.9609 10.3203 15.9609 9.55469V3.57812C15.9609 2.81771 15.7708 2.24219 15.3906 1.85156C15.0104 1.45573 14.4271 1.25781 13.6406 1.25781H3.57812C2.78646 1.25781 2.20052 1.45573 1.82031 1.85156C1.44531 2.24219 1.25781 2.81771 1.25781 3.57812V9.55469C1.25781 10.3203 1.44531 10.901 1.82031 11.2969C2.20052 11.6875 2.78646 11.8828 3.57812 11.8828H4.53906C4.7526 11.8828 4.90365 11.9271 4.99219 12.0156C5.08073 12.1042 5.125 12.2552 5.125 12.4688V14.7344ZM4.83594 5.73438C4.83594 5.27083 4.99219 4.89323 5.30469 4.60156C5.6224 4.30469 6.01562 4.15625 6.48438 4.15625C6.98958 4.15625 7.39844 4.33594 7.71094 4.69531C8.02865 5.04948 8.1875 5.49219 8.1875 6.02344C8.1875 6.51823 8.10156 6.95052 7.92969 7.32031C7.76302 7.6849 7.54948 7.98698 7.28906 8.22656C7.03385 8.46615 6.77344 8.64583 6.50781 8.76562C6.24219 8.88542 6.01042 8.94531 5.8125 8.94531C5.69792 8.94531 5.60417 8.91146 5.53125 8.84375C5.46354 8.77083 5.42969 8.6849 5.42969 8.58594C5.42969 8.49219 5.45573 8.41406 5.50781 8.35156C5.5599 8.28385 5.65885 8.23177 5.80469 8.19531C5.97135 8.14844 6.14323 8.07292 6.32031 7.96875C6.5026 7.86458 6.66927 7.73177 6.82031 7.57031C6.97656 7.40885 7.10156 7.21875 7.19531 7H7.13281C7.03385 7.13021 6.90625 7.21615 6.75 7.25781C6.59896 7.29427 6.44271 7.3125 6.28125 7.3125C5.83854 7.3125 5.48698 7.16146 5.22656 6.85938C4.96615 6.55208 4.83594 6.17708 4.83594 5.73438ZM9.05469 5.73438C9.05469 5.27083 9.21094 4.89323 9.52344 4.60156C9.84115 4.30469 10.2344 4.15625 10.7031 4.15625C11.2083 4.15625 11.6172 4.33594 11.9297 4.69531C12.2474 5.04948 12.4062 5.49219 12.4062 6.02344C12.4062 6.51823 12.3203 6.95052 12.1484 7.32031C11.9818 7.6849 11.7682 7.98698 11.5078 8.22656C11.2526 8.46615 10.9896 8.64583 10.7188 8.76562C10.4531 8.88542 10.224 8.94531 10.0312 8.94531C9.91667 8.94531 9.82292 8.91146 9.75 8.84375C9.68229 8.77083 9.64844 8.6849 9.64844 8.58594C9.64844 8.49219 9.67448 8.41406 9.72656 8.35156C9.77865 8.28385 9.8776 8.23177 10.0234 8.19531C10.1901 8.14844 10.362 8.07292 10.5391 7.96875C10.7214 7.86458 10.888 7.73177 11.0391 7.57031C11.1953 7.40885 11.3203 7.21875 11.4141 7H11.3516C11.2526 7.13021 11.125 7.21615 10.9688 7.25781C10.8177 7.29427 10.6615 7.3125 10.5 7.3125C10.0573 7.3125 9.70573 7.16146 9.44531 6.85938C9.1849 6.55208 9.05469 6.17708 9.05469 5.73438Z" fill="black"/>
</svg>
