<svg width="18" height="19" viewBox="0 0 18 19" fill="none" xmlns="http://www.w3.org/2000/svg">
<path d="M6.92969 0C7.10156 0 7.2474 0.0598958 7.36719 0.179688C7.49219 0.299479 7.55469 0.440104 7.55469 0.601562V8.54688L7.50781 9.71875L7.85156 9.34375L9.14844 7.96875C9.25781 7.84375 9.39844 7.78125 9.57031 7.78125C9.73177 7.78125 9.86719 7.83333 9.97656 7.9375C10.0859 8.04167 10.1406 8.17188 10.1406 8.32812C10.1406 8.47917 10.0807 8.61719 9.96094 8.74219L7.38281 11.2266C7.30469 11.3047 7.22917 11.3594 7.15625 11.3906C7.08854 11.4167 7.01302 11.4297 6.92969 11.4297C6.85156 11.4297 6.77604 11.4167 6.70312 11.3906C6.63542 11.3594 6.5599 11.3047 6.47656 11.2266L3.90625 8.74219C3.78125 8.61719 3.71875 8.47917 3.71875 8.32812C3.71875 8.17188 3.77083 8.04167 3.875 7.9375C3.98438 7.83333 4.11979 7.78125 4.28125 7.78125C4.45833 7.78125 4.60156 7.84375 4.71094 7.96875L6.01562 9.34375L6.35938 9.71875L6.3125 8.54688V0.601562C6.3125 0.440104 6.3724 0.299479 6.49219 0.179688C6.61719 0.0598958 6.76302 0 6.92969 0ZM3.26562 16.7031C2.21875 16.7031 1.41146 16.4193 0.84375 15.8516C0.28125 15.2891 0 14.4844 0 13.4375V7.42188C0 6.36979 0.28125 5.5625 0.84375 5C1.41146 4.4375 2.21875 4.15625 3.26562 4.15625H4.84375V5.41406H3.26562C2.625 5.41406 2.13021 5.58854 1.78125 5.9375C1.43229 6.28646 1.25781 6.78125 1.25781 7.42188V13.4375C1.25781 14.0781 1.43229 14.5729 1.78125 14.9219C2.13021 15.2708 2.625 15.4453 3.26562 15.4453H8.375C8.42188 15.6641 8.48698 15.8802 8.57031 16.0938C8.65365 16.3073 8.75 16.5104 8.85938 16.7031H3.26562ZM13.8672 9.22656C13.763 9.21094 13.6589 9.20052 13.5547 9.19531C13.4505 9.1901 13.3438 9.1875 13.2344 9.1875C13.1302 9.1875 13.026 9.1901 12.9219 9.19531C12.8177 9.20052 12.7135 9.21094 12.6094 9.22656V7.42188C12.6094 6.78125 12.4349 6.28646 12.0859 5.9375C11.737 5.58854 11.2396 5.41406 10.5938 5.41406H9.01562V4.15625H10.5938C11.6458 4.15625 12.4531 4.4375 13.0156 5C13.5833 5.5625 13.8672 6.36979 13.8672 7.42188V9.22656ZM13.2422 18.1875C12.7005 18.1875 12.1901 18.0833 11.7109 17.875C11.2318 17.6719 10.8099 17.388 10.4453 17.0234C10.0807 16.6589 9.79427 16.237 9.58594 15.7578C9.3776 15.2786 9.27344 14.7656 9.27344 14.2188C9.27344 13.6719 9.3776 13.1615 9.58594 12.6875C9.79427 12.2083 10.0807 11.7865 10.4453 11.4219C10.8099 11.0521 11.2318 10.7656 11.7109 10.5625C12.1901 10.3542 12.7005 10.25 13.2422 10.25C13.7891 10.25 14.3021 10.3542 14.7812 10.5625C15.2604 10.7656 15.6823 11.0495 16.0469 11.4141C16.4115 11.7786 16.6953 12.2005 16.8984 12.6797C17.1068 13.1589 17.2109 13.6719 17.2109 14.2188C17.2109 14.7604 17.1068 15.2708 16.8984 15.75C16.6901 16.2292 16.401 16.651 16.0312 17.0156C15.6667 17.3802 15.2448 17.6667 14.7656 17.875C14.2865 18.0833 13.7786 18.1875 13.2422 18.1875ZM11.3828 14.8281H13.2812C13.4167 14.8281 13.5286 14.7812 13.6172 14.6875C13.7109 14.5938 13.7578 14.4792 13.7578 14.3438V11.9062C13.7578 11.776 13.7109 11.6667 13.6172 11.5781C13.5234 11.4844 13.4115 11.4375 13.2812 11.4375C13.1458 11.4375 13.0312 11.4844 12.9375 11.5781C12.8438 11.6667 12.7969 11.776 12.7969 11.9062V13.8672H11.3828C11.2526 13.8672 11.138 13.9141 11.0391 14.0078C10.9453 14.1016 10.8984 14.2135 10.8984 14.3438C10.8984 14.474 10.9453 14.5859 11.0391 14.6797C11.1328 14.7786 11.2474 14.8281 11.3828 14.8281Z" fill="black"/>
</svg>
