<svg width="16" height="16" viewBox="0 0 16 16" fill="none" xmlns="http://www.w3.org/2000/svg">
<path d="M7.96875 15.9375C6.86979 15.9375 5.83854 15.7292 4.875 15.3125C3.91146 14.901 3.0651 14.3307 2.33594 13.6016C1.60677 12.8724 1.03385 12.026 0.617188 11.0625C0.205729 10.099 0 9.06771 0 7.96875C0 6.86979 0.205729 5.83854 0.617188 4.875C1.03385 3.91146 1.60677 3.0651 2.33594 2.33594C3.0651 1.60156 3.91146 1.02865 4.875 0.617188C5.83854 0.205729 6.86979 0 7.96875 0C9.06771 0 10.099 0.205729 11.0625 0.617188C12.026 1.02865 12.8724 1.60156 13.6016 2.33594C14.3307 3.0651 14.901 3.91146 15.3125 4.875C15.7292 5.83854 15.9375 6.86979 15.9375 7.96875C15.9375 9.06771 15.7292 10.099 15.3125 11.0625C14.901 12.026 14.3307 12.8724 13.6016 13.6016C12.8724 14.3307 12.026 14.901 11.0625 15.3125C10.099 15.7292 9.06771 15.9375 7.96875 15.9375ZM7.96875 14.6094C8.88542 14.6094 9.74479 14.4375 10.5469 14.0938C11.349 13.75 12.0547 13.2734 12.6641 12.6641C13.2734 12.0547 13.75 11.349 14.0938 10.5469C14.4375 9.74479 14.6094 8.88542 14.6094 7.96875C14.6094 7.05208 14.4375 6.19271 14.0938 5.39062C13.75 4.58333 13.2734 3.8776 12.6641 3.27344C12.0547 2.66406 11.349 2.1875 10.5469 1.84375C9.74479 1.5 8.88542 1.32812 7.96875 1.32812C7.05208 1.32812 6.19271 1.5 5.39062 1.84375C4.58854 2.1875 3.88281 2.66406 3.27344 3.27344C2.66406 3.8776 2.1875 4.58333 1.84375 5.39062C1.5 6.19271 1.32812 7.05208 1.32812 7.96875C1.32812 8.88542 1.5 9.74479 1.84375 10.5469C2.1875 11.349 2.66406 12.0547 3.27344 12.6641C3.88281 13.2734 4.58854 13.75 5.39062 14.0938C6.19271 14.4375 7.05208 14.6094 7.96875 14.6094ZM7.8125 9.58594C7.39583 9.58594 7.1875 9.38021 7.1875 8.96875C7.1875 8.95312 7.1875 8.9375 7.1875 8.92188C7.1875 8.90104 7.1875 8.88281 7.1875 8.86719C7.1875 8.48177 7.27865 8.17188 7.46094 7.9375C7.64844 7.70312 7.88281 7.48958 8.16406 7.29688C8.50781 7.05729 8.76302 6.85417 8.92969 6.6875C9.09635 6.51562 9.17969 6.29688 9.17969 6.03125C9.17969 5.73438 9.07292 5.49479 8.85938 5.3125C8.64583 5.125 8.35938 5.03125 8 5.03125C7.82812 5.03125 7.66667 5.0599 7.51562 5.11719C7.36979 5.17448 7.23698 5.25781 7.11719 5.36719C6.9974 5.47135 6.89062 5.59896 6.79688 5.75L6.65625 5.9375C6.58854 6.03125 6.50781 6.10677 6.41406 6.16406C6.32552 6.22135 6.21615 6.25 6.08594 6.25C5.95573 6.25 5.83333 6.20573 5.71875 6.11719C5.60417 6.02344 5.54688 5.88802 5.54688 5.71094C5.54688 5.64323 5.55208 5.57812 5.5625 5.51562C5.57292 5.45312 5.58854 5.39062 5.60938 5.32812C5.71875 4.96875 5.98438 4.65365 6.40625 4.38281C6.83333 4.10677 7.38281 3.96875 8.05469 3.96875C8.4974 3.96875 8.90625 4.04688 9.28125 4.20312C9.65625 4.35417 9.95833 4.57812 10.1875 4.875C10.4219 5.17188 10.5391 5.53646 10.5391 5.96875C10.5391 6.4375 10.4167 6.80729 10.1719 7.07812C9.92708 7.34896 9.61719 7.60938 9.24219 7.85938C8.96615 8.04167 8.76302 8.21354 8.63281 8.375C8.5026 8.53125 8.4375 8.71875 8.4375 8.9375C8.4375 8.94792 8.4375 8.96354 8.4375 8.98438C8.4375 9 8.4375 9.01562 8.4375 9.03125C8.4375 9.18229 8.38021 9.3125 8.26562 9.42188C8.15625 9.53125 8.00521 9.58594 7.8125 9.58594ZM7.78906 11.9141C7.5651 11.9141 7.36979 11.8359 7.20312 11.6797C7.03646 11.5182 6.95312 11.3255 6.95312 11.1016C6.95312 10.8776 7.03385 10.6875 7.19531 10.5312C7.36198 10.3698 7.5599 10.2891 7.78906 10.2891C8.01823 10.2891 8.21615 10.3672 8.38281 10.5234C8.54948 10.6797 8.63281 10.8724 8.63281 11.1016C8.63281 11.3307 8.54948 11.5234 8.38281 11.6797C8.21615 11.8359 8.01823 11.9141 7.78906 11.9141Z" fill="black"/>
</svg>
