<svg width="13" height="16" viewBox="0 0 13 16" fill="none" xmlns="http://www.w3.org/2000/svg">
<path d="M4.56348 14.1504H7.77148C8.20117 14.1504 8.41602 13.9209 8.41602 13.4619V10.9937C8.41602 10.564 8.23535 10.3369 7.87402 10.3125V9.5874C7.87402 9.01611 7.71533 8.55469 7.39795 8.20312C7.08545 7.85156 6.67529 7.67578 6.16748 7.67578C5.65967 7.67578 5.24707 7.85156 4.92969 8.20312C4.61719 8.55469 4.46094 9.01611 4.46094 9.5874V10.3125C4.09961 10.3369 3.91895 10.564 3.91895 10.9937V13.4619C3.91895 13.9209 4.13379 14.1504 4.56348 14.1504ZM5.12744 10.3052V9.52148C5.12744 9.15527 5.22266 8.8623 5.41309 8.64258C5.60352 8.42285 5.85498 8.31299 6.16748 8.31299C6.47998 8.31299 6.73145 8.42285 6.92188 8.64258C7.1123 8.8623 7.20752 9.15527 7.20752 9.52148V10.3052H5.12744ZM2.271 15.7031C1.51416 15.7031 0.945312 15.5127 0.564453 15.1318C0.188477 14.751 0.000488281 14.1772 0.000488281 13.4106V2.2998C0.000488281 1.53809 0.188477 0.964355 0.564453 0.578613C0.945312 0.192871 1.51416 0 2.271 0H5.63281V5.37598C5.63281 6.29883 6.09424 6.76025 7.01709 6.76025H12.3198V13.4106C12.3198 14.1724 12.1294 14.7437 11.7485 15.1245C11.3726 15.5103 10.8062 15.7031 10.0493 15.7031H2.271ZM7.03906 5.75684C6.77051 5.75684 6.63623 5.625 6.63623 5.36133V0.0805664C6.7876 0.10498 6.94141 0.170898 7.09766 0.27832C7.25391 0.380859 7.41748 0.52002 7.58838 0.695801L11.624 4.80469C11.7998 4.98535 11.939 5.15137 12.0415 5.30273C12.144 5.4541 12.2075 5.60547 12.2319 5.75684H7.03906Z" fill="#00A19A"/>
</svg>
