<svg width="13" height="15" viewBox="0 0 13 15" fill="none" xmlns="http://www.w3.org/2000/svg">
<path d="M6.08594 14.7949C6.02734 14.7949 5.9541 14.7827 5.86621 14.7583C5.77832 14.7339 5.68799 14.6973 5.59521 14.6484C4.55518 14.0625 3.67627 13.5425 2.9585 13.0884C2.24561 12.6343 1.67188 12.1948 1.2373 11.77C0.802734 11.3452 0.487793 10.8862 0.29248 10.3931C0.097168 9.8999 -0.000488281 9.31885 -0.000488281 8.6499V3.04688C-0.000488281 2.66113 0.0800781 2.38525 0.241211 2.21924C0.407227 2.04834 0.644043 1.89941 0.95166 1.77246C1.12256 1.69922 1.35938 1.604 1.66211 1.48682C1.96484 1.36963 2.29932 1.24268 2.66553 1.10596C3.03174 0.969238 3.39551 0.834961 3.75684 0.703125C4.12305 0.566406 4.45752 0.446777 4.76025 0.344238C5.06299 0.236816 5.30225 0.158691 5.47803 0.109863C5.57568 0.0854492 5.67578 0.0610352 5.77832 0.0366211C5.88086 0.012207 5.9834 0 6.08594 0C6.18848 0 6.29102 0.012207 6.39355 0.0366211C6.50098 0.0561523 6.60352 0.0805664 6.70117 0.109863C6.87207 0.168457 7.10889 0.251465 7.41162 0.358887C7.71436 0.466309 8.04883 0.585938 8.41504 0.717773C8.78125 0.849609 9.14502 0.983887 9.50635 1.12061C9.87256 1.25244 10.207 1.37695 10.5098 1.49414C10.8125 1.60645 11.0493 1.69922 11.2202 1.77246C11.5327 1.9043 11.7695 2.05322 11.9307 2.21924C12.0918 2.38525 12.1724 2.66113 12.1724 3.04688V8.6499C12.1724 9.31885 12.0747 9.90234 11.8794 10.4004C11.689 10.8936 11.3765 11.3525 10.9419 11.7773C10.5073 12.2021 9.93115 12.6392 9.21338 13.0884C8.50049 13.5425 7.62158 14.0625 6.57666 14.6484C6.48389 14.6973 6.39355 14.7339 6.30566 14.7583C6.21777 14.7827 6.14453 14.7949 6.08594 14.7949ZM6.08594 13.4692C6.14453 13.4692 6.20801 13.4546 6.27637 13.4253C6.34473 13.4009 6.43262 13.3569 6.54004 13.2935C7.38477 12.7808 8.09277 12.3389 8.66406 11.9678C9.24023 11.5967 9.69922 11.2451 10.041 10.9131C10.3877 10.5811 10.6343 10.2173 10.7808 9.82178C10.9321 9.42627 11.0078 8.94531 11.0078 8.37891V3.27393C11.0078 3.15186 10.9907 3.05908 10.9565 2.99561C10.9272 2.93213 10.8638 2.8833 10.7661 2.84912C10.5366 2.771 10.2729 2.68066 9.9751 2.57812C9.68213 2.4707 9.37207 2.3584 9.04492 2.24121C8.72266 2.12402 8.39795 2.00684 8.0708 1.88965C7.74854 1.76758 7.44092 1.65283 7.14795 1.54541C6.85498 1.43311 6.59863 1.33301 6.37891 1.24512C6.32031 1.2207 6.2666 1.20361 6.21777 1.19385C6.16895 1.18408 6.125 1.1792 6.08594 1.1792C6.04688 1.1792 6.00293 1.18408 5.9541 1.19385C5.90527 1.20361 5.85156 1.2207 5.79297 1.24512C5.57324 1.33301 5.31689 1.43066 5.02393 1.53809C4.73096 1.64551 4.4209 1.75781 4.09375 1.875C3.7666 1.9873 3.43945 2.10205 3.1123 2.21924C2.78516 2.33643 2.4751 2.44873 2.18213 2.55615C1.88916 2.66357 1.63281 2.76123 1.41309 2.84912C1.31055 2.88818 1.24219 2.93945 1.20801 3.00293C1.17871 3.06152 1.16406 3.15186 1.16406 3.27393V8.37891C1.16406 8.94531 1.23975 9.42627 1.39111 9.82178C1.54248 10.2173 1.78906 10.5835 2.13086 10.9204C2.47266 11.2524 2.9292 11.604 3.50049 11.9751C4.07666 12.3413 4.78711 12.7808 5.63184 13.2935C5.73926 13.3569 5.82715 13.4009 5.89551 13.4253C5.96387 13.4546 6.02734 13.4692 6.08594 13.4692ZM6.10059 2.6001C6.54492 2.6001 6.94531 2.70752 7.30176 2.92236C7.66309 3.13721 7.95117 3.42529 8.16602 3.78662C8.38086 4.14795 8.48828 4.54834 8.48828 4.98779C8.48828 5.50049 8.33203 5.95947 8.01953 6.36475C7.70703 6.77002 7.2627 7.0874 6.68652 7.31689L7.68994 8.32764C7.729 8.3667 7.74854 8.41309 7.74854 8.4668C7.75342 8.51562 7.73633 8.55713 7.69727 8.59131L6.68652 9.59473L7.42627 10.3271C7.46045 10.3662 7.47754 10.4126 7.47754 10.4663C7.47754 10.5151 7.46045 10.5566 7.42627 10.5908L6.23242 11.77C6.19336 11.814 6.14697 11.8335 6.09326 11.8286C6.03955 11.8237 5.99805 11.8042 5.96875 11.77L5.33887 11.1475C5.28027 11.0742 5.25098 10.9961 5.25098 10.9131V7.22168C4.77734 7.04102 4.40137 6.74805 4.12305 6.34277C3.84961 5.9375 3.71289 5.48584 3.71289 4.98779C3.71289 4.54346 3.82031 4.14062 4.03516 3.7793C4.25 3.41797 4.53809 3.13232 4.89941 2.92236C5.26074 2.70752 5.66113 2.6001 6.10059 2.6001ZM6.10059 4.92188C6.29102 4.92188 6.45215 4.85596 6.58398 4.72412C6.71582 4.5874 6.78174 4.42383 6.78174 4.2334C6.78174 4.04297 6.71582 3.88184 6.58398 3.75C6.45215 3.61816 6.29102 3.55225 6.10059 3.55225C5.91016 3.55225 5.74658 3.61816 5.60986 3.75C5.47803 3.88184 5.41211 4.04297 5.41211 4.2334C5.41211 4.42383 5.47803 4.5874 5.60986 4.72412C5.74658 4.85596 5.91016 4.92188 6.10059 4.92188Z" fill="white"/>
</svg>
