<svg width="12" height="15" viewBox="0 0 12 15" fill="none" xmlns="http://www.w3.org/2000/svg">
<path d="M5.99219 14.5605C5.93359 14.5605 5.86035 14.5483 5.77246 14.5239C5.68945 14.5044 5.60156 14.4702 5.50879 14.4214C4.48828 13.8403 3.62402 13.3276 2.91602 12.8833C2.21289 12.439 1.64648 12.0093 1.2168 11.5942C0.791992 11.1743 0.481934 10.7227 0.286621 10.2393C0.0961914 9.75098 0.000976562 9.17725 0.000976562 8.51807V2.99561C0.000976562 2.61963 0.081543 2.34863 0.242676 2.18262C0.403809 2.01172 0.635742 1.86523 0.938477 1.74316C1.10938 1.6748 1.34375 1.58447 1.6416 1.47217C1.93945 1.35498 2.2666 1.23047 2.62305 1.09863C2.98438 0.961914 3.34326 0.830078 3.69971 0.703125C4.06104 0.571289 4.39062 0.454102 4.68848 0.351562C4.98633 0.244141 5.2207 0.161133 5.3916 0.102539C5.48926 0.0732422 5.58691 0.0488281 5.68457 0.0292969C5.78711 0.00976562 5.88965 0 5.99219 0C6.09473 0 6.19727 0.00976562 6.2998 0.0292969C6.40234 0.0488281 6.50244 0.0732422 6.6001 0.102539C6.771 0.161133 7.00293 0.244141 7.2959 0.351562C7.59375 0.454102 7.9209 0.571289 8.27734 0.703125C8.63867 0.834961 8.99756 0.966797 9.354 1.09863C9.71533 1.23047 10.0449 1.35254 10.3428 1.46484C10.6406 1.57715 10.875 1.66992 11.0459 1.74316C11.3535 1.87012 11.5854 2.0166 11.7417 2.18262C11.9028 2.34863 11.9834 2.61963 11.9834 2.99561V8.51807C11.9834 9.17725 11.8906 9.75586 11.7051 10.2539C11.5195 10.7471 11.2144 11.2085 10.7896 11.6382C10.3696 12.0679 9.80566 12.5024 9.09766 12.9419C8.39453 13.3813 7.52051 13.8745 6.47559 14.4214C6.38281 14.4702 6.29248 14.5044 6.20459 14.5239C6.12158 14.5483 6.05078 14.5605 5.99219 14.5605ZM5.1792 10.5835C5.30615 10.5835 5.4209 10.5542 5.52344 10.4956C5.62598 10.437 5.71631 10.3491 5.79443 10.2319L9.23682 4.80469C9.28076 4.73145 9.32227 4.65332 9.36133 4.57031C9.40039 4.4873 9.41992 4.4043 9.41992 4.32129C9.41992 4.15039 9.35645 4.01611 9.22949 3.91846C9.10254 3.81592 8.96094 3.76465 8.80469 3.76465C8.58984 3.76465 8.41406 3.87695 8.27734 4.10156L5.1499 9.12598L3.66309 7.20703C3.57031 7.08496 3.47998 7.00195 3.39209 6.95801C3.30908 6.91406 3.21387 6.89209 3.10645 6.89209C2.94043 6.89209 2.80127 6.95312 2.68896 7.0752C2.57666 7.19238 2.52051 7.33398 2.52051 7.5C2.52051 7.58301 2.53516 7.66602 2.56445 7.74902C2.59863 7.82715 2.64258 7.90283 2.69629 7.97607L4.53467 10.2319C4.63232 10.3589 4.73242 10.4492 4.83496 10.5029C4.9375 10.5566 5.05225 10.5835 5.1792 10.5835Z" fill="#00A19A"/>
</svg>
