<svg width="17" height="21" viewBox="0 0 17 21" fill="none" xmlns="http://www.w3.org/2000/svg">
<path d="M11.8066 11.7773C11.9759 11.7773 12.1159 11.8359 12.2266 11.9531C12.3438 12.0638 12.4023 12.2038 12.4023 12.373C12.4023 12.5423 12.3438 12.6855 12.2266 12.8027C12.1159 12.9199 11.9759 12.9785 11.8066 12.9785H4.39453C4.21875 12.9785 4.07227 12.9199 3.95508 12.8027C3.83789 12.6855 3.7793 12.5423 3.7793 12.373C3.7793 12.2038 3.83789 12.0638 3.95508 11.9531C4.07227 11.8359 4.21875 11.7773 4.39453 11.7773H11.8066ZM11.8066 15.1855C11.9759 15.1855 12.1159 15.2441 12.2266 15.3613C12.3438 15.4785 12.4023 15.625 12.4023 15.8008C12.4023 15.9635 12.3438 16.1035 12.2266 16.2207C12.1159 16.3314 11.9759 16.3867 11.8066 16.3867H4.39453C4.21875 16.3867 4.07227 16.3314 3.95508 16.2207C3.83789 16.1035 3.7793 15.9635 3.7793 15.8008C3.7793 15.625 3.83789 15.4785 3.95508 15.3613C4.07227 15.2441 4.21875 15.1855 4.39453 15.1855H11.8066ZM3.02734 20.9375C2.01823 20.9375 1.25977 20.6836 0.751953 20.1758C0.250651 19.668 0 18.903 0 17.8809V3.06641C0 2.05078 0.250651 1.28581 0.751953 0.771484C1.25977 0.257161 2.01823 0 3.02734 0H7.66602C8.0306 0 8.34961 0.0260417 8.62305 0.078125C8.90299 0.123698 9.16016 0.214844 9.39453 0.351562C9.62891 0.481771 9.86979 0.673828 10.1172 0.927734L15.498 6.40625C15.7585 6.67318 15.9538 6.92708 16.084 7.16797C16.2207 7.40234 16.3118 7.66276 16.3574 7.94922C16.403 8.23568 16.4258 8.59049 16.4258 9.01367V17.8809C16.4258 18.8965 16.1719 19.6582 15.6641 20.166C15.1628 20.6803 14.4076 20.9375 13.3984 20.9375H3.02734ZM3.0957 19.3652H13.3203C13.8281 19.3652 14.209 19.235 14.4629 18.9746C14.7233 18.7142 14.8535 18.3398 14.8535 17.8516V9.08203H9.28711C8.67513 9.08203 8.21615 8.92904 7.91016 8.62305C7.60417 8.31706 7.45117 7.85807 7.45117 7.24609V1.57227H3.10547C2.59766 1.57227 2.21354 1.70573 1.95312 1.97266C1.69922 2.23958 1.57227 2.61393 1.57227 3.0957V17.8516C1.57227 18.3398 1.69922 18.7142 1.95312 18.9746C2.21354 19.235 2.5944 19.3652 3.0957 19.3652ZM9.46289 7.60742H14.5508L8.92578 1.875V7.06055C8.92578 7.25586 8.96484 7.39583 9.04297 7.48047C9.1276 7.5651 9.26758 7.60742 9.46289 7.60742Z" fill="#00A19A"/>
</svg>
