<svg width="17" height="17" viewBox="0 0 17 17" fill="none" xmlns="http://www.w3.org/2000/svg">
<path d="M3.88184 14.6777C3.22754 14.6777 2.74414 14.5215 2.43164 14.209C2.11914 13.8965 1.96289 13.4131 1.96289 12.7588V11.1768C1.96289 11.0303 1.91406 10.9058 1.81641 10.8032L0.695801 9.67529C0.231934 9.21631 0 8.76709 0 8.32764C0 7.88818 0.231934 7.43652 0.695801 6.97266L1.81641 5.84473C1.91406 5.74219 1.96289 5.62012 1.96289 5.47852V3.88916C1.96289 3.22998 2.11914 2.74658 2.43164 2.43896C2.74414 2.12646 3.22754 1.97021 3.88184 1.97021H5.47119C5.61768 1.97021 5.73975 1.92139 5.8374 1.82373L6.96533 0.703125C7.4292 0.239258 7.88086 0.00732422 8.32031 0.00732422C8.75977 0.00244141 9.20898 0.234375 9.66797 0.703125L10.7959 1.82373C10.8984 1.92139 11.0229 1.97021 11.1694 1.97021H12.7515C13.4106 1.97021 13.894 2.12891 14.2017 2.44629C14.5142 2.75879 14.6704 3.23975 14.6704 3.88916V5.47852C14.6704 5.62012 14.7217 5.74219 14.8242 5.84473L15.9448 6.97266C16.4038 7.43652 16.6333 7.88818 16.6333 8.32764C16.6382 8.76709 16.4087 9.21631 15.9448 9.67529L14.8242 10.8032C14.7217 10.9058 14.6704 11.0303 14.6704 11.1768V12.7588C14.6704 13.418 14.5142 13.9014 14.2017 14.209C13.8892 14.5215 13.4058 14.6777 12.7515 14.6777H11.1694C11.0229 14.6777 10.8984 14.729 10.7959 14.8315L9.66797 15.9521C9.20898 16.4111 8.75977 16.6406 8.32031 16.6406C7.88086 16.6455 7.4292 16.416 6.96533 15.9521L5.8374 14.8315C5.73975 14.729 5.61768 14.6777 5.47119 14.6777H3.88184ZM7.5 11.9019C7.62695 11.9019 7.7417 11.8726 7.84424 11.814C7.94678 11.7554 8.03711 11.6675 8.11523 11.5503L11.5576 6.12305C11.6016 6.0498 11.6431 5.97168 11.6821 5.88867C11.7212 5.80566 11.7407 5.72266 11.7407 5.63965C11.7407 5.46875 11.6772 5.33447 11.5503 5.23682C11.4233 5.13428 11.2817 5.08301 11.1255 5.08301C10.9106 5.08301 10.7349 5.19531 10.5981 5.41992L7.4707 10.4443L5.98389 8.52539C5.89111 8.40332 5.80078 8.32031 5.71289 8.27637C5.62988 8.23242 5.53467 8.21045 5.42725 8.21045C5.26123 8.21045 5.12207 8.27148 5.00977 8.39355C4.89746 8.51074 4.84131 8.65234 4.84131 8.81836C4.84131 8.90137 4.85596 8.98438 4.88525 9.06738C4.91943 9.14551 4.96338 9.22119 5.01709 9.29443L6.85547 11.5503C6.95312 11.6772 7.05322 11.7676 7.15576 11.8213C7.2583 11.875 7.37305 11.9019 7.5 11.9019Z" fill="#00A19A"/>
</svg>
