<svg width="19" height="23" viewBox="0 0 19 23" fill="none" xmlns="http://www.w3.org/2000/svg">
<g style="mix-blend-mode:plus-darker">
<path d="M4.42468 22.5283C3.00248 22.5283 1.90955 22.1465 1.14587 21.3828C0.382202 20.6191 0.000366211 19.5262 0.000366211 18.104V9.91113C0.000366211 8.48893 0.382202 7.396 1.14587 6.63232C1.90955 5.86865 3.00248 5.48682 4.42468 5.48682H14.3524C15.7746 5.48682 16.8676 5.86865 17.6312 6.63232C18.3949 7.396 18.7767 8.48893 18.7767 9.91113V18.104C18.7767 19.5262 18.3949 20.6191 17.6312 21.3828C16.8676 22.1465 15.7746 22.5283 14.3524 22.5283H4.42468ZM9.39685 0C9.19763 0 9.02608 0.0719401 8.8822 0.21582C8.73832 0.354167 8.66638 0.520182 8.66638 0.713867V11.8535L8.72449 13.4307L8.06042 12.7417L6.25916 10.8491C6.12634 10.6997 5.95756 10.625 5.75281 10.625C5.55912 10.625 5.39864 10.6886 5.27136 10.8159C5.14962 10.9377 5.08875 11.0898 5.08875 11.2725C5.08875 11.3721 5.10811 11.4606 5.14685 11.5381C5.18559 11.6156 5.24093 11.6875 5.31287 11.7539L8.8656 15.2153C8.95414 15.3039 9.03992 15.3675 9.12292 15.4062C9.21147 15.4395 9.30278 15.4561 9.39685 15.4561C9.48539 15.4561 9.57117 15.4395 9.65417 15.4062C9.74272 15.3675 9.83126 15.3039 9.9198 15.2153L13.4725 11.7539C13.5445 11.6875 13.597 11.6156 13.6302 11.5381C13.669 11.4606 13.6884 11.3721 13.6884 11.2725C13.6884 11.0898 13.6247 10.9377 13.4974 10.8159C13.3702 10.6886 13.2124 10.625 13.0243 10.625C12.8251 10.625 12.6591 10.6997 12.5262 10.8491L10.7167 12.7417L10.0692 13.4224L10.119 11.8535V0.713867C10.119 0.520182 10.0471 0.354167 9.9032 0.21582C9.75932 0.0719401 9.59054 0 9.39685 0Z" fill="#00A19A"/>
</g>
</svg>
