<svg width="20" height="20" viewBox="0 0 20 20" fill="none" xmlns="http://www.w3.org/2000/svg">
<g style="mix-blend-mode:plus-darker">
<path d="M3.22888 19.5151C2.16085 19.5151 1.35567 19.2467 0.813354 18.71C0.271037 18.1787 -0.00012207 17.3818 -0.00012207 16.3193V3.2041C-0.00012207 2.1416 0.271037 1.34196 0.813354 0.805176C1.35567 0.268392 2.16085 0 3.22888 0H16.2777C17.3568 0 18.1648 0.271159 18.7015 0.813477C19.2439 1.35026 19.515 2.14714 19.515 3.2041V16.3193C19.515 17.3763 19.2439 18.1732 18.7015 18.71C18.1648 19.2467 17.3568 19.5151 16.2777 19.5151H3.22888ZM4.83093 2.86377C4.38822 2.86377 4.02022 3.01872 3.72693 3.32861C3.43363 3.63851 3.28699 4.02588 3.28699 4.49072C3.28699 4.85596 3.37 5.20736 3.53601 5.54492C3.70756 5.87695 3.92615 6.19238 4.19177 6.49121C4.46293 6.78451 4.74792 7.0529 5.04675 7.29639C5.35111 7.53434 5.63334 7.7391 5.89343 7.91064C5.9377 7.93831 5.98197 7.96322 6.02625 7.98535C6.07052 8.00749 6.10925 8.01855 6.14246 8.01855C6.17566 8.01855 6.21163 8.00749 6.25037 7.98535C6.29464 7.96322 6.33891 7.93831 6.38318 7.91064C6.6488 7.75016 6.93103 7.55094 7.22986 7.31299C7.52869 7.0695 7.81091 6.79834 8.07654 6.49951C8.34216 6.20068 8.55798 5.88249 8.724 5.54492C8.89555 5.20736 8.98132 4.85596 8.98132 4.49072C8.98132 4.02588 8.83191 3.63851 8.53308 3.32861C8.23979 3.01872 7.86625 2.86377 7.41248 2.86377C7.13578 2.86377 6.88399 2.94124 6.6571 3.09619C6.43575 3.25114 6.26143 3.45036 6.13416 3.69385C6.00134 3.45036 5.82426 3.25114 5.60291 3.09619C5.38155 2.94124 5.12423 2.86377 4.83093 2.86377ZM3.87634 12.6338H14.7089C14.8749 12.6338 15.0132 12.5785 15.1239 12.4678C15.2346 12.3571 15.2899 12.2188 15.2899 12.0527C15.2899 11.8923 15.2346 11.7594 15.1239 11.6543C15.0132 11.5436 14.8749 11.4883 14.7089 11.4883H3.87634C3.70479 11.4883 3.56368 11.5436 3.453 11.6543C3.34233 11.7594 3.28699 11.8923 3.28699 12.0527C3.28699 12.2188 3.34233 12.3571 3.453 12.4678C3.56368 12.5785 3.70479 12.6338 3.87634 12.6338ZM3.87634 16.2446H11.7953C11.9613 16.2446 12.0997 16.1893 12.2103 16.0786C12.321 15.9679 12.3763 15.8351 12.3763 15.6802C12.3763 15.5142 12.321 15.3758 12.2103 15.2651C12.0997 15.1489 11.9613 15.0908 11.7953 15.0908H3.87634C3.70479 15.0908 3.56368 15.1489 3.453 15.2651C3.34233 15.3758 3.28699 15.5142 3.28699 15.6802C3.28699 15.8351 3.34233 15.9679 3.453 16.0786C3.56368 16.1893 3.70479 16.2446 3.87634 16.2446Z" fill="#00A19A"/>
</g>
</svg>
