<svg width="15" height="23" viewBox="0 0 15 23" fill="none" xmlns="http://www.w3.org/2000/svg">
<g style="mix-blend-mode:plus-darker">
<path d="M1.02917 22.6611C0.708207 22.6611 0.456417 22.556 0.2738 22.3457C0.0911827 22.1354 -0.000125885 21.8449 -0.000125885 21.4741V2.93848C-0.000125885 1.96452 0.243364 1.23128 0.730343 0.73877C1.22286 0.246257 1.95056 0 2.91345 0H11.2308C12.1937 0 12.9187 0.246257 13.4056 0.73877C13.8981 1.23128 14.1444 1.96452 14.1444 2.93848V21.4741C14.1444 21.8449 14.0531 22.1354 13.8705 22.3457C13.6879 22.556 13.4361 22.6611 13.1151 22.6611C12.8827 22.6611 12.6669 22.5837 12.4676 22.4287C12.2684 22.2793 11.9668 22.0081 11.5629 21.6152L7.16345 17.2241C7.10258 17.1577 7.0417 17.1577 6.98083 17.2241L2.58142 21.6152C2.17745 22.0081 1.87308 22.2793 1.66833 22.4287C1.46911 22.5837 1.25606 22.6611 1.02917 22.6611Z" fill="#00A19A"/>
</g>
</svg>
