<svg width="21" height="24" viewBox="0 0 21 24" fill="none" xmlns="http://www.w3.org/2000/svg">
<g style="mix-blend-mode:plus-darker">
<path d="M5.13025 0C5.83305 0 6.49158 0.132812 7.10583 0.398438C7.72563 0.664062 8.26794 1.03206 8.73279 1.50244C9.20317 1.96729 9.57117 2.5096 9.83679 3.12939C10.1024 3.74365 10.2352 4.40495 10.2352 5.11328C10.2352 5.17415 10.2352 5.22673 10.2352 5.271C10.2352 5.31527 10.2325 5.354 10.2269 5.38721C10.2159 5.55322 10.1467 5.68604 10.0194 5.78564C9.89766 5.87972 9.75932 5.92676 9.60437 5.92676C9.46049 5.92676 9.32768 5.87972 9.20593 5.78564C9.08419 5.68604 9.02055 5.53385 9.01501 5.3291C9.01501 5.2793 9.01501 5.24056 9.01501 5.21289C9.01501 5.17969 9.01501 5.14648 9.01501 5.11328C9.01501 4.39388 8.8407 3.74089 8.49207 3.1543C8.14343 2.56217 7.67306 2.0918 7.08093 1.74316C6.49434 1.39453 5.84412 1.22021 5.13025 1.22021C4.40531 1.22021 3.74679 1.39453 3.15466 1.74316C2.56807 2.0918 2.0977 2.56217 1.74353 3.1543C1.3949 3.74089 1.22058 4.39388 1.22058 5.11328C1.22058 5.58919 1.29806 6.0402 1.453 6.46631C1.61348 6.89242 1.83761 7.27425 2.12537 7.61182C2.25264 7.76676 2.30522 7.92171 2.28308 8.07666C2.26095 8.22607 2.18901 8.35335 2.06726 8.4585C1.95105 8.55811 1.81824 8.60791 1.66882 8.60791C1.57475 8.60791 1.48067 8.58854 1.3866 8.5498C1.29806 8.50553 1.21505 8.43636 1.13757 8.34229C0.777873 7.89404 0.498413 7.396 0.299194 6.84814C0.0999756 6.29476 0.000366211 5.71647 0.000366211 5.11328C0.000366211 4.40495 0.133179 3.74365 0.398804 3.12939C0.664429 2.5096 1.03243 1.96729 1.50281 1.50244C1.97319 1.03206 2.51827 0.664062 3.13806 0.398438C3.75785 0.132812 4.42192 0 5.13025 0ZM15.2904 22.6196C14.2445 23.0015 13.1931 23.1592 12.1361 23.0928C11.0847 23.0264 10.0526 22.7054 9.03992 22.1299C8.03276 21.5599 7.0754 20.7021 6.16785 19.5566L2.73962 15.2319C2.67875 15.1545 2.62065 15.0742 2.56531 14.9912C2.50997 14.9027 2.46016 14.8031 2.41589 14.6924C2.31628 14.4046 2.32735 14.1224 2.4491 13.8457C2.57084 13.569 2.80603 13.367 3.15466 13.2397C3.37048 13.1623 3.58354 13.1512 3.79382 13.2065C4.00411 13.2563 4.21163 13.3919 4.41638 13.6133L7.14734 16.5186C7.25248 16.6292 7.34932 16.6984 7.43787 16.7261C7.52641 16.7537 7.60942 16.7537 7.68689 16.7261C7.77543 16.6984 7.84184 16.6375 7.88611 16.5435C7.93591 16.4494 7.93591 16.3359 7.88611 16.2031L3.93494 5.354C3.80212 4.98324 3.79936 4.64844 3.92664 4.34961C4.05945 4.05078 4.29187 3.84049 4.6239 3.71875C4.93933 3.60254 5.24093 3.61637 5.52869 3.76025C5.82198 3.90413 6.0378 4.16423 6.17615 4.54053L8.91541 12.061C8.98181 12.2437 9.07312 12.3654 9.18933 12.4263C9.30554 12.4871 9.42175 12.4954 9.53796 12.4512C9.64311 12.4124 9.71781 12.335 9.76208 12.2188C9.81189 12.097 9.80636 11.9448 9.74548 11.7622L8.8988 9.43799C8.83793 9.27197 8.8407 9.12809 8.9071 9.00635C8.97904 8.87907 9.11186 8.77946 9.30554 8.70752C9.74272 8.55257 10.1605 8.56087 10.559 8.73242C10.9629 8.90397 11.2728 9.28027 11.4886 9.86133L11.8871 10.9819C11.9535 11.1646 12.0448 11.2863 12.161 11.3472C12.2772 11.408 12.3934 11.4163 12.5096 11.3721C12.6203 11.3278 12.6978 11.2476 12.7421 11.1313C12.7919 11.0096 12.7836 10.8574 12.7172 10.6748L12.2772 9.47119C12.1555 9.12809 12.2911 8.88737 12.684 8.74902C13.1322 8.58301 13.5611 8.60238 13.9706 8.80713C14.3856 9.01188 14.6872 9.37435 14.8754 9.89453L15.0912 10.4922C15.1631 10.6748 15.2544 10.7965 15.3651 10.8574C15.4813 10.9183 15.5975 10.9266 15.7137 10.8823C15.8244 10.8436 15.9019 10.7661 15.9462 10.6499C15.996 10.5282 15.9904 10.376 15.9296 10.1934L15.5975 9.29688C15.5201 9.08105 15.592 8.93441 15.8134 8.85693C16.1343 8.74072 16.4747 8.74626 16.8344 8.87354C17.1941 9.00081 17.5344 9.2443 17.8553 9.604C18.1763 9.9637 18.4447 10.4368 18.6605 11.0234L19.3329 12.8662C19.9029 14.4323 20.127 15.8545 20.0052 17.1328C19.8835 18.4111 19.427 19.5124 18.6356 20.4365C17.8443 21.3662 16.7292 22.0939 15.2904 22.6196Z" fill="#00A19A"/>
</g>
</svg>
