<svg width="11" height="17" viewBox="0 0 11 17" fill="none" xmlns="http://www.w3.org/2000/svg">
<path d="M3.47168 16.0986C3.35449 16.2549 3.22266 16.3501 3.07617 16.3843C2.93457 16.4185 2.80518 16.4038 2.68799 16.3403C2.5708 16.2817 2.48779 16.1841 2.43896 16.0474C2.39502 15.9106 2.40967 15.7471 2.48291 15.5566L4.66553 9.86572H0.527344C0.371094 9.86572 0.244141 9.81934 0.146484 9.72656C0.0488281 9.62891 0 9.50928 0 9.36768C0 9.21631 0.0634766 9.06006 0.19043 8.89893L6.84814 0.344238C6.96533 0.187988 7.09473 0.0927734 7.23633 0.0585938C7.38281 0.0195313 7.51465 0.0317383 7.63184 0.0952148C7.74902 0.153809 7.82959 0.253906 7.87354 0.395508C7.92236 0.532227 7.91016 0.693359 7.83691 0.878906L5.6543 6.57715H9.79248C9.94873 6.57715 10.0757 6.62354 10.1733 6.71631C10.271 6.80908 10.3198 6.92627 10.3198 7.06787C10.3198 7.21924 10.2563 7.37549 10.1294 7.53662L3.47168 16.0986ZM3.90381 14.1284L3.69873 14.0186L8.48145 7.66846H3.9624L6.40869 2.31445L6.61377 2.42432L1.83105 8.77441H6.35742L3.90381 14.1284Z" fill="#00A19A"/>
</svg>
