<svg width="14" height="14" viewBox="0 0 14 14" fill="none" xmlns="http://www.w3.org/2000/svg">
<path d="M0.629883 5.354C0.458984 5.354 0.310059 5.29297 0.183105 5.1709C0.0610352 5.04395 0 4.89502 0 4.72412C0 4.54834 0.0610352 4.39941 0.183105 4.27734C0.310059 4.15527 0.458984 4.09424 0.629883 4.09424C0.800781 4.09424 0.947266 4.15527 1.06934 4.27734C1.19629 4.39941 1.25977 4.54834 1.25977 4.72412C1.25977 4.89502 1.19629 5.04395 1.06934 5.1709C0.947266 5.29297 0.800781 5.354 0.629883 5.354ZM0.629883 3.30322C0.458984 3.30322 0.310059 3.24219 0.183105 3.12012C0.0610352 2.99805 0 2.84912 0 2.67334C0 2.50244 0.0610352 2.35596 0.183105 2.23389C0.310059 2.10693 0.458984 2.04346 0.629883 2.04346C0.800781 2.04346 0.947266 2.10693 1.06934 2.23389C1.19629 2.35596 1.25977 2.50244 1.25977 2.67334C1.25977 2.84912 1.19629 2.99805 1.06934 3.12012C0.947266 3.24219 0.800781 3.30322 0.629883 3.30322ZM0.629883 1.25977C0.458984 1.25977 0.310059 1.19873 0.183105 1.07666C0.0610352 0.949707 0 0.800781 0 0.629883C0 0.458984 0.0610352 0.3125 0.183105 0.19043C0.310059 0.0634766 0.458984 0 0.629883 0C0.800781 0 0.947266 0.0634766 1.06934 0.19043C1.19629 0.3125 1.25977 0.458984 1.25977 0.629883C1.25977 0.800781 1.19629 0.949707 1.06934 1.07666C0.947266 1.19873 0.800781 1.25977 0.629883 1.25977ZM2.68066 1.25977C2.50488 1.25977 2.35596 1.19873 2.23389 1.07666C2.11182 0.949707 2.05078 0.800781 2.05078 0.629883C2.05078 0.458984 2.11182 0.3125 2.23389 0.19043C2.35596 0.0634766 2.50488 0 2.68066 0C2.85156 0 2.99805 0.0634766 3.12012 0.19043C3.24707 0.3125 3.31055 0.458984 3.31055 0.629883C3.31055 0.800781 3.24707 0.949707 3.12012 1.07666C2.99805 1.19873 2.85156 1.25977 2.68066 1.25977ZM4.72412 1.25977C4.55322 1.25977 4.4043 1.19873 4.27734 1.07666C4.15527 0.949707 4.09424 0.800781 4.09424 0.629883C4.09424 0.458984 4.15527 0.3125 4.27734 0.19043C4.4043 0.0634766 4.55322 0 4.72412 0C4.89502 0 5.0415 0.0634766 5.16357 0.19043C5.29053 0.3125 5.354 0.458984 5.354 0.629883C5.354 0.800781 5.29053 0.949707 5.16357 1.07666C5.0415 1.19873 4.89502 1.25977 4.72412 1.25977ZM6.7749 1.25977C6.59912 1.25977 6.4502 1.19873 6.32812 1.07666C6.20605 0.949707 6.14502 0.800781 6.14502 0.629883C6.14502 0.458984 6.20605 0.3125 6.32812 0.19043C6.4502 0.0634766 6.59912 0 6.7749 0C6.9458 0 7.09229 0.0634766 7.21436 0.19043C7.34131 0.3125 7.40479 0.458984 7.40479 0.629883C7.40479 0.800781 7.34131 0.949707 7.21436 1.07666C7.09229 1.19873 6.9458 1.25977 6.7749 1.25977ZM8.81836 1.25977C8.64746 1.25977 8.49854 1.19873 8.37158 1.07666C8.24951 0.949707 8.18848 0.800781 8.18848 0.629883C8.18848 0.458984 8.24951 0.3125 8.37158 0.19043C8.49854 0.0634766 8.64746 0 8.81836 0C8.99414 0 9.14307 0.0634766 9.26514 0.19043C9.38721 0.3125 9.44824 0.458984 9.44824 0.629883C9.44824 0.800781 9.38721 0.949707 9.26514 1.07666C9.14307 1.19873 8.99414 1.25977 8.81836 1.25977ZM10.8691 1.25977C10.6934 1.25977 10.5444 1.19873 10.4224 1.07666C10.3003 0.949707 10.2393 0.800781 10.2393 0.629883C10.2393 0.458984 10.3003 0.3125 10.4224 0.19043C10.5444 0.0634766 10.6934 0 10.8691 0C11.04 0 11.1865 0.0634766 11.3086 0.19043C11.4355 0.3125 11.499 0.458984 11.499 0.629883C11.499 0.800781 11.4355 0.949707 11.3086 1.07666C11.1865 1.19873 11.04 1.25977 10.8691 1.25977ZM12.9126 1.25977C12.7417 1.25977 12.5928 1.19873 12.4658 1.07666C12.3438 0.949707 12.2827 0.800781 12.2827 0.629883C12.2827 0.458984 12.3438 0.3125 12.4658 0.19043C12.5928 0.0634766 12.7417 0 12.9126 0C13.0835 0 13.23 0.0634766 13.3521 0.19043C13.479 0.3125 13.5425 0.458984 13.5425 0.629883C13.5425 0.800781 13.479 0.949707 13.3521 1.07666C13.23 1.19873 13.0835 1.25977 12.9126 1.25977ZM12.9126 3.30322C12.7417 3.30322 12.5928 3.24219 12.4658 3.12012C12.3438 2.99805 12.2827 2.84912 12.2827 2.67334C12.2827 2.50244 12.3438 2.35596 12.4658 2.23389C12.5928 2.10693 12.7417 2.04346 12.9126 2.04346C13.0835 2.04346 13.23 2.10693 13.3521 2.23389C13.479 2.35596 13.5425 2.50244 13.5425 2.67334C13.5425 2.84912 13.479 2.99805 13.3521 3.12012C13.23 3.24219 13.0835 3.30322 12.9126 3.30322ZM12.9126 5.354C12.7417 5.354 12.5928 5.29297 12.4658 5.1709C12.3438 5.04395 12.2827 4.89502 12.2827 4.72412C12.2827 4.54834 12.3438 4.39941 12.4658 4.27734C12.5928 4.15527 12.7417 4.09424 12.9126 4.09424C13.0835 4.09424 13.23 4.15527 13.3521 4.27734C13.479 4.39941 13.5425 4.54834 13.5425 4.72412C13.5425 4.89502 13.479 5.04395 13.3521 5.1709C13.23 5.29297 13.0835 5.354 12.9126 5.354ZM12.9126 7.39746C12.7417 7.39746 12.5928 7.33643 12.4658 7.21436C12.3438 7.09229 12.2827 6.94336 12.2827 6.76758C12.2827 6.59668 12.3438 6.4502 12.4658 6.32812C12.5928 6.20117 12.7417 6.1377 12.9126 6.1377C13.0835 6.1377 13.23 6.20117 13.3521 6.32812C13.479 6.4502 13.5425 6.59668 13.5425 6.76758C13.5425 6.94336 13.479 7.09229 13.3521 7.21436C13.23 7.33643 13.0835 7.39746 12.9126 7.39746ZM12.9126 9.44824C12.7417 9.44824 12.5928 9.38721 12.4658 9.26514C12.3438 9.13818 12.2827 8.98926 12.2827 8.81836C12.2827 8.64746 12.3438 8.50098 12.4658 8.37891C12.5928 8.25195 12.7417 8.18848 12.9126 8.18848C13.0835 8.18848 13.23 8.25195 13.3521 8.37891C13.479 8.50098 13.5425 8.64746 13.5425 8.81836C13.5425 8.98926 13.479 9.13818 13.3521 9.26514C13.23 9.38721 13.0835 9.44824 12.9126 9.44824ZM12.9126 11.4917C12.7417 11.4917 12.5928 11.4307 12.4658 11.3086C12.3438 11.1865 12.2827 11.0376 12.2827 10.8618C12.2827 10.6909 12.3438 10.5444 12.4658 10.4224C12.5928 10.2954 12.7417 10.2319 12.9126 10.2319C13.0835 10.2319 13.23 10.2954 13.3521 10.4224C13.479 10.5444 13.5425 10.6909 13.5425 10.8618C13.5425 11.0376 13.479 11.1865 13.3521 11.3086C13.23 11.4307 13.0835 11.4917 12.9126 11.4917ZM12.9126 13.5425C12.7417 13.5425 12.5928 13.479 12.4658 13.3521C12.3438 13.23 12.2827 13.0835 12.2827 12.9126C12.2827 12.7417 12.3438 12.5928 12.4658 12.4658C12.5928 12.3438 12.7417 12.2827 12.9126 12.2827C13.0835 12.2827 13.23 12.3438 13.3521 12.4658C13.479 12.5928 13.5425 12.7417 13.5425 12.9126C13.5425 13.0835 13.479 13.23 13.3521 13.3521C13.23 13.479 13.0835 13.5425 12.9126 13.5425ZM10.8691 13.5425C10.6934 13.5425 10.5444 13.479 10.4224 13.3521C10.3003 13.23 10.2393 13.0835 10.2393 12.9126C10.2393 12.7417 10.3003 12.5928 10.4224 12.4658C10.5444 12.3438 10.6934 12.2827 10.8691 12.2827C11.04 12.2827 11.1865 12.3438 11.3086 12.4658C11.4355 12.5928 11.499 12.7417 11.499 12.9126C11.499 13.0835 11.4355 13.23 11.3086 13.3521C11.1865 13.479 11.04 13.5425 10.8691 13.5425ZM8.81836 13.5425C8.64746 13.5425 8.49854 13.479 8.37158 13.3521C8.24951 13.23 8.18848 13.0835 8.18848 12.9126C8.18848 12.7417 8.24951 12.5928 8.37158 12.4658C8.49854 12.3438 8.64746 12.2827 8.81836 12.2827C8.98926 12.2827 9.13574 12.3438 9.25781 12.4658C9.38477 12.5928 9.44824 12.7417 9.44824 12.9126C9.44824 13.0835 9.38477 13.23 9.25781 13.3521C9.13574 13.479 8.98926 13.5425 8.81836 13.5425ZM5.70557 7.74902C5.62256 7.66113 5.58105 7.55859 5.58105 7.44141C5.58105 7.31934 5.62256 7.21436 5.70557 7.12646L8.35693 4.52637L7.69775 3.85986C7.58057 3.74268 7.54639 3.61572 7.59521 3.479C7.64404 3.34229 7.75391 3.25684 7.9248 3.22266L10.2832 2.73193C10.4346 2.69775 10.564 2.73193 10.6714 2.83447C10.7837 2.93213 10.8228 3.05908 10.7886 3.21533L10.2832 5.58105C10.249 5.74707 10.1587 5.85693 10.0122 5.91064C9.87061 5.95947 9.74365 5.92773 9.63135 5.81543L8.97949 5.14893L6.33545 7.74902C6.24756 7.83691 6.14258 7.8833 6.02051 7.88818C5.89844 7.88818 5.79346 7.8418 5.70557 7.74902ZM0.585938 13.5132C0.410156 13.5132 0.268555 13.4595 0.161133 13.3521C0.0537109 13.2495 0 13.1104 0 12.9346V6.70166C0 6.52588 0.0537109 6.38672 0.161133 6.28418C0.268555 6.17676 0.410156 6.12305 0.585938 6.12305H5.51514L5.10498 6.52588C5.01221 6.61865 4.93652 6.72119 4.87793 6.8335C4.82422 6.94092 4.78516 7.05322 4.76074 7.17041H1.25977C1.11816 7.17041 1.04736 7.24121 1.04736 7.38281V12.2534C1.04736 12.395 1.11816 12.4658 1.25977 12.4658H6.1377C6.2793 12.4658 6.3501 12.395 6.3501 12.2534V8.69385C6.45752 8.66455 6.56006 8.62305 6.65771 8.56934C6.75537 8.51074 6.8457 8.43994 6.92871 8.35693L7.39746 7.89551V12.9346C7.39746 13.1104 7.34375 13.2495 7.23633 13.3521C7.13379 13.4595 6.99463 13.5132 6.81885 13.5132H0.585938Z" fill="#00A19A"/>
</svg>
