<svg width="10" height="13" viewBox="0 0 10 13" fill="none" xmlns="http://www.w3.org/2000/svg">
<path d="M1.98193 3.59326C2.76969 3.54313 3.49121 3.46615 4.14648 3.3623C4.80534 3.25488 5.45703 3.12956 6.10156 2.98633C6.23047 2.96126 6.31462 2.91829 6.354 2.85742C6.39697 2.79655 6.41846 2.72673 6.41846 2.64795C6.41846 2.56201 6.38623 2.4904 6.32178 2.43311C6.25732 2.37223 6.16423 2.35433 6.04248 2.37939C5.4266 2.51546 4.79281 2.63542 4.14111 2.73926C3.48942 2.8431 2.76969 2.92008 1.98193 2.97021C1.87093 2.97738 1.79036 3.01139 1.74023 3.07227C1.6901 3.13314 1.66504 3.20654 1.66504 3.29248C1.66504 3.37842 1.69368 3.45182 1.75098 3.5127C1.81185 3.57357 1.88883 3.60042 1.98193 3.59326ZM1.98193 5.37646C2.76969 5.32633 3.49121 5.24935 4.14648 5.14551C4.80534 5.03809 5.45703 4.91276 6.10156 4.76953C6.23047 4.74089 6.31462 4.69792 6.354 4.64062C6.39697 4.57975 6.41846 4.50993 6.41846 4.43115C6.41846 4.34521 6.38623 4.27181 6.32178 4.21094C6.25732 4.15007 6.16423 4.13216 6.04248 4.15723C5.4266 4.29688 4.79281 4.41862 4.14111 4.52246C3.48942 4.6263 2.76969 4.70329 1.98193 4.75342C1.87093 4.76058 1.79036 4.7946 1.74023 4.85547C1.6901 4.91634 1.66504 4.98796 1.66504 5.07031C1.66504 5.15983 1.69368 5.23503 1.75098 5.2959C1.81185 5.35319 1.88883 5.38005 1.98193 5.37646ZM1.98193 7.15967C2.76969 7.10596 3.49121 7.02718 4.14648 6.92334C4.80534 6.8195 5.45703 6.69596 6.10156 6.55273C6.23047 6.52409 6.31462 6.47933 6.354 6.41846C6.39697 6.35758 6.41846 6.28955 6.41846 6.21436C6.41846 6.12842 6.38623 6.05501 6.32178 5.99414C6.25732 5.93327 6.16423 5.91536 6.04248 5.94043C5.4266 6.0765 4.79281 6.19645 4.14111 6.30029C3.48942 6.40413 2.76969 6.48291 1.98193 6.53662C1.87093 6.54378 1.79036 6.5778 1.74023 6.63867C1.6901 6.69954 1.66504 6.77116 1.66504 6.85352C1.66504 6.94303 1.69368 7.01823 1.75098 7.0791C1.81185 7.13639 1.88883 7.16325 1.98193 7.15967ZM1.98193 8.9375C2.43669 8.90885 2.82699 8.87484 3.15283 8.83545C3.48226 8.79248 3.79736 8.74772 4.09814 8.70117C4.19124 8.68327 4.26107 8.64388 4.30762 8.58301C4.35417 8.51855 4.37744 8.45052 4.37744 8.37891C4.37744 8.29297 4.34521 8.21956 4.28076 8.15869C4.21631 8.09424 4.12142 8.07275 3.99609 8.09424C3.73112 8.13721 3.44108 8.17839 3.12598 8.21777C2.81087 8.25358 2.42952 8.28402 1.98193 8.30908C1.87093 8.31982 1.79036 8.35563 1.74023 8.4165C1.6901 8.4738 1.66504 8.54541 1.66504 8.63135C1.66504 8.72087 1.69368 8.79606 1.75098 8.85693C1.81185 8.91423 1.88883 8.94108 1.98193 8.9375ZM0 10.4199V2.42236C0 1.93538 0.130697 1.56657 0.39209 1.31592C0.657064 1.06527 1.00798 0.927409 1.44482 0.902344C2.08936 0.862956 2.69987 0.809245 3.27637 0.741211C3.85286 0.669596 4.4043 0.58724 4.93066 0.494141C5.46061 0.401042 5.97624 0.297201 6.47754 0.182617C6.99316 0.0608724 7.38883 0.121745 7.66455 0.365234C7.94027 0.608724 8.07812 0.997233 8.07812 1.53076V9.39404C8.07812 9.86312 7.99756 10.2122 7.83643 10.4414C7.67529 10.6742 7.40316 10.8442 7.02002 10.9517C6.33968 11.1379 5.69873 11.2847 5.09717 11.3921C4.49561 11.5031 3.90837 11.5872 3.33545 11.6445C2.76253 11.7018 2.17529 11.7466 1.57373 11.7788C1.07601 11.8075 0.68929 11.7036 0.413574 11.4673C0.137858 11.2345 0 10.8854 0 10.4199ZM4.2915 12.2676C4.74268 12.1995 5.21175 12.1154 5.69873 12.0151C6.18571 11.9149 6.69417 11.7949 7.22412 11.6553C7.58577 11.5514 7.88298 11.4028 8.11572 11.2095C8.35205 11.0161 8.52751 10.769 8.64209 10.4683C8.75667 10.1711 8.81396 9.81299 8.81396 9.39404V1.53076C8.81396 1.4484 8.81038 1.36963 8.80322 1.29443C8.79964 1.21924 8.79427 1.14583 8.78711 1.07422C9.09147 1.16374 9.32064 1.3374 9.47461 1.59521C9.63216 1.84945 9.71094 2.18424 9.71094 2.59961V10.5864C9.71094 11.1486 9.57308 11.5693 9.29736 11.8486C9.02165 12.1279 8.60628 12.2676 8.05127 12.2676H4.2915Z" fill="white"/>
</svg>
