<svg width="14" height="20" viewBox="0 0 14 20" fill="none" xmlns="http://www.w3.org/2000/svg">
<path d="M2.63672 17.0728C2.10938 17.0728 1.64795 16.958 1.25244 16.7285C0.856934 16.499 0.549316 16.1768 0.32959 15.7617C0.109863 15.3467 0 14.8608 0 14.3042V10.5176C0 9.62891 0.0463867 8.75 0.13916 7.88086C0.236816 7.00684 0.366211 6.22803 0.527344 5.54443C0.717773 4.70947 1.0791 4.03809 1.61133 3.53027C2.14844 3.01758 2.80273 2.71973 3.57422 2.63672C3.76465 2.61719 4.12109 2.59033 4.64355 2.55615C5.1709 2.51709 5.82275 2.49756 6.59912 2.49756C7.06299 2.49756 7.5 2.50732 7.91016 2.52686C8.3252 2.54639 8.68408 2.56836 8.98682 2.59277C9.28955 2.6123 9.50439 2.62695 9.63135 2.63672C10.4028 2.71973 11.0547 3.01758 11.5869 3.53027C12.124 4.03809 12.4878 4.70947 12.6782 5.54443C12.8394 6.22803 12.9663 7.01904 13.0591 7.91748C13.1567 8.81592 13.2056 9.71191 13.2056 10.6055V14.3042C13.2056 14.8608 13.0957 15.3467 12.876 15.7617C12.6562 16.1768 12.3486 16.499 11.9531 16.7285C11.5576 16.958 11.0938 17.0728 10.5615 17.0728H2.63672ZM2.81982 16.1133H10.3784C10.9985 16.1133 11.4648 15.9473 11.7773 15.6152C12.0898 15.2881 12.2461 14.8511 12.2461 14.3042V10.6055C12.2461 9.74121 12.2021 8.88184 12.1143 8.02734C12.0264 7.16797 11.9043 6.41357 11.748 5.76416C11.5967 5.12939 11.3281 4.62402 10.9424 4.24805C10.5615 3.87207 10.0928 3.65479 9.53613 3.59619C9.35547 3.58154 8.98926 3.55469 8.4375 3.51562C7.88574 3.47656 7.27295 3.45703 6.59912 3.45703C5.8374 3.45703 5.20264 3.47656 4.69482 3.51562C4.19189 3.55469 3.8501 3.58154 3.66943 3.59619C3.11279 3.65479 2.6416 3.87207 2.25586 4.24805C1.875 4.62402 1.60889 5.12939 1.45752 5.76416C1.30127 6.41846 1.1792 7.16064 1.09131 7.99072C1.00342 8.81592 0.959473 9.6582 0.959473 10.5176V14.3042C0.959473 14.8511 1.11572 15.2881 1.42822 15.6152C1.74072 15.9473 2.20459 16.1133 2.81982 16.1133ZM6.59912 11.9824C5.68115 11.9775 4.87793 11.958 4.18945 11.9238C3.50098 11.8896 2.95898 11.8481 2.56348 11.7993C2.33887 11.7749 2.18018 11.6968 2.0874 11.5649C1.99463 11.4282 1.94824 11.2573 1.94824 11.0522V10.0488C1.94824 9.56055 1.96289 9.11865 1.99219 8.72314C2.02148 8.32275 2.05566 7.97852 2.09473 7.69043C2.13379 7.39746 2.17285 7.17041 2.21191 7.00928C2.24609 6.84814 2.31445 6.71387 2.41699 6.60645C2.51953 6.49902 2.65381 6.43555 2.81982 6.41602C3.08838 6.38184 3.38135 6.35498 3.69873 6.33545C4.01611 6.31104 4.4043 6.2915 4.86328 6.27686C5.32715 6.26221 5.90576 6.25488 6.59912 6.25488C7.29736 6.25488 7.87598 6.26221 8.33496 6.27686C8.79883 6.2915 9.18945 6.31104 9.50684 6.33545C9.82422 6.35498 10.1172 6.38184 10.3857 6.41602C10.5518 6.43555 10.686 6.49902 10.7886 6.60645C10.8911 6.71387 10.9595 6.84814 10.9937 7.00928C11.0327 7.17041 11.0718 7.39746 11.1108 7.69043C11.1499 7.97852 11.1841 8.32275 11.2134 8.72314C11.2427 9.11865 11.2573 9.56055 11.2573 10.0488V11.0522C11.2573 11.2573 11.2085 11.4282 11.1108 11.5649C11.0181 11.6968 10.8618 11.7749 10.6421 11.7993C10.2466 11.8481 9.70459 11.8896 9.01611 11.9238C8.32764 11.958 7.52197 11.9775 6.59912 11.9824ZM3.2666 15.0073C2.97363 15.0073 2.73193 14.9121 2.5415 14.7217C2.35596 14.5312 2.26318 14.2896 2.26318 13.9966C2.26318 13.7085 2.35596 13.4692 2.5415 13.2788C2.73193 13.0884 2.97363 12.9932 3.2666 12.9932C3.55957 12.9932 3.79883 13.0884 3.98438 13.2788C4.1748 13.4692 4.27002 13.7085 4.27002 13.9966C4.27002 14.2896 4.17236 14.5312 3.97705 14.7217C3.78662 14.9121 3.5498 15.0073 3.2666 15.0073ZM9.92432 15.0146C9.63135 15.0146 9.38721 14.917 9.19189 14.7217C9.00146 14.5264 8.90625 14.2847 8.90625 13.9966C8.90625 13.7085 9.00146 13.4692 9.19189 13.2788C9.38721 13.0835 9.63135 12.9858 9.92432 12.9858C10.2075 12.9858 10.4468 13.0835 10.6421 13.2788C10.8374 13.4692 10.9351 13.7085 10.9351 13.9966C10.9351 14.2847 10.8374 14.5264 10.6421 14.7217C10.4468 14.917 10.2075 15.0146 9.92432 15.0146ZM4.75342 5.3833C4.6167 5.3833 4.50684 5.3418 4.42383 5.25879C4.3457 5.17578 4.30664 5.06836 4.30664 4.93652C4.30664 4.7998 4.3457 4.69238 4.42383 4.61426C4.50684 4.53613 4.6167 4.49707 4.75342 4.49707H8.45215C8.58887 4.49707 8.69629 4.53613 8.77441 4.61426C8.85742 4.69238 8.89893 4.7998 8.89893 4.93652C8.89893 5.06836 8.85742 5.17578 8.77441 5.25879C8.69629 5.3418 8.58887 5.3833 8.45215 5.3833H4.75342ZM0.556641 1.45752C0.556641 1.3501 0.59082 1.24023 0.65918 1.12793C0.732422 1.01563 0.820312 0.910645 0.922852 0.812988C1.23535 0.510254 1.57471 0.300293 1.94092 0.183105C2.31201 0.0610352 2.72217 0 3.17139 0H10.0342C10.4834 0 10.8911 0.0610352 11.2573 0.183105C11.6284 0.300293 11.9702 0.510254 12.2827 0.812988C12.3853 0.910645 12.4707 1.01563 12.5391 1.12793C12.6123 1.24023 12.6489 1.3501 12.6489 1.45752C12.6489 1.604 12.6001 1.72119 12.5024 1.80908C12.4048 1.89697 12.2876 1.94092 12.1509 1.94092C12.0776 1.94092 12.0044 1.92383 11.9312 1.88965C11.8579 1.85059 11.7896 1.79199 11.7261 1.71387C11.521 1.45508 11.2915 1.27197 11.0376 1.16455C10.7886 1.05713 10.4541 1.00342 10.0342 1.00342H3.17139C2.75146 1.00342 2.41455 1.05713 2.16064 1.16455C1.90674 1.27197 1.67969 1.45508 1.47949 1.71387C1.41602 1.79199 1.34766 1.85059 1.27441 1.88965C1.20117 1.92383 1.12793 1.94092 1.05469 1.94092C0.917969 1.94092 0.800781 1.89697 0.703125 1.80908C0.605469 1.72119 0.556641 1.604 0.556641 1.45752ZM5.72021 2.71729H4.36523L2.88574 0.915527H4.24805L5.72021 2.71729ZM7.48535 2.71729L8.95752 0.915527H10.3198L8.84033 2.71729H7.48535ZM2.85645 16.7358H4.25537L2.81982 19.0503C2.72217 19.2114 2.58057 19.292 2.39502 19.292H1.98486C1.87256 19.292 1.77979 19.2603 1.70654 19.1968C1.6333 19.1333 1.58936 19.0527 1.57471 18.9551C1.56494 18.8574 1.5918 18.7598 1.65527 18.6621L2.85645 16.7358ZM8.95752 16.7358H10.3491L11.5356 18.6621C11.5991 18.7598 11.626 18.8574 11.6162 18.9551C11.6064 19.0527 11.5674 19.1333 11.499 19.1968C11.4307 19.2603 11.3403 19.292 11.228 19.292H10.8179C10.6323 19.292 10.4907 19.2114 10.3931 19.0503L8.95752 16.7358Z" fill="white"/>
</svg>
