<svg width="8" height="15" viewBox="0 0 8 15" fill="none" xmlns="http://www.w3.org/2000/svg">
<path d="M0 13.5498C0 13.4424 0.0268555 13.3447 0.0805664 13.2568C0.13916 13.1689 0.217285 13.0981 0.314941 13.0444C0.412598 12.9956 0.52002 12.9712 0.637207 12.9712H3.13477V6.14502H0.908203C0.727539 6.14502 0.57373 6.08887 0.446777 5.97656C0.324707 5.85938 0.263672 5.71777 0.263672 5.55176C0.263672 5.44434 0.290527 5.34912 0.344238 5.26611C0.402832 5.17822 0.480957 5.10986 0.578613 5.06104C0.67627 5.01221 0.786133 4.98779 0.908203 4.98779H3.85986C4.03564 4.98779 4.18457 5.05127 4.30664 5.17822C4.43359 5.30518 4.49707 5.45898 4.49707 5.63965V12.9712H6.5625C6.67969 12.9712 6.78711 12.9956 6.88477 13.0444C6.98242 13.0981 7.05811 13.1689 7.11182 13.2568C7.17041 13.3447 7.19971 13.4424 7.19971 13.5498C7.19971 13.6572 7.17041 13.7549 7.11182 13.8428C7.05811 13.9307 6.98242 13.999 6.88477 14.0479C6.78711 14.1016 6.67969 14.1284 6.5625 14.1284H0.637207C0.52002 14.1284 0.412598 14.1016 0.314941 14.0479C0.217285 13.999 0.13916 13.9307 0.0805664 13.8428C0.0268555 13.7549 0 13.6572 0 13.5498ZM3.479 2.3291C3.26416 2.3291 3.06885 2.27783 2.89307 2.17529C2.71729 2.06787 2.57568 1.92627 2.46826 1.75049C2.36572 1.57471 2.31445 1.37939 2.31445 1.16455C2.31445 0.949707 2.36572 0.754395 2.46826 0.578613C2.57568 0.402832 2.71729 0.263672 2.89307 0.161133C3.06885 0.0537109 3.26416 0 3.479 0C3.69385 0 3.88916 0.0537109 4.06494 0.161133C4.24072 0.263672 4.37988 0.402832 4.48242 0.578613C4.58984 0.754395 4.64355 0.949707 4.64355 1.16455C4.64355 1.37939 4.58984 1.57471 4.48242 1.75049C4.37988 1.92627 4.24072 2.06787 4.06494 2.17529C3.88916 2.27783 3.69385 2.3291 3.479 2.3291Z" fill="#00A19A"/>
</svg>
