<svg width="15" height="15" viewBox="0 0 15 15" fill="none" xmlns="http://www.w3.org/2000/svg">
<path d="M7.46875 14.9414C6.43848 14.9414 5.47168 14.7461 4.56836 14.3555C3.66504 13.9697 2.87158 13.4351 2.18799 12.7515C1.50439 12.0679 0.967285 11.2744 0.57666 10.3711C0.190918 9.46777 -0.00195312 8.50098 -0.00195312 7.4707C-0.00195312 6.44043 0.190918 5.47363 0.57666 4.57031C0.967285 3.66699 1.50439 2.87354 2.18799 2.18994C2.87158 1.50146 3.66504 0.964355 4.56836 0.578613C5.47168 0.192871 6.43848 0 7.46875 0C8.49902 0 9.46582 0.192871 10.3691 0.578613C11.2725 0.964355 12.0659 1.50146 12.7495 2.18994C13.4331 2.87354 13.9678 3.66699 14.3535 4.57031C14.7441 5.47363 14.9395 6.44043 14.9395 7.4707C14.9395 8.50098 14.7441 9.46777 14.3535 10.3711C13.9678 11.2744 13.4331 12.0679 12.7495 12.7515C12.0659 13.4351 11.2725 13.9697 10.3691 14.3555C9.46582 14.7461 8.49902 14.9414 7.46875 14.9414ZM7.46875 13.6963C8.32812 13.6963 9.13379 13.5352 9.88574 13.2129C10.6377 12.8906 11.2993 12.4438 11.8706 11.8726C12.4419 11.3013 12.8887 10.6396 13.2109 9.8877C13.5332 9.13574 13.6943 8.33008 13.6943 7.4707C13.6943 6.61133 13.5332 5.80566 13.2109 5.05371C12.8887 4.29688 12.4419 3.63525 11.8706 3.06885C11.2993 2.49756 10.6377 2.05078 9.88574 1.72852C9.13379 1.40625 8.32812 1.24512 7.46875 1.24512C6.60938 1.24512 5.80371 1.40625 5.05176 1.72852C4.2998 2.05078 3.63818 2.49756 3.06689 3.06885C2.49561 3.63525 2.04883 4.29688 1.72656 5.05371C1.4043 5.80566 1.24316 6.61133 1.24316 7.4707C1.24316 8.33008 1.4043 9.13574 1.72656 9.8877C2.04883 10.6396 2.49561 11.3013 3.06689 11.8726C3.63818 12.4438 4.2998 12.8906 5.05176 13.2129C5.80371 13.5352 6.60938 13.6963 7.46875 13.6963ZM4.3999 11.1621C4.23389 11.2402 4.08984 11.2573 3.96777 11.2134C3.8457 11.1694 3.7627 11.0864 3.71875 10.9644C3.6748 10.8374 3.69189 10.6934 3.77002 10.5322L5.8208 6.32812C5.94287 6.08887 6.11133 5.91797 6.32617 5.81543L10.5156 3.77197C10.7744 3.6499 10.9746 3.66211 11.1162 3.80859C11.2627 3.95508 11.2749 4.15283 11.1528 4.40186L9.10938 8.59863C8.99219 8.82812 8.82373 8.99658 8.604 9.104L4.3999 11.1621ZM7.46875 8.37158C7.71289 8.37158 7.92285 8.28369 8.09863 8.10791C8.27441 7.93213 8.3623 7.71973 8.3623 7.4707C8.3623 7.22168 8.27441 7.01172 8.09863 6.84082C7.92285 6.66504 7.71289 6.57715 7.46875 6.57715C7.21973 6.57715 7.00732 6.66504 6.83154 6.84082C6.65576 7.01172 6.56787 7.22168 6.56787 7.4707C6.56787 7.71973 6.65576 7.93213 6.83154 8.10791C7.00732 8.28369 7.21973 8.37158 7.46875 8.37158Z" fill="white"/>
</svg>
