<svg width="14" height="14" viewBox="0 0 14 14" fill="none" xmlns="http://www.w3.org/2000/svg">
<path d="M2.65869 1.25977C2.48291 1.25977 2.33398 1.19873 2.21191 1.07666C2.08984 0.949707 2.02881 0.800781 2.02881 0.629883C2.02881 0.458984 2.08984 0.3125 2.21191 0.19043C2.33398 0.0634766 2.48291 0 2.65869 0C2.82959 0 2.97607 0.0634766 3.09814 0.19043C3.2251 0.3125 3.28857 0.458984 3.28857 0.629883C3.28857 0.800781 3.2251 0.949707 3.09814 1.07666C2.97607 1.19873 2.82959 1.25977 2.65869 1.25977ZM4.70215 1.25977C4.53125 1.25977 4.38232 1.19873 4.25537 1.07666C4.1333 0.949707 4.07227 0.800781 4.07227 0.629883C4.07227 0.458984 4.1333 0.3125 4.25537 0.19043C4.38232 0.0634766 4.53125 0 4.70215 0C4.87305 0 5.01953 0.0634766 5.1416 0.19043C5.26855 0.3125 5.33203 0.458984 5.33203 0.629883C5.33203 0.800781 5.26855 0.949707 5.1416 1.07666C5.01953 1.19873 4.87305 1.25977 4.70215 1.25977ZM6.75293 1.25977C6.57715 1.25977 6.42822 1.19873 6.30615 1.07666C6.18408 0.949707 6.12305 0.800781 6.12305 0.629883C6.12305 0.458984 6.18408 0.3125 6.30615 0.19043C6.42822 0.0634766 6.57715 0 6.75293 0C6.92383 0 7.07031 0.0634766 7.19238 0.19043C7.31934 0.3125 7.38281 0.458984 7.38281 0.629883C7.38281 0.800781 7.31934 0.949707 7.19238 1.07666C7.07031 1.19873 6.92383 1.25977 6.75293 1.25977ZM8.79639 1.25977C8.62549 1.25977 8.47656 1.19873 8.34961 1.07666C8.22754 0.949707 8.1665 0.800781 8.1665 0.629883C8.1665 0.458984 8.22754 0.3125 8.34961 0.19043C8.47656 0.0634766 8.62549 0 8.79639 0C8.97217 0 9.12109 0.0634766 9.24316 0.19043C9.36523 0.3125 9.42627 0.458984 9.42627 0.629883C9.42627 0.800781 9.36523 0.949707 9.24316 1.07666C9.12109 1.19873 8.97217 1.25977 8.79639 1.25977ZM10.8472 1.25977C10.6714 1.25977 10.5225 1.19873 10.4004 1.07666C10.2783 0.949707 10.2173 0.800781 10.2173 0.629883C10.2173 0.458984 10.2783 0.3125 10.4004 0.19043C10.5225 0.0634766 10.6714 0 10.8472 0C11.0181 0 11.1646 0.0634766 11.2866 0.19043C11.4136 0.3125 11.4771 0.458984 11.4771 0.629883C11.4771 0.800781 11.4136 0.949707 11.2866 1.07666C11.1646 1.19873 11.0181 1.25977 10.8472 1.25977ZM12.8906 1.25977C12.7197 1.25977 12.5708 1.19873 12.4438 1.07666C12.3218 0.949707 12.2607 0.800781 12.2607 0.629883C12.2607 0.458984 12.3218 0.3125 12.4438 0.19043C12.5708 0.0634766 12.7197 0 12.8906 0C13.0615 0 13.208 0.0634766 13.3301 0.19043C13.457 0.3125 13.5205 0.458984 13.5205 0.629883C13.5205 0.800781 13.457 0.949707 13.3301 1.07666C13.208 1.19873 13.0615 1.25977 12.8906 1.25977ZM12.8906 3.30322C12.7197 3.30322 12.5708 3.24219 12.4438 3.12012C12.3218 2.99805 12.2607 2.84912 12.2607 2.67334C12.2607 2.50244 12.3218 2.35596 12.4438 2.23389C12.5708 2.10693 12.7197 2.04346 12.8906 2.04346C13.0615 2.04346 13.208 2.10693 13.3301 2.23389C13.457 2.35596 13.5205 2.50244 13.5205 2.67334C13.5205 2.84912 13.457 2.99805 13.3301 3.12012C13.208 3.24219 13.0615 3.30322 12.8906 3.30322ZM12.8906 5.354C12.7197 5.354 12.5708 5.29297 12.4438 5.1709C12.3218 5.04395 12.2607 4.89502 12.2607 4.72412C12.2607 4.54834 12.3218 4.39941 12.4438 4.27734C12.5708 4.15527 12.7197 4.09424 12.8906 4.09424C13.0615 4.09424 13.208 4.15527 13.3301 4.27734C13.457 4.39941 13.5205 4.54834 13.5205 4.72412C13.5205 4.89502 13.457 5.04395 13.3301 5.1709C13.208 5.29297 13.0615 5.354 12.8906 5.354ZM12.8906 7.39746C12.7197 7.39746 12.5708 7.33643 12.4438 7.21436C12.3218 7.09229 12.2607 6.94336 12.2607 6.76758C12.2607 6.59668 12.3218 6.4502 12.4438 6.32812C12.5708 6.20117 12.7197 6.1377 12.8906 6.1377C13.0615 6.1377 13.208 6.20117 13.3301 6.32812C13.457 6.4502 13.5205 6.59668 13.5205 6.76758C13.5205 6.94336 13.457 7.09229 13.3301 7.21436C13.208 7.33643 13.0615 7.39746 12.8906 7.39746ZM12.8906 9.44824C12.7197 9.44824 12.5708 9.38721 12.4438 9.26514C12.3218 9.13818 12.2607 8.98926 12.2607 8.81836C12.2607 8.64746 12.3218 8.50098 12.4438 8.37891C12.5708 8.25195 12.7197 8.18848 12.8906 8.18848C13.0615 8.18848 13.208 8.25195 13.3301 8.37891C13.457 8.50098 13.5205 8.64746 13.5205 8.81836C13.5205 8.98926 13.457 9.13818 13.3301 9.26514C13.208 9.38721 13.0615 9.44824 12.8906 9.44824ZM12.8906 11.4917C12.7197 11.4917 12.5708 11.4307 12.4438 11.3086C12.3218 11.1865 12.2607 11.0376 12.2607 10.8618C12.2607 10.6909 12.3218 10.5444 12.4438 10.4224C12.5708 10.2954 12.7197 10.2319 12.8906 10.2319C13.0615 10.2319 13.208 10.2954 13.3301 10.4224C13.457 10.5444 13.5205 10.6909 13.5205 10.8618C13.5205 11.0376 13.457 11.1865 13.3301 11.3086C13.208 11.4307 13.0615 11.4917 12.8906 11.4917ZM0.585938 13.5352C0.410156 13.5352 0.268555 13.4814 0.161133 13.374C0.0537109 13.2666 0 13.125 0 12.9492V0.578613C0 0.41748 0.0561523 0.280762 0.168457 0.168457C0.280762 0.0561523 0.41748 0 0.578613 0C0.744629 0 0.883789 0.0561523 0.996094 0.168457C1.11328 0.280762 1.17188 0.41748 1.17188 0.578613V12.1509C1.17188 12.2925 1.24268 12.3633 1.38428 12.3633H12.9346C13.0957 12.3633 13.2324 12.4194 13.3447 12.5317C13.4619 12.644 13.5205 12.7832 13.5205 12.9492C13.5205 13.1104 13.4619 13.2471 13.3447 13.3594C13.2324 13.4766 13.0957 13.5352 12.9346 13.5352H0.585938ZM2.76123 10.2466L3.2666 7.88086C3.30078 7.71484 3.38867 7.60742 3.53027 7.55859C3.67188 7.50488 3.80127 7.53418 3.91846 7.64648L4.56299 8.31299L8.34229 4.59229L7.67578 3.92578C7.56348 3.80859 7.53174 3.68408 7.58057 3.55225C7.62939 3.41553 7.73926 3.33008 7.91016 3.2959L10.2612 2.79785C10.4175 2.76367 10.5493 2.79785 10.6567 2.90039C10.7642 3.00293 10.8008 3.12988 10.7666 3.28125L10.2612 5.64697C10.2271 5.81299 10.1392 5.92285 9.99756 5.97656C9.85596 6.02539 9.72656 5.99365 9.60938 5.88135L8.95752 5.21484L5.18555 8.93555L5.85205 9.60205C5.96436 9.71436 5.99365 9.83887 5.93994 9.97559C5.89111 10.1123 5.78369 10.1978 5.61768 10.2319L3.25928 10.73C3.10303 10.7642 2.97119 10.7324 2.86377 10.6348C2.76123 10.5322 2.72705 10.4028 2.76123 10.2466Z" fill="#00A19A"/>
</svg>
