<svg width="14" height="17" viewBox="0 0 14 17" fill="none" xmlns="http://www.w3.org/2000/svg">
<path d="M9.44531 9.42188C9.58073 9.42188 9.69271 9.46875 9.78125 9.5625C9.875 9.65104 9.92188 9.76302 9.92188 9.89844C9.92188 10.0339 9.875 10.1484 9.78125 10.2422C9.69271 10.3359 9.58073 10.3828 9.44531 10.3828H3.51562C3.375 10.3828 3.25781 10.3359 3.16406 10.2422C3.07031 10.1484 3.02344 10.0339 3.02344 9.89844C3.02344 9.76302 3.07031 9.65104 3.16406 9.5625C3.25781 9.46875 3.375 9.42188 3.51562 9.42188H9.44531ZM9.44531 12.1484C9.58073 12.1484 9.69271 12.1953 9.78125 12.2891C9.875 12.3828 9.92188 12.5 9.92188 12.6406C9.92188 12.7708 9.875 12.8828 9.78125 12.9766C9.69271 13.0651 9.58073 13.1094 9.44531 13.1094H3.51562C3.375 13.1094 3.25781 13.0651 3.16406 12.9766C3.07031 12.8828 3.02344 12.7708 3.02344 12.6406C3.02344 12.5 3.07031 12.3828 3.16406 12.2891C3.25781 12.1953 3.375 12.1484 3.51562 12.1484H9.44531ZM2.42188 16.75C1.61458 16.75 1.00781 16.5469 0.601562 16.1406C0.200521 15.7344 0 15.1224 0 14.3047V2.45312C0 1.64062 0.200521 1.02865 0.601562 0.617188C1.00781 0.205729 1.61458 0 2.42188 0H6.13281C6.42448 0 6.67969 0.0208333 6.89844 0.0625C7.1224 0.0989583 7.32812 0.171875 7.51562 0.28125C7.70312 0.385417 7.89583 0.539062 8.09375 0.742188L12.3984 5.125C12.6068 5.33854 12.763 5.54167 12.8672 5.73438C12.9766 5.92188 13.0495 6.13021 13.0859 6.35938C13.1224 6.58854 13.1406 6.8724 13.1406 7.21094V14.3047C13.1406 15.1172 12.9375 15.7266 12.5312 16.1328C12.1302 16.5443 11.526 16.75 10.7188 16.75H2.42188ZM2.47656 15.4922H10.6562C11.0625 15.4922 11.3672 15.388 11.5703 15.1797C11.7786 14.9714 11.8828 14.6719 11.8828 14.2812V7.26562H7.42969C6.9401 7.26562 6.57292 7.14323 6.32812 6.89844C6.08333 6.65365 5.96094 6.28646 5.96094 5.79688V1.25781H2.48438C2.07812 1.25781 1.77083 1.36458 1.5625 1.57812C1.35938 1.79167 1.25781 2.09115 1.25781 2.47656V14.2812C1.25781 14.6719 1.35938 14.9714 1.5625 15.1797C1.77083 15.388 2.07552 15.4922 2.47656 15.4922ZM7.57031 6.08594H11.6406L7.14062 1.5V5.64844C7.14062 5.80469 7.17188 5.91667 7.23438 5.98438C7.30208 6.05208 7.41406 6.08594 7.57031 6.08594Z" fill="black"/>
</svg>
