<svg width="50" height="21" viewBox="0 0 50 21" fill="none" xmlns="http://www.w3.org/2000/svg">
<path d="M44.9932 13.2261H45.0283L47.9473 5.8999H49.999L43.6924 20.5884H41.7461L44.0908 15.4497L39.9521 5.8999H42.0039L44.9932 13.2261ZM35.1221 5.56689C36.5171 5.56689 37.6198 5.94749 38.4287 6.69678C39.2374 7.44605 39.6357 8.49298 39.6357 9.81299V16.104H37.8301V14.689H37.748C36.9626 15.8544 35.9311 16.437 34.6299 16.437C33.528 16.437 32.5901 16.104 31.8516 15.438C31.1249 14.8196 30.7149 13.9041 30.7383 12.9409C30.7383 11.8825 31.1366 11.0498 31.9219 10.4194C32.7073 9.78913 33.7624 9.48003 35.0752 9.47998C36.2005 9.47998 37.115 9.69386 37.8418 10.0981V9.65771C37.8417 9.00372 37.5606 8.38561 37.0684 7.95752C36.5643 7.50557 35.9192 7.25537 35.251 7.25537C34.1961 7.25549 33.3634 7.70802 32.7539 8.61182L31.0898 7.55322C31.9807 6.23313 33.3286 5.56698 35.1221 5.56689ZM26.1777 1.18994C27.3851 1.16618 28.5573 1.6297 29.4131 2.48584C31.1247 4.10336 31.2301 6.82734 29.624 8.57568L29.4131 8.78955C28.5339 9.63397 27.4555 10.062 26.1777 10.062H23.0596V16.104H21.1719V1.18994H26.1777ZM35.3691 11.0259C34.6071 11.0259 33.9621 11.2158 33.4463 11.5845C32.9422 11.9531 32.6846 12.4172 32.6846 12.9761C32.6846 13.4756 32.9188 13.9397 33.3057 14.2251C33.7278 14.5581 34.2439 14.737 34.7715 14.7251C35.5687 14.725 36.3308 14.4034 36.8936 13.8325C37.5149 13.2379 37.8311 12.5358 37.8311 11.7271C37.2448 11.2516 36.4241 11.014 35.3691 11.0259ZM23.0596 8.23096H26.2256C26.929 8.25464 27.6092 7.96886 28.0898 7.45752C29.0744 6.4229 29.0508 4.7583 28.0312 3.75928C27.5506 3.28361 26.9055 3.02108 26.2256 3.021H23.0596V8.23096Z" fill="#3C4043"/>
<path d="M16.546 8.75403C16.546 8.17125 16.4991 7.58847 16.4053 7.01758H8.44531V10.3121H13.0056C12.818 11.3706 12.2084 12.3221 11.3175 12.9168V15.0576H14.0372C15.6316 13.5709 16.546 11.3706 16.546 8.75403Z" fill="#4285F4"/>
<path d="M8.44421 17.1271C10.7185 17.1271 12.6411 16.3659 14.0361 15.0576L11.3164 12.9168C10.5544 13.4401 9.58136 13.7375 8.44421 13.7375C6.24027 13.7375 4.37629 12.227 3.70807 10.2051H0.90625V12.4173C2.33647 15.3074 5.25553 17.1271 8.44421 17.1271Z" fill="#34A853"/>
<path d="M3.70803 10.2051C3.35628 9.14656 3.35628 7.99289 3.70803 6.92247V4.72217H0.905755C-0.301918 7.13655 -0.301918 9.991 0.905755 12.4054L3.70803 10.2051Z" fill="#FBBC04"/>
<path d="M8.44421 3.39017C9.65169 3.36638 10.8123 3.83023 11.6798 4.67467L14.0948 2.22461C12.559 0.773597 10.5427 -0.0232694 8.44421 0.000517618C5.25553 0.000517618 2.33647 1.83212 0.90625 4.72225L3.70807 6.93444C4.37629 4.90065 6.24027 3.39017 8.44421 3.39017Z" fill="#EA4335"/>
</svg>
