<svg width="14" height="15" viewBox="0 0 14 15" fill="none" xmlns="http://www.w3.org/2000/svg">
<path d="M2.68799 14.2676C2.51221 14.2676 2.36816 14.2188 2.25586 14.1211C2.14355 14.0283 2.0874 13.8916 2.0874 13.7109C2.0874 13.6768 2.08984 13.6377 2.09473 13.5938C2.09961 13.5547 2.10693 13.5156 2.1167 13.4766L4.72412 0.571289C4.7583 0.400391 4.82666 0.263672 4.9292 0.161133C5.03174 0.0537109 5.18555 0 5.39062 0C5.56641 0 5.71289 0.0512695 5.83008 0.153809C5.94727 0.251465 6.00586 0.388184 6.00586 0.563965C6.00586 0.612793 6.00098 0.65918 5.99121 0.703125C5.98633 0.742187 5.98145 0.773926 5.97656 0.79834L3.36914 13.7183C3.2959 14.0845 3.06885 14.2676 2.68799 14.2676ZM7.44873 14.2676C7.27783 14.2676 7.13623 14.2188 7.02393 14.1211C6.91162 14.0283 6.85547 13.8916 6.85547 13.7109C6.85547 13.6768 6.85791 13.6377 6.86279 13.5938C6.86768 13.5547 6.87256 13.5156 6.87744 13.4766L9.49219 0.571289C9.52637 0.400391 9.59229 0.263672 9.68994 0.161133C9.79248 0.0537109 9.94873 0 10.1587 0C10.3296 0 10.4736 0.0512695 10.5908 0.153809C10.708 0.251465 10.7666 0.388184 10.7666 0.563965C10.7666 0.612793 10.7642 0.65918 10.7593 0.703125C10.7544 0.742187 10.7495 0.773926 10.7446 0.79834L8.12988 13.7183C8.05664 14.0845 7.82959 14.2676 7.44873 14.2676ZM1.53809 5.02441C1.37695 5.02441 1.24512 4.97314 1.14258 4.87061C1.04004 4.76318 0.98877 4.62646 0.98877 4.46045C0.98877 4.25537 1.05225 4.08691 1.1792 3.95508C1.30615 3.81836 1.46973 3.75 1.66992 3.75H12.583C12.7441 3.75 12.876 3.80859 12.9785 3.92578C13.0811 4.03809 13.1323 4.1748 13.1323 4.33594C13.1323 4.53613 13.0688 4.70215 12.9419 4.83398C12.8149 4.96094 12.6514 5.02441 12.4512 5.02441H1.53809ZM0.549316 10.166C0.383301 10.166 0.249023 10.1147 0.146484 10.0122C0.0488281 9.90479 0 9.76807 0 9.60205C0 9.39697 0.0634766 9.22852 0.19043 9.09668C0.317383 8.95996 0.480957 8.8916 0.681152 8.8916H11.5942C11.7554 8.8916 11.8872 8.9502 11.9897 9.06738C12.0923 9.17969 12.1436 9.31641 12.1436 9.47754C12.1436 9.67773 12.0801 9.84375 11.9531 9.97559C11.8262 10.1025 11.6626 10.166 11.4624 10.166H0.549316Z" fill="#00A19A"/>
</svg>
