<svg width="18" height="16" viewBox="0 0 18 16" fill="none" xmlns="http://www.w3.org/2000/svg">
<path d="M6.62109 14.6484V9.91699C6.62109 9.75098 6.67236 9.6167 6.7749 9.51416C6.87744 9.41162 7.01416 9.36035 7.18506 9.36035H10.3125C10.4834 9.36035 10.6177 9.41162 10.7153 9.51416C10.8179 9.6167 10.8691 9.75098 10.8691 9.91699V14.6484H6.62109ZM0.629883 7.82227C0.43457 7.82227 0.280762 7.76367 0.168457 7.64648C0.0561523 7.52441 0 7.3877 0 7.23633C0 7.0459 0.078125 6.88721 0.234375 6.76025L7.86621 0.351562C8.13965 0.117188 8.43262 0 8.74512 0C9.05762 0 9.35059 0.117188 9.62402 0.351562L17.2559 6.76025C17.4121 6.88721 17.4902 7.0459 17.4902 7.23633C17.4902 7.3877 17.4341 7.52441 17.3218 7.64648C17.2144 7.76367 17.0605 7.82227 16.8604 7.82227C16.7578 7.82227 16.6626 7.79785 16.5747 7.74902C16.4917 7.7002 16.4136 7.64648 16.3403 7.58789L9.00146 1.42822C8.92334 1.35986 8.83789 1.32568 8.74512 1.32568C8.65234 1.32568 8.56689 1.35986 8.48877 1.42822L1.15723 7.58789C1.0791 7.64648 0.996094 7.7002 0.908203 7.74902C0.825195 7.79785 0.732422 7.82227 0.629883 7.82227ZM13.5132 3.93311V2.18262C13.5132 2.02148 13.562 1.89453 13.6597 1.80176C13.7573 1.7041 13.8843 1.65527 14.0405 1.65527H14.8242C14.9854 1.65527 15.1123 1.7041 15.2051 1.80176C15.3027 1.89453 15.3516 2.02148 15.3516 2.18262V5.48584L13.5132 3.93311ZM3.79395 15.4028C3.27148 15.4028 2.86377 15.2612 2.5708 14.978C2.28271 14.6997 2.13867 14.3018 2.13867 13.7842V5.66895L3.31787 4.87793V13.4912C3.31787 13.7305 3.37891 13.9111 3.50098 14.0332C3.62793 14.1602 3.80859 14.2236 4.04297 14.2236H13.4546C13.689 14.2236 13.8672 14.1602 13.9893 14.0332C14.1113 13.9111 14.1724 13.7305 14.1724 13.4912V4.87061L15.3516 5.66895V13.7842C15.3516 14.2969 15.2075 14.6948 14.9194 14.978C14.6313 15.2612 14.2261 15.4028 13.7036 15.4028H3.79395Z" fill="#00A19A"/>
</svg>
