<svg width="57" height="13" viewBox="0 0 57 13" fill="none" xmlns="http://www.w3.org/2000/svg">
<path d="M20.083 3.68945C21.0278 3.68947 21.9041 3.98903 22.6299 4.49805V3.93359H25.1992V12.7559H22.6299V12.1924C21.9041 12.7012 21.0278 13 20.083 13C17.5823 13 15.5547 10.9156 15.5547 8.34473C15.5548 5.77392 17.5824 3.68945 20.083 3.68945ZM47.1875 3.68945C48.1324 3.68949 49.0086 3.98904 49.7344 4.49805V3.93359H52.3037V12.7559H49.7344V12.1924C49.0086 12.7012 48.1324 13 47.1875 13C44.6868 13 42.6592 10.9156 42.6592 8.34473C42.6593 5.77392 44.6869 3.68945 47.1875 3.68945ZM55.0303 9.62695C55.9206 9.62695 56.6425 10.3687 56.6426 11.2842C56.6426 12.1994 55.9207 12.9414 55.0303 12.9414C54.14 12.9412 53.418 12.1993 53.418 11.2842C53.418 10.3688 54.1401 9.62711 55.0303 9.62695ZM9.95898 0C9.95898 2.76228 8.91258 5.3322 7.04688 7.24219L10.9824 12.7598H7.46582L3.18848 6.7627L4.29199 5.91309C6.1228 4.50314 7.17285 2.34803 7.17285 0H9.95898ZM2.84863 0V12.7588H0V0H2.84863ZM14.5029 12.7559H11.8125V0.00292969H14.5029V12.7559ZM29.1729 5.08301C29.6879 4.39379 30.6481 3.93457 31.6914 3.93457V6.50195C31.6812 6.50183 31.6714 6.50003 31.6611 6.5C30.6446 6.5 29.1789 7.24723 29.1787 8.63672V12.7559H26.543V3.93359H29.1729V5.08301ZM38.0938 3.69629C40.1634 3.69629 41.7519 5.0926 41.752 7.14551V12.7559H39.1855V8.10156C39.1855 6.81488 38.5363 6.12116 37.4072 6.12109C36.3537 6.12109 35.4785 6.77859 35.4785 8.12012V12.7559H32.8887V3.93457H35.4473V4.92773C36.0966 4.02418 37.0676 3.69634 38.0938 3.69629ZM20.2939 6.0752C19.0084 6.0752 17.966 7.09129 17.9658 8.34473C17.9658 9.59829 19.0083 10.6152 20.2939 10.6152C21.5796 10.6151 22.6221 9.59823 22.6221 8.34473C22.6219 7.09134 21.5795 6.07528 20.2939 6.0752ZM47.3984 6.0752C46.1128 6.0752 45.0705 7.09129 45.0703 8.34473C45.0703 9.59829 46.1127 10.6152 47.3984 10.6152C48.6841 10.6151 49.7266 9.59823 49.7266 8.34473C49.7264 7.09135 48.684 6.07528 47.3984 6.0752Z" fill="#17120F"/>
</svg>
