<svg width="49" height="26" viewBox="0 0 49 26" fill="none" xmlns="http://www.w3.org/2000/svg">
<path d="M31.9575 16.4534V17.5942H29.7656L29.7533 16.534C29.7533 14.7475 28.9642 14.0086 27.6311 14.0086C26.298 14.0086 25.5089 14.7475 25.5089 16.534V18.6984H23.332V16.4534C23.332 13.6862 24.9375 12.155 27.6451 12.155C30.3526 12.155 31.9581 13.6862 31.9581 16.4534H31.9575Z" fill="white"/>
<path d="M21.1439 12.1702C23.8515 12.1702 25.457 13.7013 25.457 16.4685V18.7135H23.2801V16.5491C23.2801 14.7626 22.5044 14.0237 21.1579 14.0237C19.8248 14.0237 19.0357 14.7626 19.0357 16.5491L19.0273 17.6093H16.8376L16.832 16.4685C16.832 13.7013 18.4375 12.1702 21.1451 12.1702H21.1439Z" fill="white"/>
<path d="M26.3538 18.646C26.3538 17.5758 25.4754 16.7087 24.3917 16.7087C23.308 16.7087 22.4297 17.5764 22.4297 18.646C22.4297 19.2692 22.7288 19.8218 23.1914 20.1761L22.7338 22.9899H26.0502L25.5926 20.1761C26.0552 19.8218 26.3543 19.2687 26.3543 18.646H26.3538Z" fill="white"/>
<path d="M25.9213 18.5676C25.9213 17.734 25.2366 17.0579 24.3923 17.0579C23.548 17.0579 22.8633 17.734 22.8633 18.5676C22.8633 19.0532 23.096 19.4839 23.457 19.7597L23.1004 21.9518H25.6847L25.3281 19.7597C25.6886 19.4833 25.9219 19.0527 25.9219 18.5676H25.9213Z" fill="white"/>
<path d="M38.4034 13.4125C38.4017 12.8128 37.909 12.3267 37.3007 12.3267C36.6925 12.3267 36.1981 12.8144 36.1981 13.4156H36.2003V18.2499C36.2003 20.0364 35.4112 20.7753 34.0781 20.7753C32.745 20.7753 31.9559 20.0364 31.9559 18.2499V17.5937H29.7617V18.3305C29.7617 21.0977 31.3839 22.6288 34.0915 22.6288C36.7991 22.6288 38.404 21.0977 38.404 18.3305V13.4125H38.4028H38.4034Z" fill="white"/>
<path d="M10.4035 13.4125C10.4051 12.8128 10.8979 12.3267 11.5061 12.3267C12.1149 12.3267 12.6088 12.8144 12.6088 13.4156H12.6066V18.2499C12.6066 20.0364 13.3956 20.7753 14.7288 20.7753C16.0759 20.7753 16.8376 20.0364 16.8376 18.2499V17.5937H19.0278V18.3305C19.0278 21.0977 17.4224 22.6288 14.7148 22.6288C12.0072 22.6288 10.4023 21.0977 10.4023 18.3305V13.4125H10.4035Z" fill="white"/>
<path d="M37.7574 8.87107L25.1302 1.82171C24.9573 1.727 24.7569 1.67414 24.5532 1.66943H24.5214V1.74688L24.4997 1.66943H24.4695C24.2642 1.67467 24.0644 1.72752 23.8903 1.82276L15.1013 6.72921V5.871C15.1013 5.30898 14.5823 4.85161 13.9451 4.85161C13.3078 4.85161 12.7888 5.30898 12.7888 5.871V8.02071L11.2637 8.87212C10.7224 9.16883 10.5561 9.79888 10.8932 10.2761C11.2297 10.7534 11.9445 10.8999 12.4864 10.6027L24.5108 3.88979L36.5359 10.6032C36.7217 10.7052 36.9309 10.7576 37.1447 10.7576C37.2328 10.7576 37.3216 10.7487 37.4092 10.7309C37.71 10.6691 37.9655 10.5079 38.129 10.2766C38.4655 9.7994 38.2992 9.16987 37.7585 8.87316L37.7574 8.87107Z" fill="white"/>
<path d="M23.7801 6.64478H22.1345C21.9869 6.64478 21.8672 6.757 21.8672 6.89543V8.43864C21.8672 8.57708 21.9869 8.6893 22.1345 8.6893H23.7801C23.9277 8.6893 24.0474 8.57708 24.0474 8.43864V6.89543C24.0474 6.757 23.9277 6.64478 23.7801 6.64478Z" fill="white"/>
<path d="M26.6239 6.64478H24.9782C24.8306 6.64478 24.7109 6.757 24.7109 6.89543V8.43864C24.7109 8.57708 24.8306 8.6893 24.9782 8.6893H26.6239C26.7715 8.6893 26.8912 8.57708 26.8912 8.43864V6.89543C26.8912 6.757 26.7715 6.64478 26.6239 6.64478Z" fill="white"/>
<path d="M23.7801 9.20605H22.1345C21.9869 9.20605 21.8672 9.31828 21.8672 9.45672V10.9999C21.8672 11.1384 21.9869 11.2506 22.1345 11.2506H23.7801C23.9277 11.2506 24.0474 11.1384 24.0474 10.9999V9.45672C24.0474 9.31828 23.9277 9.20605 23.7801 9.20605Z" fill="white"/>
<path d="M26.6239 9.20605H24.9782C24.8306 9.20605 24.7109 9.31828 24.7109 9.45672V10.9999C24.7109 11.1384 24.8306 11.2506 24.9782 11.2506H26.6239C26.7715 11.2506 26.8912 11.1384 26.8912 10.9999V9.45672C26.8912 9.31828 26.7715 9.20605 26.6239 9.20605Z" fill="white"/>
</svg>
