<svg width="45" height="28" viewBox="0 0 45 28" fill="none" xmlns="http://www.w3.org/2000/svg">
<path d="M31.3525 0C38.8897 4.69241e-05 44.9998 6.18101 45 13.8057C45 21.4305 38.8898 27.6123 31.3525 27.6123C27.9742 27.6123 24.8832 26.3694 22.5 24.3125C20.1168 26.3694 17.0258 27.6123 13.6475 27.6123C6.11017 27.6123 0 21.4305 0 13.8057C0.000163543 6.18101 6.11027 4.37972e-05 13.6475 0C17.0254 0 20.1169 1.24135 22.5 3.29785C24.8831 1.24135 27.9746 0 31.3525 0Z" fill="#ED0006"/>
<path d="M31.3525 0C38.8897 4.71848e-05 44.9998 6.18101 45 13.8057C45 21.4305 38.8898 27.6123 31.3525 27.6123C27.9742 27.6123 24.8832 26.3694 22.5 24.3125C25.434 21.7802 27.2949 18.013 27.2949 13.8057C27.2948 9.5981 25.4344 5.83006 22.5 3.29785C24.8831 1.24135 27.9746 0 31.3525 0Z" fill="#F9A000"/>
<path d="M22.498 3.29834C25.4324 5.8306 27.293 9.59854 27.293 13.8062C27.293 18.0135 25.4321 21.7807 22.498 24.313C19.564 21.7807 17.7031 18.0135 17.7031 13.8062C17.7031 9.59859 19.5637 5.8306 22.498 3.29834Z" fill="#FF5E00"/>
</svg>
