<svg width="40" height="35" viewBox="0 0 40 35" fill="none" xmlns="http://www.w3.org/2000/svg">
<path fill-rule="evenodd" clip-rule="evenodd" d="M4.80001 24.1758H1.68878C1.47588 24.1758 1.2948 24.3305 1.2616 24.5406L0.00326376 32.5187C-0.0217468 32.6762 0.10017 32.8181 0.259855 32.8181H1.74519C1.95809 32.8181 2.13916 32.6634 2.17236 32.4529L2.51175 30.3011C2.54449 30.0903 2.72601 29.9358 2.93847 29.9358H3.92338C5.97286 29.9358 7.1556 28.944 7.46465 26.9787C7.60381 26.1189 7.47054 25.4434 7.06781 24.9701C6.6257 24.4507 5.84128 24.1758 4.80001 24.1758ZM5.15896 27.0897C4.98885 28.2061 4.13584 28.2061 3.31106 28.2061H2.84157L3.17094 26.121C3.19049 25.9952 3.29967 25.9023 3.42706 25.9023H3.64224C4.20407 25.9023 4.73412 25.9023 5.00801 26.2225C5.17117 26.4137 5.22128 26.6975 5.15896 27.0897ZM14.1002 27.0539H12.6103C12.4834 27.0539 12.3737 27.1467 12.3541 27.2728L12.2882 27.6895L12.184 27.5385C11.8615 27.0703 11.1423 26.9139 10.4244 26.9139C8.77792 26.9139 7.37181 28.1608 7.09791 29.9101C6.9556 30.7825 7.15791 31.6169 7.65286 32.1987C8.10697 32.7337 8.75665 32.9566 9.5295 32.9566C10.856 32.9566 11.5918 32.1036 11.5918 32.1036L11.5253 32.5177C11.5002 32.676 11.6221 32.8179 11.7809 32.8179H13.123C13.3365 32.8179 13.5165 32.6632 13.5501 32.4526L14.3554 27.3533C14.3809 27.1964 14.2594 27.0539 14.1002 27.0539ZM12.0234 29.9537C11.8796 30.8048 11.204 31.3762 10.3426 31.3762C9.90992 31.3762 9.56402 31.2375 9.34213 30.9745C9.12192 30.7135 9.03813 30.3417 9.10823 29.9278C9.24255 29.0838 9.9295 28.4939 10.7779 28.4939C11.2009 28.4939 11.5449 28.6343 11.7714 28.8996C11.9983 29.1676 12.0885 29.5415 12.0234 29.9537ZM20.5379 27.0537H22.0352C22.2449 27.0537 22.3672 27.2888 22.2481 27.4608L17.2685 34.6486C17.1878 34.7651 17.055 34.8343 16.9131 34.8343H15.4177C15.2072 34.8343 15.0842 34.5973 15.2061 34.4249L16.7567 32.2362L15.1076 27.3966C15.0506 27.2284 15.1748 27.0537 15.3537 27.0537H16.8249C17.016 27.0537 17.1847 27.1792 17.2398 27.3621L18.115 30.2851L20.1801 27.2434C20.2609 27.1246 20.3952 27.0537 20.5379 27.0537Z" fill="#253B80"/>
<path fill-rule="evenodd" clip-rule="evenodd" d="M36.7703 32.5187L38.0471 24.3947C38.0667 24.2686 38.176 24.1757 38.3029 24.1753H39.7404C39.8991 24.1753 40.021 24.3176 39.996 24.4751L38.7368 32.4528C38.704 32.6633 38.5229 32.8181 38.3097 32.8181H37.0259C36.8671 32.8181 36.7452 32.6762 36.7703 32.5187ZM26.9915 24.1757H23.8797C23.6673 24.1757 23.4863 24.3305 23.453 24.5406L22.1947 32.5187C22.1696 32.6762 22.2915 32.8181 22.4505 32.8181H24.0471C24.1955 32.8181 24.3225 32.7098 24.3456 32.5625L24.7027 30.301C24.7355 30.0903 24.917 29.9357 25.1294 29.9357H26.1138C28.1637 29.9357 29.3463 28.9439 29.6555 26.9787C29.7951 26.1189 29.661 25.4433 29.2585 24.97C28.8166 24.4507 28.0328 24.1757 26.9915 24.1757ZM27.3505 27.0896C27.1808 28.206 26.3277 28.206 25.5025 28.206H25.0334L25.3633 26.121C25.3829 25.9951 25.4911 25.9022 25.6189 25.9022H25.8341C26.3955 25.9022 26.9261 25.9022 27.1997 26.2225C27.3631 26.4136 27.4128 26.6974 27.3505 27.0896ZM36.2909 27.0538H34.8021C34.6741 27.0538 34.5654 27.1467 34.5463 27.2728L34.4804 27.6894L34.3758 27.5385C34.0532 27.0702 33.3345 26.9138 32.6166 26.9138C30.9701 26.9138 29.5644 28.1608 29.2905 29.91C29.1486 30.7825 29.3501 31.6168 29.845 32.1987C30.3 32.7336 30.9488 32.9566 31.7217 32.9566C33.0482 32.9566 33.7838 32.1035 33.7838 32.1035L33.7174 32.5176C33.6924 32.6759 33.8143 32.8178 33.9741 32.8178H35.3156C35.528 32.8178 35.709 32.6631 35.7423 32.4526L36.548 27.3532C36.5726 27.1964 36.4507 27.0538 36.2909 27.0538ZM34.2143 29.9536C34.0713 30.8048 33.3949 31.3762 32.5332 31.3762C32.1014 31.3762 31.7549 31.2374 31.5328 30.9745C31.3126 30.7134 31.2299 30.3416 31.2991 29.9277C31.4341 29.0837 32.1202 28.4938 32.9686 28.4938C33.3918 28.4938 33.7356 28.6343 33.9623 28.8995C34.1901 29.1675 34.2802 29.5414 34.2143 29.9536Z" fill="#179BD7"/>
<path d="M16.3153 21.3215L16.6978 18.892L15.8458 18.8722H11.7773L14.6047 0.944536C14.6134 0.890409 14.642 0.839946 14.6837 0.804114C14.7254 0.768283 14.7788 0.748535 14.8344 0.748535H21.6944C23.9719 0.748535 25.5435 1.22245 26.3641 2.15784C26.7487 2.59667 26.9938 3.05521 27.1123 3.55985C27.2365 4.08936 27.2389 4.72198 27.1174 5.49356L27.1085 5.54987V6.04425L27.4934 6.26221C27.8174 6.43406 28.0746 6.6308 28.2721 6.85606C28.6014 7.23124 28.8142 7.70809 28.9041 8.27342C28.997 8.85485 28.9662 9.5467 28.8142 10.33C28.6386 11.231 28.3549 12.0158 27.9717 12.6579C27.6191 13.2496 27.17 13.7402 26.637 14.1206C26.1279 14.4819 25.5231 14.7562 24.8393 14.9318C24.1765 15.1042 23.4212 15.1913 22.5925 15.1913H22.0586C21.6769 15.1913 21.306 15.3288 21.015 15.5753C20.7233 15.8269 20.53 16.1705 20.4708 16.5465L20.4306 16.7652L19.7548 21.0471L19.7241 21.2044C19.7161 21.2543 19.7022 21.2792 19.6818 21.296C19.6635 21.3111 19.6372 21.3215 19.6115 21.3215H16.3153Z" fill="#253B80"/>
<path d="M27.8577 5.60693C27.8373 5.73784 27.8139 5.87167 27.7876 6.00917C26.8828 10.654 23.7878 12.2586 19.8348 12.2586H17.8221C17.3387 12.2586 16.9314 12.6096 16.856 13.0865L15.8255 19.6219L15.5337 21.4743C15.4846 21.7874 15.7261 22.0697 16.0419 22.0697H19.6118C20.0345 22.0697 20.3935 21.7626 20.46 21.3457L20.4952 21.1642L21.1674 16.899L21.2105 16.6651C21.2762 16.2467 21.636 15.9396 22.0588 15.9396H22.5927C26.0512 15.9396 28.7588 14.5354 29.5501 10.4719C29.8807 8.77441 29.7095 7.35706 28.8348 6.36022C28.5701 6.05963 28.2417 5.81024 27.8577 5.60693Z" fill="#179BD7"/>
<path d="M26.9109 5.22999C26.7728 5.18976 26.63 5.15319 26.4837 5.12028C26.3368 5.08812 26.186 5.05959 26.0311 5.03473C25.4883 4.94696 24.8938 4.90527 24.2567 4.90527H18.8799C18.7475 4.90527 18.6218 4.93525 18.5092 4.98938C18.2612 5.10858 18.0769 5.34336 18.0323 5.63077L16.8883 12.8756L16.8555 13.0869C16.9308 12.6101 17.3382 12.259 17.8216 12.259H19.8342C23.7873 12.259 26.8824 10.6537 27.7871 6.00961C27.814 5.87212 27.8368 5.73829 27.8572 5.60738C27.6283 5.48597 27.3803 5.38212 27.1134 5.29361C27.0477 5.27167 26.9797 5.25047 26.9109 5.22999Z" fill="#222D65"/>
<path d="M18.0311 5.63069C18.0758 5.34326 18.2602 5.1085 18.508 4.99001C18.6215 4.93589 18.7465 4.90591 18.8787 4.90591H24.2558C24.8928 4.90591 25.4874 4.94759 26.0299 5.03536C26.185 5.06022 26.3358 5.08875 26.4827 5.12092C26.629 5.15384 26.7716 5.19041 26.9099 5.23062C26.9785 5.25111 27.0465 5.27231 27.1131 5.29353C27.38 5.38201 27.628 5.4866 27.8568 5.60728C28.1261 3.89079 27.8547 2.72209 26.9267 1.66381C25.9036 0.49878 24.0568 0 21.6939 0H14.8337C14.3509 0 13.9393 0.351032 13.8646 0.828613L11.0073 18.9406C10.9509 19.2989 11.2273 19.6223 11.5886 19.6223H15.824L16.8873 12.8755L18.0311 5.63069Z" fill="#253B80"/>
</svg>
