<svg width="8" height="14" viewBox="0 0 8 14" fill="none" xmlns="http://www.w3.org/2000/svg">
<path d="M7.64062 6.78125C7.64062 6.88021 7.61979 6.97396 7.57812 7.0625C7.54167 7.14583 7.48698 7.22396 7.41406 7.29688L1.22656 13.3516C1.08594 13.4922 0.914062 13.5625 0.710938 13.5625C0.580729 13.5625 0.460938 13.5312 0.351562 13.4688C0.242188 13.4062 0.15625 13.3203 0.09375 13.2109C0.03125 13.1068 0 12.987 0 12.8516C0 12.6589 0.0677083 12.4896 0.203125 12.3438L5.89062 6.78125L0.203125 1.21875C0.0677083 1.07292 0 0.903646 0 0.710938C0 0.575521 0.03125 0.455729 0.09375 0.351562C0.15625 0.242188 0.242188 0.15625 0.351562 0.09375C0.460938 0.03125 0.580729 0 0.710938 0C0.914062 0 1.08594 0.0677083 1.22656 0.203125L7.41406 6.26562C7.48698 6.33854 7.54167 6.41927 7.57812 6.50781C7.61979 6.59115 7.64062 6.68229 7.64062 6.78125Z" fill="#3C3C43" fill-opacity="0.3"/>
</svg>
