<svg width="22" height="21" viewBox="0 0 22 21" fill="none" xmlns="http://www.w3.org/2000/svg">
<path d="M3.32812 15.4375C2.51042 15.4375 1.89583 15.237 1.48438 14.8359C1.07812 14.4297 0.875 13.8229 0.875 13.0156V5.10938C0.875 4.30208 1.07812 3.69792 1.48438 3.29688C1.89583 2.89062 2.51042 2.6875 3.32812 2.6875H14.7266C15.5391 2.6875 16.1484 2.89062 16.5547 3.29688C16.9661 3.70312 17.1719 4.30729 17.1719 5.10938V9.70312H15.9141V5.17969C15.9141 4.77344 15.8073 4.46615 15.5938 4.25781C15.3854 4.04948 15.0885 3.94531 14.7031 3.94531H3.34375C2.95312 3.94531 2.65365 4.04948 2.44531 4.25781C2.23698 4.46615 2.13281 4.77344 2.13281 5.17969V12.9453C2.13281 13.3516 2.23698 13.6589 2.44531 13.8672C2.65365 14.0755 2.95312 14.1797 3.34375 14.1797H9.10938V15.4375H3.32812ZM10.9922 19.0547C10.1745 19.0547 9.5599 18.8516 9.14844 18.4453C8.74219 18.0443 8.53906 17.4401 8.53906 16.6328V11.5703C8.53906 10.763 8.74219 10.1589 9.14844 9.75781C9.5599 9.35156 10.1745 9.14844 10.9922 9.14844H18.6719C19.4844 9.14844 20.0938 9.35156 20.5 9.75781C20.9115 10.1589 21.1172 10.763 21.1172 11.5703V16.6328C21.1172 17.4349 20.9115 18.0391 20.5 18.4453C20.0938 18.8516 19.4844 19.0547 18.6719 19.0547H10.9922ZM7.02344 6.01562L7.46094 8.83594C7.48177 8.97135 7.44531 9.09115 7.35156 9.19531C7.2474 9.28906 7.1276 9.32552 6.99219 9.30469L4.17188 8.86719C4.05208 8.85156 3.95052 8.77865 3.86719 8.64844C3.78385 8.51823 3.82031 8.3776 3.97656 8.22656L4.83594 7.35938L3.55469 6.08594C3.46094 5.99219 3.41406 5.8776 3.41406 5.74219C3.41406 5.60677 3.46094 5.49219 3.55469 5.39844C3.64844 5.30469 3.76302 5.25781 3.89844 5.25781C4.03385 5.25781 4.14844 5.30469 4.24219 5.39844L5.51562 6.67969L6.38281 5.82031C6.53385 5.66406 6.67448 5.6276 6.80469 5.71094C6.9349 5.79427 7.00781 5.89583 7.02344 6.01562Z" fill="white"/>
<path d="M3.32812 15.4375C2.51042 15.4375 1.89583 15.237 1.48438 14.8359C1.07812 14.4297 0.875 13.8229 0.875 13.0156V5.10938C0.875 4.30208 1.07812 3.69792 1.48438 3.29688C1.89583 2.89062 2.51042 2.6875 3.32812 2.6875H14.7266C15.5391 2.6875 16.1484 2.89062 16.5547 3.29688C16.9661 3.70312 17.1719 4.30729 17.1719 5.10938V9.70312H15.9141V5.17969C15.9141 4.77344 15.8073 4.46615 15.5938 4.25781C15.3854 4.04948 15.0885 3.94531 14.7031 3.94531H3.34375C2.95312 3.94531 2.65365 4.04948 2.44531 4.25781C2.23698 4.46615 2.13281 4.77344 2.13281 5.17969V12.9453C2.13281 13.3516 2.23698 13.6589 2.44531 13.8672C2.65365 14.0755 2.95312 14.1797 3.34375 14.1797H9.10938V15.4375H3.32812ZM10.9922 19.0547C10.1745 19.0547 9.5599 18.8516 9.14844 18.4453C8.74219 18.0443 8.53906 17.4401 8.53906 16.6328V11.5703C8.53906 10.763 8.74219 10.1589 9.14844 9.75781C9.5599 9.35156 10.1745 9.14844 10.9922 9.14844H18.6719C19.4844 9.14844 20.0938 9.35156 20.5 9.75781C20.9115 10.1589 21.1172 10.763 21.1172 11.5703V16.6328C21.1172 17.4349 20.9115 18.0391 20.5 18.4453C20.0938 18.8516 19.4844 19.0547 18.6719 19.0547H10.9922ZM7.02344 6.01562L7.46094 8.83594C7.48177 8.97135 7.44531 9.09115 7.35156 9.19531C7.2474 9.28906 7.1276 9.32552 6.99219 9.30469L4.17188 8.86719C4.05208 8.85156 3.95052 8.77865 3.86719 8.64844C3.78385 8.51823 3.82031 8.3776 3.97656 8.22656L4.83594 7.35938L3.55469 6.08594C3.46094 5.99219 3.41406 5.8776 3.41406 5.74219C3.41406 5.60677 3.46094 5.49219 3.55469 5.39844C3.64844 5.30469 3.76302 5.25781 3.89844 5.25781C4.03385 5.25781 4.14844 5.30469 4.24219 5.39844L5.51562 6.67969L6.38281 5.82031C6.53385 5.66406 6.67448 5.6276 6.80469 5.71094C6.9349 5.79427 7.00781 5.89583 7.02344 6.01562Z" fill="white"/>
</svg>
