<svg width="17" height="16" viewBox="0 0 17 16" fill="none" xmlns="http://www.w3.org/2000/svg">
<path d="M1.26709 5.02441C1.06689 5.02441 0.910645 4.96338 0.79834 4.84131C0.686035 4.71924 0.629883 4.58252 0.629883 4.43115C0.629883 4.20166 0.761719 4.01367 1.02539 3.86719L7.28027 0.256348C7.56836 0.0854492 7.86621 0 8.17383 0C8.48145 0 8.78174 0.0854492 9.07471 0.256348L15.3296 3.86719C15.5933 4.01855 15.7251 4.20654 15.7251 4.43115C15.7251 4.58252 15.6689 4.71924 15.5566 4.84131C15.4443 4.96338 15.2881 5.02441 15.0879 5.02441H1.26709ZM2.93701 4.13818L2.86377 3.91846H13.4912L13.418 4.13818L8.4668 1.35498C8.36426 1.30127 8.2666 1.27441 8.17383 1.27441C8.07617 1.27441 7.98096 1.30127 7.88818 1.35498L2.93701 4.13818ZM1.66992 6.54053C1.5332 6.54053 1.42578 6.50391 1.34766 6.43066C1.27441 6.35742 1.23779 6.25244 1.23779 6.11572V6.01318C1.23779 5.87646 1.27441 5.77148 1.34766 5.69824C1.42578 5.62012 1.5332 5.58105 1.66992 5.58105H3.62549C3.76221 5.58105 3.86719 5.62012 3.94043 5.69824C4.01855 5.77148 4.05762 5.87646 4.05762 6.01318V6.11572C4.05762 6.25244 4.01855 6.35742 3.94043 6.43066C3.86719 6.50391 3.76221 6.54053 3.62549 6.54053H1.66992ZM2.09473 13.1323V6.33545H3.20068V13.1323H2.09473ZM1.66992 13.8867C1.5332 13.8867 1.42578 13.8477 1.34766 13.7695C1.27441 13.6963 1.23779 13.5913 1.23779 13.4546V13.3521C1.23779 13.2153 1.27441 13.1104 1.34766 13.0371C1.42578 12.9639 1.5332 12.9272 1.66992 12.9272H3.62549C3.76221 12.9272 3.86719 12.9639 3.94043 13.0371C4.01855 13.1104 4.05762 13.2153 4.05762 13.3521V13.4546C4.05762 13.5913 4.01855 13.6963 3.94043 13.7695C3.86719 13.8477 3.76221 13.8867 3.62549 13.8867H1.66992ZM5.36133 6.54053C5.22461 6.54053 5.11719 6.50391 5.03906 6.43066C4.96582 6.35742 4.9292 6.25244 4.9292 6.11572V6.01318C4.9292 5.87646 4.96582 5.77148 5.03906 5.69824C5.11719 5.62012 5.22461 5.58105 5.36133 5.58105H7.30957C7.44629 5.58105 7.55127 5.62012 7.62451 5.69824C7.70264 5.77148 7.7417 5.87646 7.7417 6.01318V6.11572C7.7417 6.25244 7.70264 6.35742 7.62451 6.43066C7.55127 6.50391 7.44629 6.54053 7.30957 6.54053H5.36133ZM5.77881 13.1323V6.33545H6.88477V13.1323H5.77881ZM5.36133 13.8867C5.22461 13.8867 5.11719 13.8477 5.03906 13.7695C4.96582 13.6963 4.9292 13.5913 4.9292 13.4546V13.3521C4.9292 13.2153 4.96582 13.1104 5.03906 13.0371C5.11719 12.9639 5.22461 12.9272 5.36133 12.9272H7.30957C7.44629 12.9272 7.55127 12.9639 7.62451 13.0371C7.70264 13.1104 7.7417 13.2153 7.7417 13.3521V13.4546C7.7417 13.5913 7.70264 13.6963 7.62451 13.7695C7.55127 13.8477 7.44629 13.8867 7.30957 13.8867H5.36133ZM9.04541 6.54053C8.90869 6.54053 8.80127 6.50391 8.72314 6.43066C8.6499 6.35742 8.61328 6.25244 8.61328 6.11572V6.01318C8.61328 5.87646 8.6499 5.77148 8.72314 5.69824C8.80127 5.62012 8.90869 5.58105 9.04541 5.58105H10.9937C11.1353 5.58105 11.2427 5.62012 11.3159 5.69824C11.394 5.77148 11.4331 5.87646 11.4331 6.01318V6.11572C11.4331 6.25244 11.394 6.35742 11.3159 6.43066C11.2427 6.50391 11.1353 6.54053 10.9937 6.54053H9.04541ZM9.47021 13.1323V6.33545H10.5762V13.1323H9.47021ZM9.04541 13.8867C8.75732 13.8867 8.61328 13.7427 8.61328 13.4546V13.3521C8.61328 13.2153 8.6499 13.1104 8.72314 13.0371C8.80127 12.9639 8.90869 12.9272 9.04541 12.9272H10.9937C11.1353 12.9272 11.2427 12.9639 11.3159 13.0371C11.394 13.1104 11.4331 13.2153 11.4331 13.3521V13.4546C11.4331 13.5913 11.394 13.6963 11.3159 13.7695C11.2427 13.8477 11.1353 13.8867 10.9937 13.8867H9.04541ZM12.7295 6.54053C12.5928 6.54053 12.4854 6.50391 12.4072 6.43066C12.334 6.35742 12.2974 6.25244 12.2974 6.11572V6.01318C12.2974 5.87646 12.334 5.77148 12.4072 5.69824C12.4854 5.62012 12.5928 5.58105 12.7295 5.58105H14.6851C14.8218 5.58105 14.9268 5.62012 15 5.69824C15.0781 5.77148 15.1172 5.87646 15.1172 6.01318V6.11572C15.1172 6.25244 15.0781 6.35742 15 6.43066C14.9268 6.50391 14.8218 6.54053 14.6851 6.54053H12.7295ZM13.1616 13.1323V6.33545H14.2676V13.1323H13.1616ZM12.7295 13.8867C12.4414 13.8867 12.2974 13.7427 12.2974 13.4546V13.3521C12.2974 13.2153 12.334 13.1104 12.4072 13.0371C12.4854 12.9639 12.5928 12.9272 12.7295 12.9272H14.6851C14.8218 12.9272 14.9268 12.9639 15 13.0371C15.0781 13.1104 15.1172 13.2153 15.1172 13.3521V13.4546C15.1172 13.5913 15.0781 13.6963 15 13.7695C14.9268 13.8477 14.8218 13.8867 14.6851 13.8867H12.7295ZM0.585938 15.6299C0.424805 15.6299 0.285645 15.5713 0.168457 15.4541C0.0561523 15.3369 0 15.1978 0 15.0366C0 14.8755 0.0561523 14.7363 0.168457 14.6191C0.285645 14.5068 0.424805 14.4507 0.585938 14.4507H15.7617C15.9229 14.4507 16.062 14.5068 16.1792 14.6191C16.2964 14.7363 16.355 14.8755 16.355 15.0366C16.355 15.1978 16.2964 15.3369 16.1792 15.4541C16.062 15.5713 15.9229 15.6299 15.7617 15.6299H0.585938Z" fill="#00A19A"/>
</svg>
