<svg width="18" height="14" viewBox="0 0 18 14" fill="none" xmlns="http://www.w3.org/2000/svg">
<path d="M3.90381 0.227051C4.04053 0.0756836 4.2041 0.00244141 4.39453 0.00732422C4.58496 0.00732422 4.74854 0.0805664 4.88525 0.227051L8.57666 3.99902C8.71338 4.14062 8.78174 4.30176 8.78174 4.48242C8.78174 4.67773 8.7207 4.83643 8.59863 4.9585C8.48145 5.07568 8.32764 5.13428 8.13721 5.13428C7.95654 5.13428 7.80518 5.0708 7.68311 4.94385L6.15234 3.36914L4.98047 2.00684L5.04639 3.69873V13.1104C5.04639 13.3008 4.98535 13.457 4.86328 13.5791C4.74121 13.7061 4.58496 13.7695 4.39453 13.7695C4.19922 13.7695 4.04053 13.7061 3.91846 13.5791C3.79639 13.457 3.73535 13.3008 3.73535 13.1104V3.69873L3.80859 2.00684L2.62939 3.36914L1.10596 4.94385C0.979004 5.0708 0.825195 5.13428 0.644531 5.13428C0.454102 5.13428 0.297852 5.07568 0.175781 4.9585C0.0585938 4.83643 0 4.67773 0 4.48242C0 4.30176 0.0683594 4.14062 0.205078 3.99902L3.90381 0.227051ZM13.2422 13.5571C13.1006 13.7036 12.9346 13.7744 12.7441 13.7695C12.5586 13.7695 12.3975 13.6987 12.2607 13.5571L8.56934 9.77051C8.42773 9.63379 8.35693 9.47266 8.35693 9.28711C8.35693 9.0918 8.41797 8.93555 8.54004 8.81836C8.66211 8.70117 8.81836 8.64258 9.00879 8.64258C9.18457 8.64258 9.33594 8.70361 9.46289 8.82568L10.9863 10.4004L12.1655 11.77L12.0923 10.0781V0.666504C12.0923 0.476074 12.1533 0.319824 12.2754 0.197754C12.4023 0.0708008 12.561 0.00732422 12.7515 0.00732422C12.9419 0.00732422 13.0981 0.0708008 13.2202 0.197754C13.3423 0.319824 13.4033 0.476074 13.4033 0.666504V10.0781L13.3374 11.77L14.5166 10.4004L16.04 8.82568C16.1621 8.70361 16.3135 8.64258 16.4941 8.64258C16.6846 8.64258 16.8384 8.70117 16.9556 8.81836C17.0776 8.93555 17.1387 9.0918 17.1387 9.28711C17.1387 9.47266 17.0703 9.63379 16.9336 9.77051L13.2422 13.5571Z" fill="#00A19A"/>
</svg>
