<svg width="15" height="14" viewBox="0 0 15 14" fill="none" xmlns="http://www.w3.org/2000/svg">
<path d="M2.2998 13.4839C1.5332 13.4839 0.957031 13.2935 0.571289 12.9126C0.19043 12.5366 0 11.9702 0 11.2134V2.27051C0 1.51367 0.19043 0.947266 0.571289 0.571289C0.957031 0.19043 1.5332 0 2.2998 0H12.3047C13.0713 0 13.645 0.19043 14.0259 0.571289C14.4067 0.947266 14.5972 1.51367 14.5972 2.27051V11.2134C14.5972 11.9702 14.4067 12.5366 14.0259 12.9126C13.645 13.2935 13.0713 13.4839 12.3047 13.4839H2.2998ZM2.18994 12.3047H12.3999C12.7271 12.3047 12.9785 12.2168 13.1543 12.041C13.3301 11.8701 13.418 11.6162 13.418 11.2793V4.37256C13.418 4.03564 13.3301 3.78174 13.1543 3.61084C12.9785 3.43506 12.7271 3.34717 12.3999 3.34717H2.18994C1.86768 3.34717 1.61865 3.43506 1.44287 3.61084C1.26709 3.78174 1.1792 4.03564 1.1792 4.37256V11.2793C1.1792 11.6162 1.26709 11.8701 1.44287 12.041C1.61865 12.2168 1.86768 12.3047 2.18994 12.3047ZM5.87402 5.98389C5.74707 5.98389 5.65674 5.95947 5.60303 5.91064C5.5542 5.86182 5.52979 5.77393 5.52979 5.64697V5.21484C5.52979 5.08789 5.5542 5.00244 5.60303 4.9585C5.65674 4.90967 5.74707 4.88525 5.87402 4.88525H6.30615C6.43311 4.88525 6.521 4.90967 6.56982 4.9585C6.62354 5.00244 6.65039 5.08789 6.65039 5.21484V5.64697C6.65039 5.77393 6.62354 5.86182 6.56982 5.91064C6.521 5.95947 6.43311 5.98389 6.30615 5.98389H5.87402ZM8.30566 5.98389C8.17871 5.98389 8.09082 5.95947 8.04199 5.91064C7.99316 5.86182 7.96875 5.77393 7.96875 5.64697V5.21484C7.96875 5.08789 7.99316 5.00244 8.04199 4.9585C8.09082 4.90967 8.17871 4.88525 8.30566 4.88525H8.73779C8.86963 4.88525 8.95996 4.90967 9.00879 4.9585C9.05762 5.00244 9.08203 5.08789 9.08203 5.21484V5.64697C9.08203 5.77393 9.05762 5.86182 9.00879 5.91064C8.95996 5.95947 8.86963 5.98389 8.73779 5.98389H8.30566ZM10.7446 5.98389C10.6128 5.98389 10.5225 5.95947 10.4736 5.91064C10.4248 5.86182 10.4004 5.77393 10.4004 5.64697V5.21484C10.4004 5.08789 10.4248 5.00244 10.4736 4.9585C10.5225 4.90967 10.6128 4.88525 10.7446 4.88525H11.1694C11.3013 4.88525 11.3916 4.90967 11.4404 4.9585C11.4893 5.00244 11.5137 5.08789 11.5137 5.21484V5.64697C11.5137 5.77393 11.4893 5.86182 11.4404 5.91064C11.3916 5.95947 11.3013 5.98389 11.1694 5.98389H10.7446ZM3.44238 8.37891C3.31055 8.37891 3.22021 8.35449 3.17139 8.30566C3.12256 8.25684 3.09814 8.16895 3.09814 8.04199V7.61719C3.09814 7.48535 3.12256 7.39746 3.17139 7.35352C3.22021 7.30469 3.31055 7.28027 3.44238 7.28027H3.87451C4.00146 7.28027 4.08936 7.30469 4.13818 7.35352C4.18701 7.39746 4.21143 7.48535 4.21143 7.61719V8.04199C4.21143 8.16895 4.18701 8.25684 4.13818 8.30566C4.08936 8.35449 4.00146 8.37891 3.87451 8.37891H3.44238ZM5.87402 8.37891C5.74707 8.37891 5.65674 8.35449 5.60303 8.30566C5.5542 8.25684 5.52979 8.16895 5.52979 8.04199V7.61719C5.52979 7.48535 5.5542 7.39746 5.60303 7.35352C5.65674 7.30469 5.74707 7.28027 5.87402 7.28027H6.30615C6.43311 7.28027 6.521 7.30469 6.56982 7.35352C6.62354 7.39746 6.65039 7.48535 6.65039 7.61719V8.04199C6.65039 8.16895 6.62354 8.25684 6.56982 8.30566C6.521 8.35449 6.43311 8.37891 6.30615 8.37891H5.87402ZM8.30566 8.37891C8.17871 8.37891 8.09082 8.35449 8.04199 8.30566C7.99316 8.25684 7.96875 8.16895 7.96875 8.04199V7.61719C7.96875 7.48535 7.99316 7.39746 8.04199 7.35352C8.09082 7.30469 8.17871 7.28027 8.30566 7.28027H8.73779C8.86963 7.28027 8.95996 7.30469 9.00879 7.35352C9.05762 7.39746 9.08203 7.48535 9.08203 7.61719V8.04199C9.08203 8.16895 9.05762 8.25684 9.00879 8.30566C8.95996 8.35449 8.86963 8.37891 8.73779 8.37891H8.30566ZM10.7446 8.37891C10.6128 8.37891 10.5225 8.35449 10.4736 8.30566C10.4248 8.25684 10.4004 8.16895 10.4004 8.04199V7.61719C10.4004 7.48535 10.4248 7.39746 10.4736 7.35352C10.5225 7.30469 10.6128 7.28027 10.7446 7.28027H11.1694C11.3013 7.28027 11.3916 7.30469 11.4404 7.35352C11.4893 7.39746 11.5137 7.48535 11.5137 7.61719V8.04199C11.5137 8.16895 11.4893 8.25684 11.4404 8.30566C11.3916 8.35449 11.3013 8.37891 11.1694 8.37891H10.7446ZM3.44238 10.7739C3.31055 10.7739 3.22021 10.752 3.17139 10.708C3.12256 10.6592 3.09814 10.5688 3.09814 10.437V10.0122C3.09814 9.88037 3.12256 9.79248 3.17139 9.74854C3.22021 9.69971 3.31055 9.67529 3.44238 9.67529H3.87451C4.00146 9.67529 4.08936 9.69971 4.13818 9.74854C4.18701 9.79248 4.21143 9.88037 4.21143 10.0122V10.437C4.21143 10.5688 4.18701 10.6592 4.13818 10.708C4.08936 10.752 4.00146 10.7739 3.87451 10.7739H3.44238ZM5.87402 10.7739C5.74707 10.7739 5.65674 10.752 5.60303 10.708C5.5542 10.6592 5.52979 10.5688 5.52979 10.437V10.0122C5.52979 9.88037 5.5542 9.79248 5.60303 9.74854C5.65674 9.69971 5.74707 9.67529 5.87402 9.67529H6.30615C6.43311 9.67529 6.521 9.69971 6.56982 9.74854C6.62354 9.79248 6.65039 9.88037 6.65039 10.0122V10.437C6.65039 10.5688 6.62354 10.6592 6.56982 10.708C6.521 10.752 6.43311 10.7739 6.30615 10.7739H5.87402ZM8.30566 10.7739C8.17871 10.7739 8.09082 10.752 8.04199 10.708C7.99316 10.6592 7.96875 10.5688 7.96875 10.437V10.0122C7.96875 9.88037 7.99316 9.79248 8.04199 9.74854C8.09082 9.69971 8.17871 9.67529 8.30566 9.67529H8.73779C8.86963 9.67529 8.95996 9.69971 9.00879 9.74854C9.05762 9.79248 9.08203 9.88037 9.08203 10.0122V10.437C9.08203 10.5688 9.05762 10.6592 9.00879 10.708C8.95996 10.752 8.86963 10.7739 8.73779 10.7739H8.30566Z" fill="#00A19A"/>
</svg>
