<svg width="23" height="23" viewBox="0 0 23 23" fill="none" xmlns="http://www.w3.org/2000/svg">
<path d="M-1.90735e-06 9.0791C-1.90735e-06 7.81934 0.234373 6.64453 0.703123 5.55469C1.17187 4.45898 1.82226 3.49512 2.65429 2.66309C3.49219 1.8252 4.45898 1.17187 5.55469 0.703125C6.65039 0.234375 7.82519 0 9.0791 0C10.3271 0 11.499 0.234375 12.5947 0.703125C13.6963 1.17187 14.6631 1.8252 15.4951 2.66309C16.3271 3.49512 16.9775 4.45898 17.4463 5.55469C17.9209 6.64453 18.1582 7.81934 18.1582 9.0791C18.1582 10.0752 18 11.0303 17.6836 11.9443C17.3672 12.8525 16.9277 13.6758 16.3652 14.4141L21.7793 19.8457C21.9141 19.9922 22.0166 20.1533 22.0869 20.3291C22.1572 20.5107 22.1924 20.7012 22.1924 20.9004C22.1924 21.1758 22.1309 21.4277 22.0078 21.6562C21.8848 21.8848 21.709 22.0664 21.4805 22.2012C21.2578 22.3359 21.0029 22.4033 20.7158 22.4033C20.5166 22.4033 20.3232 22.3652 20.1357 22.2891C19.9541 22.2188 19.79 22.1133 19.6436 21.9727L14.2031 16.5234C13.4766 17.0332 12.6797 17.4316 11.8125 17.7188C10.9453 18.0059 10.0342 18.1494 9.0791 18.1494C7.82519 18.1494 6.65039 17.915 5.55469 17.4463C4.45898 16.9717 3.49219 16.3184 2.65429 15.4863C1.82226 14.6543 1.17187 13.6904 0.703123 12.5947C0.234373 11.499 -1.90735e-06 10.3271 -1.90735e-06 9.0791ZM2.04785 9.0791C2.04785 10.0459 2.22949 10.9541 2.59277 11.8037C2.96191 12.6475 3.46582 13.3916 4.10449 14.0361C4.74902 14.6807 5.49609 15.1846 6.3457 15.5479C7.19531 15.9111 8.10644 16.0928 9.0791 16.0928C10.0459 16.0928 10.9512 15.9111 11.7949 15.5479C12.6445 15.1846 13.3916 14.6807 14.0361 14.0361C14.6807 13.3916 15.1846 12.6475 15.5478 11.8037C15.9111 10.9541 16.0928 10.0459 16.0928 9.0791C16.0928 8.10645 15.9111 7.19531 15.5478 6.3457C15.1846 5.49609 14.6807 4.74902 14.0361 4.10449C13.3916 3.45996 12.6445 2.95605 11.7949 2.59277C10.9512 2.22949 10.0459 2.04785 9.0791 2.04785C8.10644 2.04785 7.19531 2.22949 6.3457 2.59277C5.49609 2.95605 4.74902 3.45996 4.10449 4.10449C3.46582 4.74902 2.96191 5.49609 2.59277 6.3457C2.22949 7.19531 2.04785 8.10645 2.04785 9.0791ZM9.08789 13.8252C8.98242 13.8252 8.89746 13.793 8.83301 13.7285C8.76855 13.6641 8.72754 13.585 8.70996 13.4912C8.62207 12.8584 8.52539 12.3223 8.41992 11.8828C8.32031 11.4375 8.18847 11.0684 8.02441 10.7754C7.86035 10.4824 7.64062 10.248 7.36523 10.0723C7.08984 9.89062 6.73242 9.75293 6.29297 9.65918C5.85937 9.56543 5.32031 9.49219 4.67578 9.43945C4.44726 9.4043 4.33301 9.28125 4.33301 9.07031C4.33301 8.97656 4.36523 8.89746 4.42969 8.83301C4.49414 8.76855 4.57617 8.72754 4.67578 8.70996C5.32031 8.62207 5.85644 8.52832 6.28418 8.42871C6.71191 8.32324 7.06054 8.18555 7.33008 8.01562C7.59961 7.83984 7.8164 7.61426 7.98047 7.33887C8.14453 7.05762 8.27929 6.7002 8.38476 6.2666C8.49609 5.83301 8.60449 5.29688 8.70996 4.6582C8.7334 4.55859 8.77734 4.47949 8.84179 4.4209C8.90625 4.35645 8.98828 4.32422 9.08789 4.32422C9.18164 4.32422 9.26074 4.35645 9.32519 4.4209C9.38965 4.48535 9.43066 4.56445 9.44824 4.6582C9.54785 5.29102 9.64746 5.82422 9.74707 6.25781C9.85254 6.68555 9.9873 7.04004 10.1514 7.32129C10.3213 7.60254 10.5439 7.83105 10.8193 8.00684C11.0947 8.17676 11.4463 8.31445 11.874 8.41992C12.3076 8.52539 12.8467 8.62207 13.4912 8.70996C13.5908 8.72754 13.6728 8.76855 13.7373 8.83301C13.8018 8.89746 13.834 8.97656 13.834 9.07031C13.834 9.28125 13.7197 9.4043 13.4912 9.43945C12.8467 9.52148 12.3076 9.61523 11.874 9.7207C11.4463 9.82031 11.0977 9.95801 10.8281 10.1338C10.5586 10.3096 10.3418 10.5381 10.1777 10.8193C10.0137 11.0947 9.87597 11.4521 9.76465 11.8916C9.65918 12.3252 9.55371 12.8613 9.44824 13.5C9.43066 13.5879 9.38965 13.6641 9.32519 13.7285C9.26074 13.793 9.18164 13.8252 9.08789 13.8252Z" fill="#00A19A"/>
</svg>
