<svg width="32" height="28" viewBox="0 0 32 28" fill="none" xmlns="http://www.w3.org/2000/svg">
<path d="M15.5479 15.2578C15.0615 15.2637 14.5664 15.2051 14.0625 15.082C13.5586 14.9531 12.999 14.748 12.3838 14.4668L1.13379 9.3252C0.764648 9.16113 0.483398 8.92676 0.290039 8.62207C0.0966797 8.31738 0 7.98926 0 7.6377C0 7.28613 0.0966797 6.95801 0.290039 6.65332C0.483398 6.34863 0.764648 6.11133 1.13379 5.94141L12.3838 0.799805C12.999 0.518555 13.5586 0.316406 14.0625 0.193359C14.5664 0.0644531 15.0615 0.00292969 15.5479 0.00878906C16.0283 0.00292969 16.5205 0.0644531 17.0244 0.193359C17.5342 0.316406 18.0967 0.518555 18.7119 0.799805L29.9531 5.94141C30.3223 6.11133 30.6035 6.34863 30.7969 6.65332C30.9902 6.95801 31.0869 7.28613 31.0869 7.6377C31.0869 7.98926 30.9902 8.31738 30.7969 8.62207C30.6035 8.92676 30.3223 9.16113 29.9531 9.3252L18.7119 14.4668C18.0967 14.748 17.5342 14.9531 17.0244 15.082C16.5205 15.2051 16.0283 15.2637 15.5479 15.2578ZM15.5479 13.3506C15.9229 13.3506 16.2979 13.3037 16.6729 13.21C17.0479 13.1104 17.4785 12.9463 17.9648 12.7178L28.3096 8.00684C28.5029 7.91895 28.5996 7.7959 28.5996 7.6377C28.5996 7.47363 28.5029 7.35059 28.3096 7.26855L17.9648 2.55762C17.4785 2.33496 17.0479 2.17383 16.6729 2.07422C16.2979 1.97461 15.9229 1.9248 15.5479 1.9248C15.1729 1.9248 14.7949 1.97461 14.4141 2.07422C14.0391 2.17383 13.6084 2.33496 13.1221 2.55762L2.77734 7.26855C2.58398 7.35059 2.4873 7.47363 2.4873 7.6377C2.4873 7.7959 2.58398 7.91895 2.77734 8.00684L13.1221 12.7178C13.6084 12.9463 14.0391 13.1104 14.4141 13.21C14.7949 13.3037 15.1729 13.3506 15.5479 13.3506ZM4.55273 16.0664V10.1865H6.45117V16.0664C6.45117 16.6172 6.66211 17.1562 7.08398 17.6836C7.50586 18.2168 8.1123 18.6943 8.90332 19.1162C9.7002 19.5439 10.6582 19.8838 11.7773 20.1357C12.8965 20.3877 14.1533 20.5137 15.5479 20.5137C16.9365 20.5137 18.1875 20.3877 19.3008 20.1357C20.4199 19.8838 21.3779 19.5439 22.1748 19.1162C22.9717 18.6943 23.5811 18.2168 24.0029 17.6836C24.4307 17.1562 24.6445 16.6172 24.6445 16.0664V10.1865H26.5254V16.0664C26.5254 16.8984 26.2646 17.6895 25.7432 18.4395C25.2275 19.1895 24.4863 19.8545 23.5195 20.4346C22.5527 21.0146 21.3955 21.4717 20.0479 21.8057C18.7002 22.1396 17.2002 22.3066 15.5479 22.3066C13.8955 22.3066 12.3926 22.1396 11.0391 21.8057C9.69141 21.4717 8.53418 21.0146 7.56738 20.4346C6.60059 19.8545 5.85645 19.1895 5.33496 18.4395C4.81348 17.6895 4.55273 16.8984 4.55273 16.0664ZM15.5742 8.99121C15.1465 8.99121 14.7422 8.93262 14.3613 8.81543C13.9863 8.69238 13.6816 8.52832 13.4473 8.32324C13.2129 8.11816 13.0957 7.88672 13.0957 7.62891C13.0957 7.37695 13.2129 7.15137 13.4473 6.95215C13.6816 6.75293 13.9863 6.59473 14.3613 6.47754C14.7422 6.36035 15.1465 6.30176 15.5742 6.30176C16.0078 6.30176 16.4121 6.36035 16.7871 6.47754C17.1621 6.59473 17.4639 6.75293 17.6924 6.95215C17.9268 7.15137 18.0439 7.37695 18.0439 7.62891C18.0439 7.88672 17.9268 8.11816 17.6924 8.32324C17.4639 8.52832 17.1621 8.69238 16.7871 8.81543C16.4121 8.93262 16.0078 8.99121 15.5742 8.99121ZM8.79785 11.7598L7.32129 10.9775L14.7217 7.21582L15.3721 8.38477L8.79785 11.7598ZM7.32129 22.6758V11.0127L8.79785 11.7598V22.6846L7.32129 22.6758ZM6.35449 22.834C6.35449 22.3828 6.48633 22.0225 6.75 21.7529C7.01953 21.4834 7.38281 21.3486 7.83984 21.3486H8.27051C8.71582 21.3486 9.07324 21.4834 9.34277 21.7529C9.61816 22.0225 9.75586 22.3828 9.75586 22.834V25.875C9.75586 26.332 9.61816 26.6953 9.34277 26.9648C9.07324 27.2344 8.71582 27.3691 8.27051 27.3691H7.83984C7.38281 27.3691 7.01953 27.2344 6.75 26.9648C6.48633 26.6953 6.35449 26.332 6.35449 25.875V22.834Z" fill="#999999"/>
</svg>
