<svg width="27" height="25" viewBox="0 0 27 25" fill="none" xmlns="http://www.w3.org/2000/svg">
<path d="M3.83203 13.6055C3.11719 13.6055 2.46972 13.4355 1.88965 13.0957C1.30957 12.7559 0.849607 12.2988 0.509764 11.7246C0.16992 11.1504 -1.90735e-06 10.5088 -1.90735e-06 9.7998V9.59766C-1.90735e-06 9.38672 0.0263653 9.18457 0.0790997 8.99121C0.131834 8.79785 0.210936 8.61035 0.316404 8.42871L3.32226 3.24316V2.3291C3.32226 1.59668 3.5332 1.02539 3.95508 0.615234C4.37695 0.205078 4.9541 0 5.68652 0H20.3203C21.0586 0 21.6387 0.205078 22.0605 0.615234C22.4824 1.02539 22.6934 1.59668 22.6934 2.3291V3.24316L25.6904 8.42871C25.9072 8.79199 26.0156 9.18164 26.0156 9.59766V9.7998C26.0098 10.5088 25.8369 11.1504 25.4971 11.7246C25.1572 12.2988 24.6973 12.7559 24.1172 13.0957C23.543 13.4355 22.8984 13.6055 22.1836 13.6055C21.5391 13.6055 20.9502 13.4648 20.417 13.1836C19.8838 12.9023 19.4531 12.5244 19.125 12.0498C18.791 12.5244 18.3574 12.9023 17.8242 13.1836C17.2969 13.4648 16.7109 13.6055 16.0664 13.6055C15.416 13.6055 14.8242 13.4648 14.291 13.1836C13.7637 12.9023 13.3359 12.5215 13.0078 12.041C12.6797 12.5215 12.249 12.9023 11.7158 13.1836C11.1826 13.4648 10.5937 13.6055 9.94922 13.6055C9.30469 13.6055 8.71582 13.4648 8.18262 13.1836C7.65527 12.9023 7.22754 12.5244 6.89941 12.0498C6.56543 12.5244 6.13183 12.9023 5.59863 13.1836C5.06543 13.4648 4.47656 13.6055 3.83203 13.6055ZM5.12402 2.83887H20.8916V2.58398C20.8916 2.31445 20.8184 2.10352 20.6719 1.95117C20.5254 1.79883 20.3174 1.72266 20.0478 1.72266H5.96777C5.69824 1.72266 5.49023 1.79883 5.34375 1.95117C5.19726 2.10352 5.12402 2.31445 5.12402 2.58398V2.83887ZM2.08301 8.94727H23.915L21.4365 4.59668H4.51758L2.08301 8.94727ZM1.66992 10.5205C1.74609 10.8193 1.87793 11.0859 2.06543 11.3203C2.25879 11.5547 2.50195 11.7363 2.79492 11.8652C3.08789 11.9941 3.43359 12.0586 3.83203 12.0586C4.23047 12.0586 4.57617 11.9941 4.86914 11.8652C5.16797 11.7363 5.41113 11.5547 5.59863 11.3203C5.79199 11.0859 5.92676 10.8193 6.00293 10.5205H1.66992ZM7.77832 10.5205C7.85449 10.8193 7.98633 11.0859 8.17383 11.3203C8.36719 11.5547 8.61328 11.7363 8.91211 11.8652C9.21094 11.9941 9.55664 12.0586 9.94922 12.0586C10.3418 12.0586 10.6875 11.9941 10.9863 11.8652C11.2852 11.7363 11.5283 11.5547 11.7158 11.3203C11.9092 11.0859 12.0439 10.8193 12.1201 10.5205H7.77832ZM13.8955 10.5205C13.9717 10.8193 14.1035 11.0859 14.291 11.3203C14.4844 11.5547 14.7275 11.7363 15.0205 11.8652C15.3193 11.9941 15.668 12.0586 16.0664 12.0586C16.4648 12.0586 16.8105 11.9941 17.1035 11.8652C17.4023 11.7363 17.6455 11.5547 17.833 11.3203C18.0264 11.0859 18.1611 10.8193 18.2373 10.5205H13.8955ZM20.0039 10.5205C20.0801 10.8193 20.2119 11.0859 20.3994 11.3203C20.5928 11.5547 20.8389 11.7363 21.1377 11.8652C21.4365 11.9941 21.7852 12.0586 22.1836 12.0586C22.5762 12.0586 22.9189 11.9941 23.2119 11.8652C23.5107 11.7363 23.7539 11.5547 23.9414 11.3203C24.1348 11.0859 24.2695 10.8193 24.3457 10.5205H20.0039ZM4.53515 24.7588C3.70898 24.7588 3.06738 24.5361 2.61035 24.0908C2.15918 23.6514 1.93359 23.0303 1.93359 22.2275V12.7178L3.87597 12.7441V21.6475C3.87597 22.0283 3.97265 22.3184 4.16601 22.5176C4.36523 22.7227 4.65527 22.8252 5.03613 22.8252H20.9707C21.3574 22.8252 21.6475 22.7227 21.8408 22.5176C22.04 22.3184 22.1396 22.0283 22.1396 21.6475V12.7529L24.0732 12.6562V22.2275C24.0732 23.0244 23.8477 23.6455 23.3965 24.0908C22.9453 24.5361 22.3066 24.7588 21.4805 24.7588H4.53515ZM5.72168 24.0117V16.5586C5.72168 16.3008 5.79785 16.0986 5.95019 15.9521C6.1084 15.7998 6.31347 15.7236 6.56543 15.7236H11.3555C11.6074 15.7236 11.8096 15.7998 11.9619 15.9521C12.1143 16.0986 12.1904 16.3008 12.1904 16.5586V24.0117H5.72168ZM14.168 15.9346C14.168 15.6826 14.2441 15.4805 14.3965 15.3281C14.5547 15.1758 14.7598 15.0996 15.0117 15.0996H19.6523C19.9102 15.0996 20.1123 15.1758 20.2588 15.3281C20.4111 15.4805 20.4873 15.6826 20.4873 15.9346V19.1074C20.4873 19.3594 20.4111 19.5615 20.2588 19.7139C20.1123 19.8662 19.9102 19.9424 19.6523 19.9424H15.0117C14.7598 19.9424 14.5547 19.8662 14.3965 19.7139C14.2441 19.5615 14.168 19.3594 14.168 19.1074V15.9346Z" fill="#999999"/>
</svg>
