<svg width="21" height="26" viewBox="0 0 21 26" fill="none" xmlns="http://www.w3.org/2000/svg">
<path d="M4.44726 7.7168C4.26562 7.72852 4.11621 7.67578 3.99902 7.55859C3.88183 7.44141 3.82324 7.30078 3.82324 7.13672C3.82324 6.97266 3.87304 6.83203 3.97265 6.71484C4.07226 6.59766 4.22754 6.5332 4.43847 6.52148C6.00293 6.43359 7.44726 6.29004 8.77148 6.09082C10.0957 5.8916 11.3936 5.6543 12.665 5.37891C12.8936 5.33203 13.0693 5.36719 13.1924 5.48438C13.3213 5.60156 13.3857 5.74512 13.3857 5.91504C13.3857 6.06152 13.3447 6.19336 13.2627 6.31055C13.1807 6.42188 13.0195 6.50684 12.7793 6.56543C11.4551 6.84668 10.125 7.08691 8.78906 7.28613C7.45312 7.48535 6.00586 7.62891 4.44726 7.7168ZM4.44726 11.3291C4.26562 11.335 4.11621 11.2822 3.99902 11.1709C3.88183 11.0596 3.82324 10.916 3.82324 10.7402C3.82324 10.582 3.87304 10.4443 3.97265 10.3271C4.07226 10.2041 4.22754 10.1367 4.43847 10.125C6.00293 10.0371 7.44726 9.89648 8.77148 9.70312C10.0957 9.50391 11.3936 9.2666 12.665 8.99121C12.8936 8.94434 13.0693 8.97949 13.1924 9.09668C13.3213 9.21387 13.3857 9.35449 13.3857 9.51855C13.3857 9.66504 13.3447 9.79688 13.2627 9.91406C13.1807 10.0312 13.0195 10.1162 12.7793 10.1689C11.4551 10.4561 10.125 10.6992 8.78906 10.8984C7.45312 11.0977 6.00586 11.2412 4.44726 11.3291ZM4.44726 14.9326C4.26562 14.9443 4.11621 14.8916 3.99902 14.7744C3.88183 14.6572 3.82324 14.5166 3.82324 14.3525C3.82324 14.1885 3.87304 14.0479 3.97265 13.9307C4.07226 13.8135 4.22754 13.7461 4.43847 13.7285C6.00293 13.6465 7.44726 13.5059 8.77148 13.3066C10.0957 13.1074 11.3936 12.8701 12.665 12.5947C12.8936 12.5479 13.0693 12.583 13.1924 12.7002C13.3213 12.8174 13.3857 12.9609 13.3857 13.1309C13.3857 13.2773 13.3447 13.4092 13.2627 13.5264C13.1807 13.6377 13.0195 13.7227 12.7793 13.7812C11.4551 14.0625 10.125 14.3027 8.78906 14.502C7.45312 14.7012 6.00586 14.8447 4.44726 14.9326ZM4.44726 18.5361C4.26562 18.542 4.11621 18.4893 3.99902 18.3779C3.88183 18.2607 3.82324 18.1172 3.82324 17.9473C3.82324 17.7891 3.87304 17.6514 3.97265 17.5342C4.07226 17.4111 4.22754 17.3438 4.43847 17.332C5.31152 17.2852 6.06445 17.2266 6.69726 17.1562C7.33008 17.0801 7.93066 17.0039 8.49902 16.9277C8.73926 16.8809 8.9209 16.9189 9.04394 17.042C9.16699 17.165 9.22851 17.3086 9.22851 17.4727C9.22851 17.6133 9.18164 17.7451 9.08789 17.8682C8.99414 17.9854 8.85644 18.0586 8.6748 18.0879C8.05371 18.1816 7.41504 18.2695 6.75879 18.3516C6.10254 18.4277 5.33203 18.4893 4.44726 18.5361ZM-1.90735e-06 22.0605V4.91309C-1.90735e-06 3.92285 0.2666 3.17285 0.799803 2.66309C1.33887 2.14746 2.07129 1.86621 2.99707 1.81934C4.30371 1.74902 5.58105 1.64648 6.8291 1.51172C8.07715 1.37109 9.28711 1.2041 10.459 1.01074C11.6309 0.811523 12.7529 0.594727 13.8252 0.360352C14.8857 0.120117 15.7148 0.249023 16.3125 0.74707C16.9102 1.23926 17.209 2.0332 17.209 3.12891V20.0215C17.209 20.9766 17.0303 21.7002 16.6728 22.1924C16.3154 22.6904 15.7266 23.0537 14.9062 23.2822C13.5469 23.6396 12.2168 23.9268 10.916 24.1436C9.62109 24.3662 8.34082 24.5361 7.07519 24.6533C5.80957 24.7764 4.54101 24.8672 3.26953 24.9258C2.23242 24.9785 1.42676 24.7529 0.852537 24.249C0.284178 23.7451 -1.90735e-06 23.0156 -1.90735e-06 22.0605ZM1.86328 21.7529C1.86328 22.1865 1.99512 22.5146 2.25879 22.7373C2.52246 22.9658 2.88281 23.0713 3.33984 23.0537C4.58789 23.0068 5.82129 22.9248 7.04004 22.8076C8.25879 22.6904 9.45996 22.5352 10.6436 22.3418C11.8271 22.1484 12.9902 21.9023 14.1328 21.6035C14.5664 21.498 14.877 21.3193 15.0645 21.0674C15.252 20.8154 15.3457 20.4463 15.3457 19.96V3.47168C15.3457 2.99121 15.2051 2.63965 14.9238 2.41699C14.6484 2.18848 14.2676 2.12695 13.7812 2.23242C12.7148 2.4668 11.6045 2.68066 10.4502 2.87402C9.30176 3.06738 8.12402 3.23145 6.91699 3.36621C5.71582 3.49512 4.49414 3.58887 3.25195 3.64746C2.83594 3.66504 2.49902 3.7793 2.24121 3.99023C1.98926 4.19531 1.86328 4.52051 1.86328 4.96582V21.7529ZM8.94726 25.9453C9.97265 25.793 11.0156 25.6143 12.0762 25.4092C13.1426 25.21 14.2178 24.9756 15.3018 24.7061C16.04 24.5068 16.6611 24.2139 17.165 23.8271C17.6689 23.4404 18.0498 22.9365 18.3076 22.3154C18.5713 21.6943 18.7031 20.9297 18.7031 20.0215V3.18164C18.7031 3.01172 18.6973 2.84473 18.6855 2.68066C18.6738 2.5166 18.6562 2.34082 18.6328 2.15332C19.3008 2.32324 19.8076 2.68066 20.1533 3.22559C20.499 3.76465 20.6719 4.47363 20.6719 5.35254V22.3594C20.6719 23.5488 20.376 24.4424 19.7842 25.04C19.1924 25.6436 18.3076 25.9453 17.1299 25.9453H8.94726Z" fill="#999999"/>
</svg>
