<svg width="23" height="25" viewBox="0 0 23 25" fill="none" xmlns="http://www.w3.org/2000/svg">
<path d="M0 3.75293C0 3.16113 0.178711 2.69531 0.536133 2.35547C0.893555 2.00977 1.38281 1.83691 2.00391 1.83691H4.06934C4.16309 1.25684 4.41211 0.805664 4.81641 0.483398C5.22656 0.161133 5.7627 0 6.4248 0H15.6445C16.3125 0 16.8486 0.164062 17.2529 0.492188C17.6572 0.820312 17.9092 1.26855 18.0088 1.83691H20.0654C20.6807 1.83691 21.167 2.00977 21.5244 2.35547C21.8877 2.69531 22.0693 3.16113 22.0693 3.75293C22.0693 5.25879 21.832 6.58008 21.3574 7.7168C20.8828 8.84766 20.168 9.81445 19.2129 10.6172C18.2578 11.4141 17.0654 12.0557 15.6357 12.542C15.3135 12.9814 14.9648 13.377 14.5898 13.7285C14.2148 14.0742 13.8457 14.3613 13.4824 14.5898V19.2129H14.9678C15.7236 19.2129 16.3037 19.4238 16.708 19.8457C17.1182 20.2676 17.3232 20.8418 17.3232 21.5684V23.915C17.3232 24.1729 17.2324 24.3838 17.0508 24.5479C16.875 24.7178 16.6611 24.8027 16.4092 24.8027H5.66016C5.4082 24.8027 5.19141 24.7178 5.00977 24.5479C4.83398 24.3838 4.74609 24.1729 4.74609 23.915V21.5684C4.74609 20.8418 4.94824 20.2676 5.35254 19.8457C5.7627 19.4238 6.34863 19.2129 7.11035 19.2129H8.58691V14.5811C8.22363 14.3525 7.85449 14.0654 7.47949 13.7197C7.11035 13.374 6.76465 12.9814 6.44238 12.542C5.0127 12.0557 3.82031 11.4141 2.86523 10.6172C1.91016 9.82031 1.19238 8.85352 0.711914 7.7168C0.237305 6.58008 0 5.25879 0 3.75293ZM1.66992 3.97266C1.66992 5.45508 1.9541 6.71191 2.52246 7.74316C3.09082 8.77441 3.91992 9.5918 5.00977 10.1953C4.69922 9.55078 4.4502 8.8623 4.2627 8.12988C4.08105 7.3916 3.99023 6.62402 3.99023 5.82715V3.58594H2.05664C1.94531 3.58594 1.85156 3.62402 1.77539 3.7002C1.70508 3.77051 1.66992 3.86133 1.66992 3.97266ZM5.77441 6.15234C5.77441 6.9375 5.90039 7.70215 6.15234 8.44629C6.4043 9.19043 6.73535 9.88477 7.14551 10.5293C7.55566 11.168 7.99805 11.7305 8.47266 12.2168C8.94727 12.7031 9.41016 13.084 9.86133 13.3594C10.3125 13.6348 10.7021 13.7725 11.0303 13.7725C11.3643 13.7725 11.7568 13.6348 12.208 13.3594C12.665 13.084 13.1309 12.7031 13.6055 12.2168C14.0801 11.7305 14.5195 11.168 14.9238 10.5293C15.334 9.88477 15.665 9.19043 15.917 8.44629C16.1689 7.70215 16.2949 6.9375 16.2949 6.15234V2.51367C16.2949 2.29687 16.2275 2.12109 16.0928 1.98633C15.958 1.85156 15.7852 1.78418 15.5742 1.78418H6.50391C6.28711 1.78418 6.11133 1.85156 5.97656 1.98633C5.8418 2.12109 5.77441 2.29687 5.77441 2.51367V6.15234ZM6.53906 23.0098H15.5391V21.7002C15.5391 21.4893 15.4746 21.3193 15.3457 21.1904C15.2168 21.0674 15.0439 21.0059 14.8271 21.0059H7.24219C7.03125 21.0059 6.86133 21.0674 6.73242 21.1904C6.60352 21.3193 6.53906 21.4893 6.53906 21.7002V23.0098ZM10.3008 19.2129H11.7773V15.4336C11.5137 15.5039 11.2646 15.5391 11.0303 15.5391C10.8018 15.5391 10.5586 15.5039 10.3008 15.4336V19.2129ZM17.0596 10.1953C18.1494 9.5918 18.9785 8.77441 19.5469 7.74316C20.1211 6.71191 20.4082 5.45508 20.4082 3.97266C20.4082 3.86133 20.3701 3.77051 20.2939 3.7002C20.2236 3.62402 20.127 3.58594 20.0039 3.58594H18.0791V5.82715C18.0791 6.62402 17.9854 7.3916 17.7979 8.12988C17.6162 8.8623 17.3701 9.55078 17.0596 10.1953Z" fill="#999999"/>
</svg>
