<svg width="28" height="28" viewBox="0 0 28 28" fill="none" xmlns="http://www.w3.org/2000/svg">
<rect width="28" height="28" rx="14" fill="#00A19A"/>
<path d="M14 21.1826C13.4873 21.1826 12.9844 21.1289 12.4912 21.0215C11.998 20.9141 11.5269 20.7627 11.0776 20.5674C11.4292 20.1523 11.7026 19.686 11.8979 19.1685C12.0981 18.6509 12.1982 18.1064 12.1982 17.5352C12.1982 17.1494 12.1543 16.7808 12.0664 16.4292C12.3545 16.3608 12.6597 16.3071 12.9819 16.2681C13.3042 16.2241 13.6411 16.2021 13.9927 16.2021C14.73 16.2021 15.4038 16.2827 16.0142 16.4438C16.6245 16.605 17.1519 16.8149 17.5962 17.0737C18.0405 17.3276 18.3823 17.5962 18.6216 17.8794C19.1245 17.3325 19.5176 16.7026 19.8008 15.9897C20.084 15.2769 20.2256 14.5176 20.2256 13.7119C20.2256 12.8477 20.0645 12.0396 19.7422 11.2876C19.4199 10.5356 18.9731 9.87402 18.4019 9.30273C17.8306 8.73145 17.1689 8.28711 16.417 7.96973C15.665 7.64746 14.8569 7.48633 13.9927 7.48633C13.2017 7.48633 12.457 7.62305 11.7588 7.89648C11.0605 8.16504 10.4355 8.54102 9.88379 9.02441C9.33203 9.50781 8.88037 10.0767 8.52881 10.731C8.17725 11.3804 7.9502 12.0835 7.84766 12.8403C7.65234 12.8159 7.43506 12.811 7.1958 12.8257C6.96143 12.8354 6.75635 12.8574 6.58057 12.8916C6.68311 11.9639 6.94434 11.0972 7.36426 10.2915C7.78906 9.48584 8.33594 8.78027 9.00488 8.1748C9.67871 7.56934 10.4404 7.0957 11.29 6.75391C12.1396 6.41211 13.0405 6.24121 13.9927 6.24121C15.0132 6.24121 15.9727 6.43652 16.8711 6.82715C17.7744 7.21777 18.5703 7.75732 19.2588 8.4458C19.9473 9.13428 20.4868 9.93018 20.8774 10.8335C21.2729 11.7319 21.4707 12.6914 21.4707 13.7119C21.4707 14.7324 21.2754 15.6943 20.8848 16.5977C20.4941 17.4961 19.9546 18.2896 19.2661 18.978C18.5776 19.6665 17.7817 20.2061 16.8784 20.5967C15.98 20.9873 15.0205 21.1826 14 21.1826ZM13.9927 14.957C13.5239 14.9521 13.0991 14.8301 12.7183 14.5908C12.3423 14.3467 12.042 14.0171 11.8174 13.6021C11.5928 13.187 11.4805 12.7183 11.4805 12.1958C11.4756 11.7026 11.5854 11.251 11.8101 10.8408C12.0347 10.4307 12.3374 10.1035 12.7183 9.85938C13.0991 9.61523 13.5239 9.49316 13.9927 9.49316C14.4614 9.49316 14.8838 9.61523 15.2598 9.85938C15.6406 10.1035 15.9434 10.4307 16.168 10.8408C16.3926 11.251 16.5049 11.7026 16.5049 12.1958C16.5049 12.7231 16.3926 13.1968 16.168 13.6167C15.9434 14.0317 15.6406 14.3613 15.2598 14.6055C14.8838 14.8447 14.4614 14.9619 13.9927 14.957ZM7.47412 21.2632C6.96631 21.2632 6.48779 21.1655 6.03857 20.9702C5.58936 20.7798 5.19385 20.5137 4.85205 20.1719C4.51025 19.8301 4.2417 19.4346 4.04639 18.9854C3.85107 18.5361 3.75342 18.0552 3.75342 17.5425C3.75342 17.0298 3.85107 16.5513 4.04639 16.1069C4.2417 15.6577 4.51025 15.2622 4.85205 14.9204C5.19385 14.5737 5.58936 14.3052 6.03857 14.1147C6.48779 13.9194 6.96631 13.8218 7.47412 13.8218C7.98682 13.8218 8.46777 13.9194 8.91699 14.1147C9.36621 14.3052 9.76172 14.5713 10.1035 14.9131C10.4453 15.2549 10.7114 15.6504 10.9019 16.0996C11.0972 16.5488 11.1948 17.0298 11.1948 17.5425C11.1948 18.0503 11.0972 18.5288 10.9019 18.978C10.7065 19.4272 10.4355 19.8228 10.0889 20.1646C9.74707 20.5063 9.35156 20.7749 8.90234 20.9702C8.45312 21.1655 7.97705 21.2632 7.47412 21.2632ZM7.47412 19.8716C7.61084 19.8716 7.71826 19.8301 7.79639 19.7471C7.87939 19.6641 7.9209 19.5566 7.9209 19.4248V17.9893H9.35645C9.48828 17.9893 9.5957 17.9502 9.67871 17.8721C9.76172 17.7891 9.80322 17.6792 9.80322 17.5425C9.80322 17.4058 9.76172 17.2983 9.67871 17.2202C9.5957 17.1372 9.48828 17.0957 9.35645 17.0957H7.9209V15.6602C7.9209 15.5283 7.87939 15.4209 7.79639 15.3379C7.71826 15.2549 7.61084 15.2134 7.47412 15.2134C7.3374 15.2134 7.22754 15.2549 7.14453 15.3379C7.06641 15.4209 7.02734 15.5283 7.02734 15.6602V17.0957H5.5918C5.45996 17.0957 5.35254 17.1372 5.26953 17.2202C5.18652 17.2983 5.14502 17.4058 5.14502 17.5425C5.14502 17.6792 5.18652 17.7891 5.26953 17.8721C5.35254 17.9502 5.45996 17.9893 5.5918 17.9893H7.02734V19.4248C7.02734 19.5566 7.06641 19.6641 7.14453 19.7471C7.22754 19.8301 7.3374 19.8716 7.47412 19.8716Z" fill="white"/>
</svg>
