<svg width="24" height="24" viewBox="0 0 24 24" fill="none" xmlns="http://www.w3.org/2000/svg">
<path d="M12 2.73242C12.6445 2.73242 13.25 2.85449 13.8164 3.09863C14.3828 3.33789 14.8784 3.67236 15.3032 4.10205C15.7329 4.52686 16.0674 5.02246 16.3066 5.58887C16.5508 6.15039 16.6729 6.75342 16.6729 7.39795C16.6729 8.39893 16.3677 9.2998 15.7573 10.1006C15.1519 10.9014 14.2827 11.5264 13.1499 11.9756L15.1055 13.9458C15.1836 14.0239 15.2227 14.1118 15.2227 14.2095C15.2275 14.3071 15.1934 14.3926 15.1201 14.4658L13.1426 16.436L14.5854 17.8569C14.6587 17.9351 14.6953 18.0229 14.6953 18.1206C14.7002 18.2183 14.6636 18.3062 14.5854 18.3843L12.2637 20.7061C12.1855 20.7842 12.0928 20.8184 11.9854 20.8086C11.8828 20.7988 11.7998 20.7622 11.7363 20.6987L10.5132 19.4683C10.4497 19.3999 10.4009 19.3291 10.3667 19.2559C10.3374 19.1826 10.3228 19.0996 10.3228 19.0068V11.7778C9.7124 11.5435 9.18262 11.209 8.7334 10.7744C8.28418 10.335 7.93506 9.82715 7.68604 9.25098C7.44189 8.66992 7.31982 8.05225 7.31982 7.39795C7.31982 6.74854 7.43945 6.14307 7.67871 5.58154C7.92285 5.01514 8.25732 4.51953 8.68213 4.09473C9.11182 3.66504 9.60742 3.33057 10.1689 3.09131C10.7354 2.85205 11.3457 2.73242 12 2.73242ZM12 7.02441C12.3369 7.02441 12.625 6.90479 12.8643 6.66553C13.1035 6.42627 13.2231 6.13818 13.2231 5.80127C13.2231 5.45947 13.1035 5.17139 12.8643 4.93701C12.625 4.69775 12.3369 4.57812 12 4.57812C11.6533 4.57812 11.3628 4.69775 11.1284 4.93701C10.894 5.17139 10.7769 5.45947 10.7769 5.80127C10.7769 6.13818 10.894 6.42627 11.1284 6.66553C11.3677 6.90479 11.6582 7.02441 12 7.02441Z" fill="#00A19A"/>
</svg>
