<svg width="7" height="12" viewBox="0 0 7 12" fill="none" xmlns="http://www.w3.org/2000/svg">
<path d="M6.20752 5.50977C6.20752 5.59017 6.19059 5.66634 6.15674 5.73828C6.12712 5.80599 6.08268 5.86947 6.02344 5.92871L0.996094 10.8481C0.881836 10.9624 0.742188 11.0195 0.577148 11.0195C0.471354 11.0195 0.374023 10.9941 0.285156 10.9434C0.196289 10.8926 0.126465 10.8228 0.0756836 10.7339C0.0249023 10.6493 -0.000488281 10.5519 -0.000488281 10.4419C-0.000488281 10.2853 0.0545247 10.1478 0.164551 10.0293L4.78564 5.50977L0.164551 0.990234C0.0545247 0.871745 -0.000488281 0.734212 -0.000488281 0.577637C-0.000488281 0.467611 0.0249023 0.37028 0.0756836 0.285645C0.126465 0.196777 0.196289 0.126953 0.285156 0.0761719C0.374023 0.0253906 0.471354 0 0.577148 0C0.742188 0 0.881836 0.055013 0.996094 0.165039L6.02344 5.09082C6.08268 5.15007 6.12712 5.21566 6.15674 5.2876C6.19059 5.35531 6.20752 5.42936 6.20752 5.50977Z" fill="black"/>
</svg>
