<svg width="17" height="22" viewBox="0 0 17 22" fill="none" xmlns="http://www.w3.org/2000/svg">
<path d="M8.5 14.6157C8.31445 14.6157 8.14844 14.5449 8.00195 14.4033L2.33301 8.60254C2.26953 8.53906 2.2207 8.46826 2.18652 8.39014C2.15234 8.30713 2.13525 8.21924 2.13525 8.12646C2.13525 7.99951 2.16455 7.88477 2.22314 7.78223C2.28174 7.67969 2.35986 7.59912 2.45752 7.54053C2.56006 7.48193 2.6748 7.45264 2.80176 7.45264C2.9873 7.45264 3.146 7.51611 3.27783 7.64307L8.88818 13.3779H8.10449L13.7148 7.64307C13.8516 7.51611 14.0103 7.45264 14.1909 7.45264C14.3179 7.45264 14.4302 7.48193 14.5278 7.54053C14.6304 7.59912 14.7109 7.67969 14.7695 7.78223C14.8281 7.88477 14.8574 7.99951 14.8574 8.12646C14.8574 8.30713 14.7915 8.46338 14.6597 8.59521L8.99072 14.4033C8.92725 14.4717 8.85156 14.5254 8.76367 14.5645C8.68066 14.5986 8.59277 14.6157 8.5 14.6157Z" fill="#00A19A"/>
</svg>
