<svg width="11" height="12" viewBox="0 0 11 12" fill="none" xmlns="http://www.w3.org/2000/svg">
<path d="M2.34229 11.2578C1.83382 11.2578 1.44352 11.1271 1.17139 10.8657C0.902832 10.6043 0.768555 10.2194 0.768555 9.71094V6.41309H0.730957C0.494629 6.36296 0.313802 6.24658 0.188477 6.06396C0.063151 5.88135 0.000488281 5.65397 0.000488281 5.38184V3.96924C0.000488281 3.64339 0.0917969 3.38379 0.274414 3.19043C0.457031 2.99707 0.705892 2.90039 1.021 2.90039H2.10596C1.96273 2.76074 1.84993 2.59603 1.76758 2.40625C1.6888 2.21289 1.64941 2.00521 1.64941 1.7832C1.64941 1.43587 1.73177 1.12793 1.89648 0.859375C2.06478 0.59082 2.28857 0.381348 2.56787 0.230957C2.85075 0.0769857 3.16585 0 3.51318 0C3.89274 0 4.22754 0.0984701 4.51758 0.29541C4.8112 0.49235 5.02604 0.771647 5.16211 1.1333C5.29818 0.771647 5.51302 0.49235 5.80664 0.29541C6.10026 0.0984701 6.43506 0 6.81104 0C7.15837 0 7.47168 0.0769857 7.75098 0.230957C8.03385 0.381348 8.25765 0.59082 8.42236 0.859375C8.59066 1.12793 8.6748 1.43587 8.6748 1.7832C8.6748 2.00521 8.63542 2.21289 8.55664 2.40625C8.47786 2.59603 8.36686 2.76074 8.22363 2.90039H9.30859C9.63802 2.90039 9.89046 2.99707 10.0659 3.19043C10.2414 3.38379 10.3291 3.64339 10.3291 3.96924V5.38184C10.3291 5.65397 10.2646 5.88135 10.1357 6.06396C10.0104 6.24658 9.82959 6.36296 9.59326 6.41309H9.55566V9.71094C9.55566 10.2194 9.4196 10.6043 9.14746 10.8657C8.87891 11.1271 8.49219 11.2578 7.9873 11.2578H2.34229ZM4.68408 10.4521V6.45068H1.6333V9.75391C1.6333 9.97591 1.69417 10.1478 1.81592 10.2695C1.93766 10.3913 2.10954 10.4521 2.33154 10.4521H4.68408ZM5.64014 10.4521H7.99268C8.21826 10.4521 8.39014 10.3913 8.5083 10.2695C8.63005 10.1478 8.69092 9.97591 8.69092 9.75391V6.45068H5.64014V10.4521ZM4.68408 5.63965V3.71143H1.24121C1.10514 3.71143 1.00846 3.74007 0.951172 3.79736C0.89388 3.85465 0.865234 3.95133 0.865234 4.0874V5.2583C0.865234 5.39437 0.89388 5.49284 0.951172 5.55371C1.00846 5.611 1.10514 5.63965 1.24121 5.63965H4.68408ZM5.64014 5.63965H9.09375C9.22624 5.63965 9.32113 5.611 9.37842 5.55371C9.43571 5.49284 9.46436 5.39437 9.46436 5.2583V4.0874C9.46436 3.95133 9.43571 3.85465 9.37842 3.79736C9.32113 3.74007 9.22624 3.71143 9.09375 3.71143H5.64014V5.63965ZM4.72168 2.90039V2.17529C4.72168 1.77783 4.60889 1.46631 4.3833 1.24072C4.1613 1.01156 3.88916 0.896973 3.56689 0.896973C3.27327 0.896973 3.02979 0.979329 2.83643 1.14404C2.64307 1.30518 2.54639 1.53434 2.54639 1.83154C2.54639 2.12874 2.66276 2.38118 2.89551 2.58887C3.13184 2.79655 3.46126 2.90039 3.88379 2.90039H4.72168ZM5.60254 2.90039H6.44043C6.86296 2.90039 7.19059 2.79655 7.42334 2.58887C7.65967 2.38118 7.77783 2.12874 7.77783 1.83154C7.77783 1.53434 7.68115 1.30518 7.48779 1.14404C7.29801 0.979329 7.05452 0.896973 6.75732 0.896973C6.43864 0.896973 6.1665 1.01156 5.94092 1.24072C5.71533 1.46631 5.60254 1.77783 5.60254 2.17529V2.90039Z" fill="#00A19A"/>
</svg>
