<svg width="9" height="16" viewBox="0 0 9 16" fill="none" xmlns="http://www.w3.org/2000/svg">
<path d="M-0.000488281 4.03711C-0.000488281 3.46582 0.111654 2.93473 0.335938 2.44385C0.564453 1.95296 0.877604 1.52555 1.27539 1.16162C1.67741 0.793457 2.1429 0.507812 2.67188 0.304688C3.20085 0.101562 3.7679 0 4.37305 0C4.97819 0 5.54525 0.101562 6.07422 0.304688C6.60319 0.507812 7.06868 0.793457 7.4707 1.16162C7.87272 1.52979 8.18587 1.95931 8.41016 2.4502C8.63444 2.93685 8.74658 3.46582 8.74658 4.03711C8.74658 4.51953 8.69792 4.95117 8.60059 5.33203C8.50326 5.70866 8.37842 6.07894 8.22607 6.44287C8.07796 6.8068 7.91927 7.20671 7.75 7.64258C7.58496 8.07422 7.43262 8.57992 7.29297 9.15967C7.15332 9.73519 7.04753 10.4313 6.97559 11.248C6.95866 11.4215 6.8973 11.5591 6.7915 11.6606C6.68571 11.7622 6.54183 11.813 6.35986 11.813H2.38623C2.20426 11.813 2.06038 11.7622 1.95459 11.6606C1.85303 11.5591 1.79378 11.4215 1.77686 11.248C1.70492 10.4313 1.59701 9.73519 1.45312 9.15967C1.31348 8.57992 1.16113 8.07422 0.996094 7.64258C0.831055 7.20671 0.672363 6.8068 0.52002 6.44287C0.367676 6.07471 0.242839 5.70231 0.145508 5.32568C0.0481771 4.94906 -0.000488281 4.51953 -0.000488281 4.03711ZM1.22461 4.03711C1.22461 4.37142 1.26481 4.67399 1.34521 4.94482C1.42562 5.21566 1.5293 5.49919 1.65625 5.79541C1.78743 6.09163 1.92708 6.44499 2.0752 6.85547C2.22754 7.26172 2.37565 7.7653 2.51953 8.36621C2.66764 8.96712 2.7946 9.70768 2.90039 10.5879H5.85205C5.95785 9.70768 6.08268 8.96712 6.22656 8.36621C6.37044 7.7653 6.51644 7.26172 6.66455 6.85547C6.81689 6.44499 6.95654 6.09163 7.0835 5.79541C7.21468 5.49919 7.32048 5.21566 7.40088 4.94482C7.48128 4.67399 7.52148 4.37142 7.52148 4.03711C7.52148 3.62663 7.43896 3.25 7.27393 2.90723C7.10889 2.56022 6.88037 2.26188 6.58838 2.01221C6.29639 1.76253 5.95996 1.56999 5.5791 1.43457C5.20247 1.29492 4.80046 1.22298 4.37305 1.21875C3.94564 1.21875 3.5415 1.28857 3.16064 1.42822C2.78402 1.56787 2.44971 1.76253 2.15771 2.01221C1.86572 2.26188 1.63721 2.56022 1.47217 2.90723C1.30713 3.25 1.22461 3.62663 1.22461 4.03711ZM2.31641 13.3618C2.19368 13.3618 2.09001 13.3174 2.00537 13.2285C1.92074 13.1439 1.87842 13.0423 1.87842 12.9238C1.87842 12.8053 1.92074 12.7038 2.00537 12.6191C2.09001 12.5345 2.19368 12.4922 2.31641 12.4922H6.42969C6.55241 12.4922 6.65609 12.5345 6.74072 12.6191C6.82536 12.7038 6.86768 12.8053 6.86768 12.9238C6.86768 13.0423 6.82536 13.1439 6.74072 13.2285C6.65609 13.3174 6.55241 13.3618 6.42969 13.3618H2.31641ZM4.37305 15.2788C3.861 15.2788 3.42301 15.1646 3.05908 14.936C2.69515 14.7118 2.50049 14.4134 2.4751 14.041H6.26465C6.23079 14.4134 6.03402 14.7118 5.67432 14.936C5.31462 15.1646 4.88086 15.2788 4.37305 15.2788Z" fill="#00A19A"/>
</svg>
