<svg width="15" height="11" viewBox="0 0 15 11" fill="none" xmlns="http://www.w3.org/2000/svg">
<path d="M0.922852 1.8457C0.668945 1.8457 0.45166 1.75781 0.270996 1.58203C0.090332 1.40137 0 1.18164 0 0.922852C0 0.668945 0.090332 0.45166 0.270996 0.270996C0.45166 0.090332 0.668945 0 0.922852 0C1.17676 0 1.39404 0.090332 1.57471 0.270996C1.75537 0.45166 1.8457 0.668945 1.8457 0.922852C1.8457 1.18164 1.75537 1.40137 1.57471 1.58203C1.39404 1.75781 1.17676 1.8457 0.922852 1.8457ZM4.16016 1.51611C3.99414 1.51611 3.85254 1.45996 3.73535 1.34766C3.62305 1.23047 3.56689 1.08887 3.56689 0.922852C3.56689 0.756836 3.62305 0.617676 3.73535 0.505371C3.85254 0.393066 3.99414 0.336914 4.16016 0.336914H14.1577C14.3237 0.336914 14.4653 0.393066 14.5825 0.505371C14.6997 0.617676 14.7583 0.756836 14.7583 0.922852C14.7583 1.08887 14.6997 1.23047 14.5825 1.34766C14.4653 1.45996 14.3237 1.51611 14.1577 1.51611H4.16016ZM0.922852 6.27686C0.668945 6.27686 0.45166 6.18652 0.270996 6.00586C0.090332 5.8252 0 5.60791 0 5.354C0 5.1001 0.090332 4.88281 0.270996 4.70215C0.45166 4.52148 0.668945 4.43115 0.922852 4.43115C1.17676 4.43115 1.39404 4.52148 1.57471 4.70215C1.75537 4.88281 1.8457 5.1001 1.8457 5.354C1.8457 5.60791 1.75537 5.8252 1.57471 6.00586C1.39404 6.18652 1.17676 6.27686 0.922852 6.27686ZM4.16016 5.93994C3.99414 5.93994 3.85254 5.88379 3.73535 5.77148C3.62305 5.65918 3.56689 5.52002 3.56689 5.354C3.56689 5.18799 3.62305 5.04883 3.73535 4.93652C3.85254 4.81934 3.99414 4.76074 4.16016 4.76074H14.1577C14.3237 4.76074 14.4653 4.81934 14.5825 4.93652C14.6997 5.04883 14.7583 5.18799 14.7583 5.354C14.7583 5.52002 14.6997 5.65918 14.5825 5.77148C14.4653 5.88379 14.3237 5.93994 14.1577 5.93994H4.16016ZM0.922852 10.7007C0.668945 10.7007 0.45166 10.6128 0.270996 10.437C0.090332 10.2563 0 10.0366 0 9.77783C0 9.52393 0.090332 9.30908 0.270996 9.1333C0.45166 8.95264 0.668945 8.8623 0.922852 8.8623C1.17676 8.8623 1.39404 8.95264 1.57471 9.1333C1.75537 9.30908 1.8457 9.52393 1.8457 9.77783C1.8457 10.0366 1.75537 10.2563 1.57471 10.437C1.39404 10.6128 1.17676 10.7007 0.922852 10.7007ZM4.16016 10.3711C3.99414 10.3711 3.85254 10.3149 3.73535 10.2026C3.62305 10.0854 3.56689 9.94385 3.56689 9.77783C3.56689 9.61182 3.62305 9.47266 3.73535 9.36035C3.85254 9.24805 3.99414 9.19189 4.16016 9.19189H14.1577C14.3237 9.19189 14.4653 9.24805 14.5825 9.36035C14.6997 9.47266 14.7583 9.61182 14.7583 9.77783C14.7583 9.94385 14.6997 10.0854 14.5825 10.2026C14.4653 10.3149 14.3237 10.3711 14.1577 10.3711H4.16016Z" fill="white"/>
</svg>
