<svg width="16" height="15" viewBox="0 0 16 15" fill="none" xmlns="http://www.w3.org/2000/svg">
<path d="M0.827637 14.165C0.563965 14.165 0.358887 14.0918 0.212402 13.9453C0.0708008 13.7988 0 13.5889 0 13.3154V3.46436C0 3.21533 0.0512695 3.00293 0.153809 2.82715C0.256348 2.64648 0.415039 2.49512 0.629883 2.37305L4.43848 0.205078C4.66797 0.0683594 4.91943 0 5.19287 0C5.46143 0 5.70801 0.0683594 5.93262 0.205078L9.90967 2.64404L13.7915 0.483398C13.9136 0.419922 14.0234 0.373535 14.1211 0.344238C14.2188 0.310059 14.314 0.292969 14.4067 0.292969C14.6704 0.292969 14.873 0.366211 15.0146 0.512695C15.1611 0.65918 15.2344 0.866699 15.2344 1.13525V11.001C15.2344 11.2451 15.1831 11.4575 15.0806 11.6382C14.978 11.814 14.8169 11.9629 14.5972 12.085L10.7666 14.2603C10.5469 14.3872 10.3027 14.4507 10.0342 14.4507C9.75098 14.4507 9.47754 14.3774 9.21387 14.231L5.16357 11.9604L1.43555 13.9673C1.31836 14.0356 1.21094 14.0845 1.11328 14.1138C1.01562 14.1479 0.92041 14.165 0.827637 14.165ZM4.6875 10.7959V1.44287C4.64355 1.46729 4.59961 1.4917 4.55566 1.51611C4.5166 1.54053 4.47266 1.56494 4.42383 1.58936L1.4209 3.34717C1.33301 3.396 1.26953 3.45459 1.23047 3.52295C1.19629 3.58643 1.1792 3.66211 1.1792 3.75V12.5317C1.1792 12.6099 1.21094 12.6489 1.27441 12.6489C1.29883 12.6489 1.33545 12.6367 1.38428 12.6123L4.6875 10.7959ZM5.8667 10.9131L9.04541 12.7075C9.09912 12.7368 9.15283 12.7637 9.20654 12.7881C9.26025 12.8174 9.31396 12.8467 9.36768 12.876V3.7207L6.10107 1.72852C6.06201 1.7041 6.02295 1.68213 5.98389 1.6626C5.94482 1.63818 5.90576 1.61621 5.8667 1.59668V10.9131ZM10.5469 13.0078C10.6006 12.9785 10.6543 12.9492 10.708 12.9199C10.7666 12.8906 10.8228 12.8589 10.8765 12.8247L13.8135 11.1182C13.9014 11.0693 13.9624 11.0107 13.9966 10.9424C14.0356 10.874 14.0552 10.7959 14.0552 10.708V1.92627C14.0552 1.88721 14.0454 1.85791 14.0259 1.83838C14.0112 1.81885 13.9868 1.80908 13.9526 1.80908C13.9331 1.80908 13.8989 1.82129 13.8501 1.8457L10.5469 3.64746V13.0078Z" fill="#00A19A"/>
</svg>
