<svg width="11" height="11" viewBox="0 0 11 11" fill="none" xmlns="http://www.w3.org/2000/svg">
<path d="M5.479 10.957C4.72347 10.957 4.01449 10.8138 3.35205 10.5273C2.68962 10.2445 2.10775 9.85238 1.60645 9.35107C1.10514 8.84977 0.711263 8.2679 0.424805 7.60547C0.141927 6.94303 0.000488281 6.23405 0.000488281 5.47852C0.000488281 4.72298 0.141927 4.014 0.424805 3.35156C0.711263 2.68913 1.10514 2.10726 1.60645 1.60596C2.10775 1.10107 2.68962 0.707194 3.35205 0.424316C4.01449 0.141439 4.72347 0 5.479 0C6.23454 0 6.94352 0.141439 7.60596 0.424316C8.26839 0.707194 8.85026 1.10107 9.35156 1.60596C9.85286 2.10726 10.245 2.68913 10.5278 3.35156C10.8143 4.014 10.9575 4.72298 10.9575 5.47852C10.9575 6.23405 10.8143 6.94303 10.5278 7.60547C10.245 8.2679 9.85286 8.84977 9.35156 9.35107C8.85026 9.85238 8.26839 10.2445 7.60596 10.5273C6.94352 10.8138 6.23454 10.957 5.479 10.957ZM5.479 10.0439C6.10921 10.0439 6.70003 9.92578 7.25146 9.68945C7.8029 9.45312 8.28809 9.12549 8.70703 8.70654C9.12598 8.2876 9.45361 7.80241 9.68994 7.25098C9.92627 6.69954 10.0444 6.10872 10.0444 5.47852C10.0444 4.84831 9.92627 4.25749 9.68994 3.70605C9.45361 3.15104 9.12598 2.66585 8.70703 2.25049C8.28809 1.83154 7.8029 1.50391 7.25146 1.26758C6.70003 1.03125 6.10921 0.913086 5.479 0.913086C4.8488 0.913086 4.25798 1.03125 3.70654 1.26758C3.15511 1.50391 2.66992 1.83154 2.25098 2.25049C1.83203 2.66585 1.50439 3.15104 1.26807 3.70605C1.03174 4.25749 0.913574 4.84831 0.913574 5.47852C0.913574 6.10872 1.03174 6.69954 1.26807 7.25098C1.50439 7.80241 1.83203 8.2876 2.25098 8.70654C2.66992 9.12549 3.15511 9.45312 3.70654 9.68945C4.25798 9.92578 4.8488 10.0439 5.479 10.0439ZM5.47363 6.44531C5.19792 6.44531 5.05648 6.30387 5.04932 6.021L4.97949 3.17969C4.97591 3.04362 5.01888 2.93083 5.1084 2.84131C5.2015 2.75179 5.32145 2.70703 5.46826 2.70703C5.61149 2.70703 5.72965 2.75358 5.82275 2.84668C5.91943 2.9362 5.96598 3.04899 5.9624 3.18506L5.88184 6.021C5.87826 6.30387 5.74219 6.44531 5.47363 6.44531ZM5.47363 8.19092C5.31608 8.19092 5.18001 8.13721 5.06543 8.02979C4.95085 7.91878 4.89355 7.7863 4.89355 7.63232C4.89355 7.47835 4.95085 7.34766 5.06543 7.24023C5.18001 7.12923 5.31608 7.07373 5.47363 7.07373C5.63118 7.07373 5.76725 7.12744 5.88184 7.23486C5.99642 7.34229 6.05371 7.47477 6.05371 7.63232C6.05371 7.78988 5.99463 7.92236 5.87646 8.02979C5.76188 8.13721 5.6276 8.19092 5.47363 8.19092Z" fill="#FF3B30"/>
</svg>
