<svg width="18" height="22" viewBox="0 0 18 22" fill="none" xmlns="http://www.w3.org/2000/svg">
<path d="M3.30908 12.9751C3.30908 12.4575 3.44092 11.9473 3.70459 11.4443C3.96826 10.9365 4.34668 10.4727 4.83984 10.0527C5.33301 9.63281 5.92139 9.29834 6.60498 9.04932L6.84668 5.6875C6.49023 5.4873 6.1582 5.28223 5.85059 5.07227C5.54785 4.85742 5.28174 4.6499 5.05225 4.44971C4.82275 4.24951 4.64453 4.06641 4.51758 3.90039C4.33203 3.65625 4.23926 3.41699 4.23926 3.18262C4.23926 2.95801 4.31738 2.77246 4.47363 2.62598C4.62988 2.47949 4.8374 2.40625 5.09619 2.40625H12.9038C13.1577 2.40625 13.3628 2.47949 13.519 2.62598C13.6802 2.77246 13.7607 2.95801 13.7607 3.18262C13.7607 3.41699 13.6655 3.65625 13.4751 3.90039C13.3481 4.06641 13.1699 4.24951 12.9404 4.44971C12.7109 4.6499 12.4424 4.85498 12.1348 5.06494C11.832 5.2749 11.5024 5.48242 11.146 5.6875L11.3877 9.04932C12.0713 9.29834 12.6597 9.63281 13.1528 10.0527C13.646 10.4727 14.0244 10.9365 14.2881 11.4443C14.5518 11.9473 14.6836 12.4575 14.6836 12.9751C14.6836 13.2876 14.5859 13.5391 14.3906 13.7295C14.2002 13.915 13.939 14.0078 13.6069 14.0078H9.64453V17.4282C9.64453 17.7065 9.62012 17.9702 9.57129 18.2192C9.52246 18.4683 9.46143 18.6855 9.38818 18.8711C9.31494 19.0615 9.2417 19.2104 9.16846 19.3179C9.1001 19.4253 9.04395 19.479 9 19.479C8.95117 19.479 8.89014 19.4253 8.81689 19.3179C8.74854 19.2104 8.67773 19.0615 8.60449 18.8711C8.53125 18.6855 8.47021 18.4683 8.42139 18.2192C8.37256 17.9702 8.34814 17.7065 8.34814 17.4282V14.0078H4.38574C4.05859 14.0078 3.79736 13.915 3.60205 13.7295C3.40674 13.5391 3.30908 13.2876 3.30908 12.9751Z" fill="#00A19A"/>
</svg>
