<svg width="22" height="28" viewBox="0 0 22 28" fill="none" xmlns="http://www.w3.org/2000/svg">
<path d="M5.62891 24.9541C4.76953 24.9541 4.11784 24.7249 3.67383 24.2666C3.23698 23.8083 3.01855 23.1136 3.01855 22.1826V14.2012C3.01855 13.2773 3.23698 12.5898 3.67383 12.1387C4.11784 11.6803 4.76953 11.4512 5.62891 11.4512H16.1025C16.9619 11.4512 17.61 11.6803 18.0469 12.1387C18.4909 12.5898 18.7129 13.2773 18.7129 14.2012V22.1826C18.7129 23.1136 18.4909 23.8083 18.0469 24.2666C17.61 24.7249 16.9619 24.9541 16.1025 24.9541H5.62891ZM5.13477 12.4824V9.0127C5.13477 7.73079 5.39258 6.64225 5.9082 5.74707C6.43099 4.84473 7.12565 4.15723 7.99219 3.68457C8.85872 3.21191 9.81478 2.97559 10.8604 2.97559C11.9131 2.97559 12.8727 3.21191 13.7393 3.68457C14.6058 4.15723 15.2969 4.84473 15.8125 5.74707C16.3353 6.64225 16.5967 7.73079 16.5967 9.0127V12.4824H14.0508V8.87305C14.0508 8.14974 13.9076 7.53385 13.6211 7.02539C13.3346 6.50977 12.9479 6.11589 12.4609 5.84375C11.9811 5.57161 11.4476 5.43555 10.8604 5.43555C10.2731 5.43555 9.73958 5.57161 9.25977 5.84375C8.77995 6.11589 8.39681 6.50977 8.11035 7.02539C7.83105 7.53385 7.69141 8.14974 7.69141 8.87305V12.4824H5.13477Z" fill="black"/>
</svg>
