<svg width="13" height="27" viewBox="0 0 13 27" fill="none" xmlns="http://www.w3.org/2000/svg">
<path d="M3.80673 24.8018L3.40625 24.9224V25.1925L3.80673 25.0718V24.8018Z" fill="#4D4343"/>
<path d="M6.30621 24.9715C6.34934 25.6213 5.22798 25.4645 5.22798 25.4645L4.17969 24.8354L4.36012 19.8154L4.59073 24.675L5.24207 24.271L6.30621 24.9715Z" fill="#F6DCD7"/>
<path d="M4.59774 24.8276L5.22355 24.4839L5.5897 20.9173V19.8076L4.33984 20.2499L4.59774 24.8276Z" fill="#F7DAC2"/>
<path d="M4.17742 24.8335L3.36677 24.3934L3.11328 21.1395L3.2013 19.8076L4.36842 20.3779L4.17742 24.8335Z" fill="#E9CDB7"/>
<path d="M6.18018 26.0462L7.12549 25.5458L5.81578 24.6576C5.81578 24.6576 6.34829 25.4369 5.1266 25.3574L3.36623 24.3287L3.35391 24.2051L3.21484 24.2868L6.18018 26.0462Z" fill="#B9A7A4"/>
<path d="M6.18018 26.1154L4.44358 25.5304L3.43665 24.9771L3.40408 25.1942L3.21484 25.1338V24.2891L6.18018 26.0477V26.1154Z" fill="#948584"/>
<path d="M6.18359 26.1132L7.12539 25.6143L7.12891 25.5459L6.18359 26.0455V26.1132Z" fill="#978887"/>
<path d="M6.56064 23.4609L6.16016 23.5801V23.8487L6.56064 23.7295V23.4609Z" fill="#4D4343"/>
<path d="M9.05835 23.6278C9.10324 24.2761 7.98189 24.1193 7.98189 24.1193L6.93359 23.4902L7.11227 18.4717L7.34464 23.3312L7.99597 22.9258L9.05835 23.6278Z" fill="#F6DCD7"/>
<path d="M7.35164 23.4838L7.97745 23.1402L8.34361 19.5743V18.4639L7.09375 18.9076L7.35164 23.4838Z" fill="#F7DAC2"/>
<path d="M6.93347 23.4897L6.12195 23.0512L5.87109 19.7958L5.95735 18.4639L7.12447 19.0341L6.93347 23.4897Z" fill="#E9CDB7"/>
<path d="M8.93799 24.701L9.88154 24.202L8.57183 23.3124C8.57183 23.3124 9.10346 24.0931 7.88441 24.0122L6.12229 22.9835L6.11172 22.8613L5.97266 22.9415L8.93799 24.701Z" fill="#B9A7A4"/>
<path d="M8.93887 24.7688L7.20051 24.1838L6.1927 23.6304L6.16013 23.846L5.97266 23.7886V22.9424L8.93887 24.7011V24.7688Z" fill="#948584"/>
<path d="M8.94141 24.7688L9.8832 24.2698L9.88496 24.2021L8.94141 24.7011V24.7688Z" fill="#978887"/>
<path d="M4.22266 14.0111L4.73668 17.9074L4.54568 20.4667L8.59804 18.4674L8.20108 15.4496L8.25213 11.8477L4.22266 14.0111Z" fill="#232323"/>
<path d="M2.76172 13.1904L2.958 17.0301L2.91311 19.6747L4.54937 20.468L4.61538 19.7881L4.63739 17.2244L4.21754 13.9609L2.76172 13.1904Z" fill="#232323"/>
<path d="M0.804486 15.1992L4.91054 17.1882V19.5944L4.10517 19.9793L0 15.5848L0.804486 15.1992Z" fill="#C0476D"/>
<path d="M0 15.5851L4.10517 17.5741V19.9796L0 17.9906V15.5851Z" fill="#E27491"/>
<path d="M1.80586 15.9567C1.74601 16.0354 1.90884 16.1524 2.00214 16.2039L2.82775 16.6484C2.92193 16.6984 3.04955 16.6756 3.10941 16.5983L3.05572 16.1701C3.11733 16.0913 3.08828 15.9861 2.99586 15.9346L2.16937 15.4894C2.07695 15.4394 1.94933 15.4622 1.88771 15.5409L1.80586 15.9567ZM2.04967 16.0692L2.01006 15.7572C2.05495 15.6969 2.14737 15.6807 2.21602 15.7182L2.81983 16.0442C2.88848 16.0803 2.90961 16.1575 2.86472 16.2164L2.90256 16.5299C2.85767 16.5873 2.76702 16.6035 2.69836 16.5659L2.0928 16.24C2.02414 16.2039 2.00478 16.1266 2.04967 16.0692Z" fill="#E4E5E6"/>
<path d="M2.93991 16.7763C2.87829 16.7763 2.81756 16.7616 2.76563 16.7336L1.94002 16.2891C1.72261 16.1685 1.63372 16.0338 1.69445 15.9256L1.78863 15.4863C1.88281 15.3649 2.09317 15.3267 2.23752 15.4054L3.06313 15.8506C3.19956 15.9264 3.24797 16.0721 3.18196 16.1913L3.23653 16.624L3.21276 16.6534C3.15291 16.7299 3.05081 16.7763 2.93991 16.7763ZM2.13894 15.7998L2.17679 16.0949L2.15302 16.1243L2.15478 16.1251L2.16095 16.1567L2.77971 16.4871L2.74451 16.1935L2.76651 16.1641H2.76475L2.75771 16.1295L2.13894 15.7998Z" fill="#231F20"/>
<path d="M1.81541 15.9692C1.75556 16.0479 1.78108 16.1531 1.87526 16.2046L2.70175 16.6491C2.79593 16.6991 2.9218 16.6763 2.98341 16.5991L2.92884 16.1701C2.99045 16.0913 2.96317 15.9861 2.86899 15.9346L2.04338 15.4894C1.9492 15.4394 1.82333 15.4622 1.76172 15.5409L1.81541 15.9692ZM1.92367 16.07L1.88406 15.758C1.92895 15.6976 2.02137 15.6815 2.09003 15.719L2.69383 16.045C2.76425 16.081 2.78361 16.1583 2.73872 16.2172L2.77833 16.5306C2.73344 16.588 2.63926 16.6042 2.57237 16.5667L1.96856 16.2407C1.89727 16.2046 1.87878 16.1274 1.92367 16.07Z" fill="#C3C4C6"/>
<path d="M2.81781 16.7752C2.7562 16.7752 2.69547 16.7597 2.64354 16.7325L1.81793 16.288C1.6815 16.2137 1.63309 16.0673 1.69822 15.9473L1.64453 15.5139L1.66654 15.4845C1.76071 15.3653 1.96932 15.3278 2.11367 15.4036L2.94016 15.8495C3.07659 15.9245 3.12412 16.0702 3.0581 16.1894L3.11355 16.6229L3.08979 16.653C3.02906 16.7296 2.92696 16.7752 2.81781 16.7752ZM2.01509 15.7987L2.05294 16.0938L2.02917 16.1232L2.03093 16.1239L2.03973 16.1556L2.6585 16.4867L2.62065 16.1931L2.64266 16.1637L2.6409 16.1629L2.63474 16.1284L2.01509 15.7987Z" fill="#231F20"/>
<path d="M2.10359 15.7665C2.10359 15.7665 2.31484 16.2823 2.41342 16.3066C2.51288 16.3309 2.77253 16.1182 2.77253 16.1182L2.77957 14.8849L2.05078 14.5332L2.10359 15.7665Z" fill="#DCC3AF"/>
<path d="M1.83797 15.942C1.83797 15.942 2.06505 16.3269 2.16452 16.3519C2.2631 16.3762 2.50691 16.2938 2.50691 16.2938L2.51219 15.0605L1.78516 14.708L1.83797 15.942Z" fill="#F7DAC2"/>
<path d="M2.70253 15.9862L2.57422 15.906V15.0664L2.64311 15.1128L2.70253 15.4402V15.9862Z" fill="#EACEB8"/>
<path d="M2.88049 15.8741L2.75391 15.7954V15.0536L2.81763 15.0205L2.88049 15.384V15.8741Z" fill="#EACEB8"/>
<path d="M2.82849 15.0205L2.64453 15.114L2.70526 15.4414V15.9874L2.89274 15.8741V15.384L2.82849 15.0205Z" fill="#DCC3AF"/>
<g opacity="0.7">
<g opacity="0.2">
<path d="M2.48008 16.3368L2.46484 15.1396L2.22546 15.1418L2.2407 16.339L2.48008 16.3368Z" fill="#231F20"/>
</g>
<g opacity="0.2">
<path d="M2.25894 15.0889H2.01953V16.3582H2.25894V15.0889Z" fill="#231F20"/>
</g>
<g opacity="0.2">
<path d="M2.0879 14.9945L1.84766 14.9902L1.8191 16.0967L2.05934 16.101L2.0879 14.9945Z" fill="#231F20"/>
</g>
</g>
<path d="M11.6618 11.9644C11.6618 11.9644 12.1829 12.3235 12.2771 12.3022C12.3712 12.2794 12.439 11.9799 12.439 11.9799L11.609 10.8975L10.7852 10.9078L11.6618 11.9644Z" fill="#DCC3AF"/>
<path d="M11.5702 12.2347C11.5702 12.2347 12.0156 12.4702 12.1098 12.4503C12.2057 12.4275 12.3474 12.2494 12.3474 12.2494L11.5174 11.167L10.6953 11.1773L11.5702 12.2347Z" fill="#F7DAC2"/>
<path d="M12.2956 11.8941L12.1371 11.8809L11.5703 11.1465L11.6592 11.1553L11.9277 11.4165L12.2956 11.8941Z" fill="#EACEB8"/>
<path d="M12.3672 11.7145L12.207 11.7028L11.707 11.053L11.7378 10.9941L12.0353 11.2863L12.3672 11.7145Z" fill="#EACEB8"/>
<path d="M11.7407 10.9941L11.6562 11.1568L11.9247 11.418L12.2926 11.8956L12.3701 11.7145L12.0382 11.2863L11.7407 10.9941Z" fill="#DCC3AF"/>
<g opacity="0.7">
<g opacity="0.2">
<path d="M12.2937 12.2981L11.4727 11.2559L11.272 11.3663L12.093 12.4086L12.2937 12.2981Z" fill="#231F20"/>
</g>
<g opacity="0.2">
<path d="M12.2031 12.4122L11.3555 11.2939L11.1525 11.4015L12.0001 12.5197L12.2031 12.4122Z" fill="#231F20"/>
</g>
<g opacity="0.2">
<path d="M11.8589 12.2743L11.1367 11.291L10.9319 11.3961L11.6542 12.3794L11.8589 12.2743Z" fill="#231F20"/>
</g>
</g>
<path d="M10.8501 11.6455L11.3227 11.3276L8.66633 7.62559L8.83532 4.73297L7.94282 4.30176L7.77734 7.64619L10.8501 11.6455Z" fill="#D8555B"/>
<path d="M11.3244 11.3237L11.878 11.044L9.43989 7.36773L9.23568 4.52441L8.83696 4.72898L8.66797 7.6216L11.3244 11.3237Z" fill="#F37F80"/>
<path d="M7.94922 4.3001L8.84172 4.73131L9.24044 4.52674L8.51342 4.18457L7.94922 4.3001Z" fill="#F37F80"/>
<path d="M2.30859 6.79839L7.8599 4.00879L7.08622 9.00005L4.24323 13.513L3.08227 12.9251L3.22134 10.2635L2.30859 6.79839Z" fill="#3B2416"/>
<path d="M3.40234 7.31549L8.95277 4.52441L8.17909 9.51862L8.28383 11.3972L6.35536 12.4907L4.24644 13.5128L4.31685 10.7806L3.40234 7.31549Z" fill="#CFCCC4"/>
<path d="M8.94956 4.54538L7.8599 4.02734L2.30859 6.81695L3.39914 7.33646L7.01229 5.51965L8.94956 4.54538Z" fill="#754D29"/>
<path d="M6.92514 5.32035C6.76318 5.02601 6.18755 4.95978 5.64271 5.17244C5.09612 5.3851 4.7863 5.79497 4.95001 6.08784C5.04155 6.25488 5.44643 6.30639 5.51068 6.30639C5.5899 6.30491 5.93845 6.28652 6.17434 6.19454C6.37854 6.11433 6.58011 6.03339 6.73502 5.93184C6.98147 5.76627 7.02812 5.50284 6.92514 5.32035Z" fill="#E9D5B8"/>
<path d="M1.72837 14.6872L2.62087 15.1184L2.45012 10.6459L2.69833 7.71356L1.80582 7.28235L1.62891 10.3251L1.72837 14.6872Z" fill="#F7B5B8"/>
<path d="M1.80859 7.28219L2.7011 7.7134L3.32955 7.3933L2.53034 7.02832L1.80859 7.28219Z" fill="#F7B5B8"/>
<path d="M2.62779 15.1185L3.18142 14.8367L3.23071 10.3929L3.33369 7.39355L2.70524 7.71365L2.45703 10.646L2.62779 15.1185Z" fill="#F37F80"/>
<path d="M6.42256 12.9071L6.33543 9.88717L6.14091 8.06815L5.34346 6.39041L4.58122 5.64941L2.30859 6.81721L3.39914 7.33672L4.33037 10.8945L4.22211 14.0123L6.42256 12.9071Z" fill="#F37F80"/>
<path d="M4.22035 14.0353L3.18702 13.5063L3.3296 7.39282L2.5304 7.02784L2.41333 7.0764L2.30859 6.81738L3.39914 7.33689L4.33037 10.8947L4.22035 14.0353Z" fill="#D8555B"/>
<path d="M7.86312 4.01172L8.95278 4.54815L8.1791 9.52176L8.28385 11.4004L8.2548 11.8515L6.42578 12.9096L6.46715 10.0324L6.7048 8.01547L7.0912 5.69166L7.06215 5.56951L7.04807 5.51947L6.97766 5.44736L6.90548 4.83661L7.32973 4.60555L7.71877 4.21702L7.81823 4.036L7.86312 4.01172Z" fill="#F37F80"/>
<path d="M4.71765 5.90625C4.71765 5.90625 5.04596 6.25725 4.96146 6.40221C4.84264 6.59795 4.24323 6.82312 3.86123 6.85182C3.0101 6.9151 2.30859 6.79883 2.30859 6.79883L3.39826 7.31614L5.30649 6.39044L4.71765 5.90625Z" fill="#F7B5B8"/>
<path d="M8.0884 4.87561C8.30845 4.77332 8.70893 4.64161 8.66228 4.49444C8.61563 4.34727 7.86131 4.01172 7.86131 4.01172L8.95098 4.52755L6.99609 5.53198L7.05947 5.36274C7.05947 5.36274 7.86131 4.9801 8.0884 4.87561Z" fill="#F7B5B8"/>
<g opacity="0.2">
<path d="M7.40065 8.26166C7.16124 8.26166 6.87782 8.21309 6.54688 8.08505L6.74844 7.72007C7.11899 7.86503 7.63478 7.96879 7.98597 7.65017C8.41286 7.26385 8.42518 6.41541 8.01062 5.79877L8.42958 5.60156C8.95417 6.38303 8.91368 7.40219 8.33804 7.92243C8.17433 8.07181 7.87243 8.26166 7.40065 8.26166Z" fill="white"/>
</g>
<g opacity="0.2">
<path d="M4.82555 9.89642C4.58702 9.89642 4.3036 9.84786 3.97266 9.71982L4.17422 9.35484C4.54653 9.49907 5.06056 9.60355 5.41087 9.28493C5.83864 8.89788 5.85008 8.04944 5.43464 7.43354L5.8536 7.23633C6.37907 8.01633 6.33947 9.03548 5.76383 9.55646C5.60099 9.70584 5.29821 9.89642 4.82555 9.89642Z" fill="white"/>
</g>
<path d="M5.78117 6.27124L4.74959 5.80839L4.55859 5.6649L4.74783 4.66636L4.64485 3.54492L5.753 3.62954L5.78117 6.27124Z" fill="#C9B792"/>
<path d="M5.78207 6.27256C5.78207 6.27256 5.99156 6.3226 6.53815 6.04518C7.08298 5.76777 6.98704 5.52199 6.98704 5.52199L6.75995 3.63086H5.75391L5.78207 6.27256Z" fill="#D3C3B7"/>
<path d="M6.10126 0.373812L5.94635 0.194265L5.73335 0.0978682L5.34519 0.0316417L4.99663 0L4.68505 0.0662265L4.45444 0.178076L4.14286 0.340698L4.00731 0.518774C4.00731 0.518774 3.9677 0.746152 3.9677 0.81017C3.9677 0.874189 3.94922 0.972793 3.94922 1.03755C3.94922 1.1023 3.98883 1.32894 3.98883 1.32894L4.08477 1.52321L4.33738 3.72781L4.39547 4.06851L4.53102 4.24806L4.66481 4.47396L4.7405 4.62334L4.78187 1.66964L5.24749 0.908038L5.88738 0.583528L6.10126 0.373812Z" fill="#845321"/>
<path d="M8.376 1.94375L8.33639 2.82088L8.10402 3.53392L7.71762 4.21531L7.32946 4.60311L6.63148 4.99237C6.63148 4.99237 6.31989 5.02401 6.20547 5.02401C6.0884 5.02401 5.85515 4.89597 5.70024 4.82975C5.54533 4.76499 5.39042 4.57073 5.31384 4.4736C5.23727 4.37646 5.07971 4.11745 5.07971 4.11745L4.9248 3.85695L4.88695 3.69433L4.65283 3.56629V3.72744C4.65283 3.72744 4.60442 3.87241 4.343 3.72744C4.08159 3.58101 4.05078 3.25724 4.05078 3.25724L4.11415 2.73994L4.68803 2.52728L4.76901 2.72301L4.92392 2.95039L4.7294 2.26899L7.49405 1.23145L8.376 1.94375Z" fill="#E9D5B8"/>
<path d="M8.37361 1.94547L8.334 1.7203L8.10163 1.20006L7.59817 0.812266L7.13959 0.620946L6.82361 0.487022L6.20308 0.390625L5.73747 0.520135L5.07733 0.651116L4.45856 1.03891L4.14698 1.45981L4.02991 1.78432L3.95246 2.0117L3.875 2.43261L3.91461 2.88663L3.95246 3.14564L4.06248 3.36272C4.06248 3.36272 4.01055 2.96757 4.448 2.69162C4.69005 2.5393 4.7675 2.72474 4.7675 2.72474L4.89337 2.93593L4.92242 2.529L5.07733 2.62687L5.46549 2.75785H5.85189L6.59124 2.59523L7.01549 2.30383L7.3658 2.01244L7.71435 1.84981L8.06203 1.78506L8.36305 2.23908L8.37361 1.94547Z" fill="#845321"/>
<path d="M5.33438 6.37453L5.78504 6.27225L4.72266 5.79395L5.33438 6.37453Z" fill="#C9B792"/>
</svg>
