<svg width="84" height="46" viewBox="0 0 84 46" fill="none" xmlns="http://www.w3.org/2000/svg">
<path d="M0 11.2557L63.0142 45.0513V46L0 12.2031V11.2557Z" fill="#CECECE"/>
<path d="M0 11.2557L20.9873 0L84 33.796L63.0142 45.0513L0 11.2557Z" fill="#DDEEEA"/>
<path d="M20.0687 0.49392L20.9855 0L83.9989 33.7942L83.0793 34.2895L20.0687 0.49392Z" fill="white"/>
<path d="M0 11.2557L0.897888 10.7769L63.9121 44.5733L63.0142 45.0513L0 11.2557Z" fill="white"/>
<path d="M13.0487 7.17788L14.6995 6.29251L24.0984 11.3292L22.4494 12.2141L13.0487 7.17788Z" fill="white"/>
<path d="M31.9557 17.4829L33.6064 16.5975L43.0054 21.6342L41.3564 22.5191L31.9557 17.4829Z" fill="white"/>
<path d="M52.0339 28.7897L53.6846 27.9043L63.0836 32.941L61.4346 33.8259L52.0339 28.7897Z" fill="white"/>
</svg>
