<svg width="84" height="46" viewBox="0 0 84 46" fill="none" xmlns="http://www.w3.org/2000/svg">
<path d="M84 11.2557L20.9858 45.0513V46L84 12.2031V11.2557Z" fill="#CECECE"/>
<path d="M84 11.2557L63.0127 0L0 33.796L20.9858 45.0513L84 11.2557Z" fill="#DDEEEA"/>
<path d="M63.9313 0.49392L63.0145 0L0.00106049 33.7942L0.920738 34.2895L63.9313 0.49392Z" fill="white"/>
<path d="M84 11.2557L83.1021 10.7769L20.0879 44.5733L20.9858 45.0513L84 11.2557Z" fill="white"/>
<path d="M70.9513 7.17788L69.3005 6.29251L59.9016 11.3292L61.5506 12.2141L70.9513 7.17788Z" fill="white"/>
<path d="M52.0443 17.4829L50.3936 16.5975L40.9946 21.6342L42.6436 22.5191L52.0443 17.4829Z" fill="white"/>
<path d="M31.9661 28.7897L30.3154 27.9043L20.9164 32.941L22.5654 33.8259L31.9661 28.7897Z" fill="white"/>
</svg>
