<svg width="17" height="17" viewBox="0 0 17 17" fill="none" xmlns="http://www.w3.org/2000/svg">
<path d="M5.84424 13.248C5.32406 13.248 4.92839 13.1097 4.65723 12.833C4.38607 12.5563 4.25049 12.1551 4.25049 11.6294V4.58203C4.25049 4.06185 4.38607 3.66341 4.65723 3.38672C4.92839 3.11003 5.32406 2.97168 5.84424 2.97168H8.05225C8.34554 2.97168 8.58626 3.00765 8.77441 3.07959C8.9681 3.15153 9.15348 3.27604 9.33057 3.45312L11.8955 6.06787C12.0892 6.26156 12.2165 6.45247 12.2773 6.64062C12.3438 6.82324 12.377 7.08057 12.377 7.4126V11.6294C12.377 12.1551 12.2414 12.5563 11.9702 12.833C11.6991 13.1097 11.3034 13.248 10.7832 13.248H5.84424ZM5.87744 12.1938H10.7417C11.1346 12.1938 11.3311 12.0029 11.3311 11.6211V7.59521H8.82422C8.49219 7.59521 8.23763 7.50667 8.06055 7.32959C7.88346 7.15251 7.79492 6.90072 7.79492 6.57422V4.02588H5.88574C5.49284 4.02588 5.29639 4.2168 5.29639 4.59863V11.6211C5.29639 12.0029 5.49007 12.1938 5.87744 12.1938ZM8.94043 6.59082H10.9658L8.79932 4.38281V6.45801C8.79932 6.50781 8.81038 6.54378 8.83252 6.56592C8.85465 6.58252 8.89062 6.59082 8.94043 6.59082ZM0.664551 5.2793C0.221842 5.2793 0.000488281 5.05241 0.000488281 4.59863V2.56494C0.000488281 1.71273 0.216309 1.07357 0.647949 0.647461C1.08512 0.21582 1.73812 0 2.60693 0H4.63232C5.0861 0 5.31299 0.221354 5.31299 0.664062C5.31299 1.1123 5.0861 1.33643 4.63232 1.33643H2.62354C2.2085 1.33643 1.8903 1.4471 1.66895 1.66846C1.44759 1.88428 1.33691 2.20801 1.33691 2.63965V4.59863C1.33691 5.05241 1.11279 5.2793 0.664551 5.2793ZM15.5811 5.2793C15.1383 5.2793 14.917 5.05241 14.917 4.59863V2.63965C14.917 2.20801 14.8035 1.88428 14.5767 1.66846C14.3498 1.4471 14.0316 1.33643 13.6221 1.33643H11.6133C11.165 1.33643 10.9409 1.1123 10.9409 0.664062C10.9409 0.221354 11.165 0 11.6133 0H13.647C14.5158 0 15.166 0.21582 15.5977 0.647461C16.0348 1.07357 16.2534 1.71273 16.2534 2.56494V4.59863C16.2534 5.05241 16.0293 5.2793 15.5811 5.2793ZM2.60693 16.2446C1.73812 16.2446 1.08512 16.0288 0.647949 15.5972C0.216309 15.1711 0.000488281 14.5291 0.000488281 13.6714V11.646C0.000488281 11.1922 0.221842 10.9653 0.664551 10.9653C1.11279 10.9653 1.33691 11.1922 1.33691 11.646V13.605C1.33691 14.0366 1.44759 14.3604 1.66895 14.5762C1.8903 14.7975 2.2085 14.9082 2.62354 14.9082H4.63232C5.0861 14.9082 5.31299 15.1323 5.31299 15.5806C5.31299 16.0233 5.0861 16.2446 4.63232 16.2446H2.60693ZM11.6133 16.2446C11.165 16.2446 10.9409 16.0233 10.9409 15.5806C10.9409 15.1323 11.165 14.9082 11.6133 14.9082H13.6221C14.0316 14.9082 14.3498 14.7975 14.5767 14.5762C14.8035 14.3604 14.917 14.0366 14.917 13.605V11.646C14.917 11.1922 15.1383 10.9653 15.5811 10.9653C16.0293 10.9653 16.2534 11.1922 16.2534 11.646V13.6714C16.2534 14.5291 16.0348 15.1711 15.5977 15.5972C15.166 16.0288 14.5158 16.2446 13.647 16.2446H11.6133Z" fill="black"/>
</svg>
