<svg width="13" height="15" viewBox="0 0 13 15" fill="none" xmlns="http://www.w3.org/2000/svg">
<path d="M2.2998 14.7363C1.5332 14.7363 0.957031 14.5459 0.571289 14.165C0.19043 13.7891 0 13.2227 0 12.4658V4.88525C0 4.12842 0.19043 3.56201 0.571289 3.18604C0.957031 2.80518 1.5332 2.61475 2.2998 2.61475H10.7007C11.4624 2.61475 12.0361 2.80518 12.4219 3.18604C12.8076 3.56201 13.0005 4.12842 13.0005 4.88525V12.4658C13.0005 13.2227 12.8174 13.7891 12.4512 14.165C12.085 14.5459 11.5747 14.7363 10.9204 14.7363H2.2998ZM3.61084 2.90039C3.61084 2.3584 3.73779 1.87012 3.9917 1.43555C4.24561 0.996094 4.58984 0.646973 5.02441 0.388184C5.45898 0.129395 5.94971 0 6.49658 0C7.04346 0 7.53418 0.129395 7.96875 0.388184C8.4082 0.646973 8.75488 0.996094 9.00879 1.43555C9.2627 1.87012 9.38965 2.3584 9.38965 2.90039L8.21045 2.90771C8.21045 2.55615 8.13721 2.24609 7.99072 1.97754C7.84912 1.70898 7.64893 1.49902 7.39014 1.34766C7.13623 1.19141 6.83838 1.11328 6.49658 1.11328C6.15967 1.11328 5.86182 1.19141 5.60303 1.34766C5.34912 1.49902 5.14893 1.70898 5.00244 1.97754C4.86084 2.24609 4.79004 2.55615 4.79004 2.90771L3.61084 2.90039Z" fill="white"/>
</svg>
