<svg width="18" height="20" viewBox="0 0 18 20" fill="none" xmlns="http://www.w3.org/2000/svg">
<path d="M3.54395 9.82812V2.60645C3.54395 1.74316 3.757 1.09294 4.18311 0.655762C4.61475 0.218587 5.25944 0 6.11719 0H10.0601C10.37 0 10.6411 0.0221354 10.8735 0.0664062C11.1115 0.105143 11.3301 0.182617 11.5293 0.298828C11.7285 0.409505 11.9333 0.572754 12.1436 0.788574L16.7173 5.44531C16.9386 5.6722 17.1047 5.88802 17.2153 6.09277C17.3315 6.29199 17.409 6.51335 17.4478 6.75684C17.4865 7.00033 17.5059 7.30192 17.5059 7.66162V15.1987C17.5059 16.062 17.29 16.7095 16.8584 17.1411C16.4323 17.5783 15.7904 17.7969 14.9326 17.7969H8.84814C8.96989 17.5921 9.07503 17.3763 9.16357 17.1494C9.25212 16.9281 9.32406 16.6984 9.37939 16.4604H14.8662C15.2979 16.4604 15.6216 16.3498 15.8374 16.1284C16.0588 15.9071 16.1694 15.5889 16.1694 15.1738V7.71973H11.438C10.9178 7.71973 10.5277 7.58968 10.2676 7.32959C10.0075 7.0695 9.87744 6.67936 9.87744 6.15918V1.33643H6.18359C5.75195 1.33643 5.42546 1.44987 5.2041 1.67676C4.98828 1.90365 4.88037 2.22184 4.88037 2.63135V9.82812C4.76416 9.81706 4.65072 9.80876 4.54004 9.80322C4.42936 9.79215 4.31592 9.78662 4.19971 9.78662C4.08903 9.78662 3.97835 9.79215 3.86768 9.80322C3.76253 9.80876 3.65462 9.81706 3.54395 9.82812ZM11.1309 6.00146C11.1309 6.16748 11.1641 6.28646 11.2305 6.3584C11.3024 6.43034 11.4214 6.46631 11.5874 6.46631H15.9121L11.1309 1.59375V6.00146ZM4.21631 19.3657C3.64079 19.3657 3.09847 19.255 2.58936 19.0337C2.08024 18.8179 1.632 18.5163 1.24463 18.1289C0.857259 17.7415 0.552897 17.2933 0.331543 16.7842C0.110189 16.2751 -0.000488281 15.73 -0.000488281 15.1489C-0.000488281 14.5679 0.110189 14.0256 0.331543 13.522C0.552897 13.0129 0.857259 12.5646 1.24463 12.1772C1.632 11.7843 2.08024 11.48 2.58936 11.2642C3.09847 11.0428 3.64079 10.9321 4.21631 10.9321C4.79736 10.9321 5.34245 11.0428 5.85156 11.2642C6.36068 11.48 6.80892 11.7816 7.19629 12.1689C7.58366 12.5563 7.88525 13.0046 8.10107 13.5137C8.32243 14.0228 8.43311 14.5679 8.43311 15.1489C8.43311 15.7244 8.32243 16.2668 8.10107 16.7759C7.87972 17.285 7.57259 17.7332 7.17969 18.1206C6.79232 18.508 6.34408 18.8123 5.83496 19.0337C5.32585 19.255 4.7863 19.3657 4.21631 19.3657ZM4.22461 12.4678C4.0918 12.4678 3.95898 12.5342 3.82617 12.667L1.9751 14.3687C1.85889 14.4738 1.79801 14.6011 1.79248 14.7505C1.78141 14.8944 1.82568 15.0133 1.92529 15.1074C2.03044 15.2015 2.15218 15.2485 2.29053 15.2485C2.42887 15.2541 2.55892 15.196 2.68066 15.0742L3.17041 14.5762L3.71826 14.0117L3.67676 15.0742V17.2739C3.67676 17.4178 3.72933 17.5423 3.83447 17.6475C3.94515 17.7526 4.0752 17.8052 4.22461 17.8052C4.37402 17.8052 4.5013 17.7526 4.60645 17.6475C4.71712 17.5423 4.77246 17.4178 4.77246 17.2739V15.0742L4.73096 14.0117L5.27051 14.5762L5.76855 15.0742C5.81836 15.124 5.87646 15.1628 5.94287 15.1904C6.00928 15.2236 6.07845 15.243 6.15039 15.2485C6.29427 15.2541 6.41325 15.207 6.50732 15.1074C6.6014 15.0133 6.64844 14.8944 6.64844 14.7505C6.64844 14.6066 6.59033 14.4793 6.47412 14.3687L4.61475 12.667C4.47087 12.5342 4.34082 12.4678 4.22461 12.4678Z" fill="black"/>
</svg>
